<svg xmlns="http://www.w3.org/2000/svg" width="71.973" height="80.466" viewBox="0 0 71.973 80.466">
  <g id="Group_638" data-name="Group 638" transform="translate(-195.652 -464.534)">
    <g id="Group_632" data-name="Group 632" transform="translate(-53 32)">
      <g id="Group_631" data-name="Group 631" transform="translate(-181 273.061)">
        <path id="Path_553" data-name="Path 553" d="M521.368,231.392l-8.839,5.656-10.246-5.656a8.748,8.748,0,0,1-1.992-6.147,4.553,4.553,0,0,1,3.807-3.869s-1.578-3.548,1.577-4.81a17.66,17.66,0,0,1,4.725-.7c3.292-.214,6.671-.372,6.315-2.238,0,0,5.047,2.7,2.839,7.751a4.553,4.553,0,0,1,3.807,3.869,8.748,8.748,0,0,1-1.992,6.147Zm0,0" transform="translate(-24.068 -5.044)" fill="#f9efda"/>
        <path id="Path_554" data-name="Path 554" d="M510.4,240.633h0c-1.352.1-3.317,3.757-1.737,6.488,0,0-3.468,2.494-.944,9.04l-2.683,4.375-2.752-4.375a8.748,8.748,0,0,1-1.992-6.147,4.553,4.553,0,0,1,3.807-3.869s-1.578-3.548,1.577-4.81a17.66,17.66,0,0,1,4.725-.7Zm0,0" transform="translate(-24.068 -29.814)" fill="#f6e4c1"/>
        <path id="Path_555" data-name="Path 555" d="M481.724,417.96a48.557,48.557,0,0,1-1.886-8.091,3.324,3.324,0,1,1,6.61-.7,88.179,88.179,0,0,0,1.672,11.883l-2.177-.005a4.441,4.441,0,0,1-4.219-3.091Zm0,0" transform="translate(-5.328 -181.583)" fill="#df73c1"/>
        <path id="Path_556" data-name="Path 556" d="M488.12,421.06l-2.177,0a4.442,4.442,0,0,1-4.219-3.091,48.55,48.55,0,0,1-1.886-8.091,3.324,3.324,0,0,1,5.148-3.187,3.305,3.305,0,0,0-1.442,3.188,48.547,48.547,0,0,0,1.886,8.091,4.444,4.444,0,0,0,2.619,2.789l.071.308Zm0,0" transform="translate(-5.327 -181.587)" fill="#dd4fb1"/>
        <path id="Path_557" data-name="Path 557" d="M562.146,409.638V421.06l-1.426,0-3.876-.009a82.57,82.57,0,0,1-1.723-11.146,3.518,3.518,0,0,1,5.995-2.75,3.425,3.425,0,0,1,.317.365,3.5,3.5,0,0,1,.713,2.122Zm0,0" transform="translate(-74.389 -181.587)" fill="#ffe07d"/>
        <path id="Path_558" data-name="Path 558" d="M701.74,408.375s0,0,0,0a3.324,3.324,0,0,1,6.443,1.5,48.487,48.487,0,0,1-1.886,8.091,4.442,4.442,0,0,1-4.219,3.091l-2.177,0,0-.012Zm0,0" transform="translate(-207.18 -181.587)" fill="#ffe07d"/>
        <g id="Group_630" data-name="Group 630" transform="translate(474 208.312)">
          <g id="Group_639" data-name="Group 639" transform="translate(0 0)">
            <path id="Path_559" data-name="Path 559" d="M645.3,421.043a82.531,82.531,0,0,0,1.723-11.146,3.517,3.517,0,1,0-7.025-.263v11.422Zm0,0" transform="translate(-626.243 -389.895)" fill="#df73c1"/>
            <path id="Path_560" data-name="Path 560" d="M500.741,225.252a3.8,3.8,0,0,0-1.5-1.043,8.087,8.087,0,0,0,.684-4.177,4.668,4.668,0,0,0-2.281-3.55,5.814,5.814,0,0,0-1.355-.592,5.841,5.841,0,0,0-.852-5.718,8.175,8.175,0,0,0-2.4-2.113.466.466,0,0,0-.678.5.634.634,0,0,1-.109.549c-.622.8-3.2.971-5.473,1.118a19.3,19.3,0,0,0-5.173.755,3.4,3.4,0,0,0-2,1.88,4.7,4.7,0,0,0-.016,3.027,5.452,5.452,0,0,0-2.381,1.394.466.466,0,1,0,.67.648,4.62,4.62,0,0,1,2.208-1.208c1.517.989,6.747,1.049,7.829,1.05h.072a40.389,40.389,0,0,0,4.9-.269,6.924,6.924,0,0,0,2.9-.781A4,4,0,0,1,499,220.144a7.239,7.239,0,0,1-.678,3.837,3.786,3.786,0,0,0-3.608,1.679,3.946,3.946,0,0,0-.34-.425,4,4,0,0,0-2.928-1.28,3.958,3.958,0,0,0-2.816,1.166,4.006,4.006,0,0,0-.7.946,3.984,3.984,0,0,0-6.444-.833,3.913,3.913,0,0,0-.34.425,3.778,3.778,0,0,0-3.608-1.678,7.24,7.24,0,0,1-.678-3.837,4.288,4.288,0,0,1,.185-.832.466.466,0,1,0-.884-.3,5.19,5.19,0,0,0-.226,1.015,8.089,8.089,0,0,0,.684,4.177,3.781,3.781,0,0,0-2.4,4.026,49.377,49.377,0,0,0,1.9,8.171,4.895,4.895,0,0,0,4.661,3.415l2.177,0H492.9l2.177,0a4.895,4.895,0,0,0,4.662-3.415,49.281,49.281,0,0,0,1.9-8.172,3.771,3.771,0,0,0-.9-2.983Zm-12.822-8.417c-4.033-.005-6.725-.456-7.324-.895a4.063,4.063,0,0,1-.123-2.737,2.507,2.507,0,0,1,1.482-1.361,18.929,18.929,0,0,1,4.887-.69c2.71-.176,5.27-.341,6.15-1.477a1.551,1.551,0,0,0,.224-.394,7.316,7.316,0,0,1,1.482,1.45,4.947,4.947,0,0,1,.576,5.207c-.6.448-3.306.9-7.355.9Zm-5.747,9.033a3.053,3.053,0,0,1,5.295,2.068v10.957L483,238.881a83.083,83.083,0,0,1-1.631-10.717,3,3,0,0,1,.8-2.3Zm-5.155,10.254a48.433,48.433,0,0,1-1.868-8.012,2.836,2.836,0,0,1,.678-2.244,2.859,2.859,0,0,1,4.808.816,3.956,3.956,0,0,0-.192,1.556,84.018,84.018,0,0,0,1.608,10.654l-1.259,0a3.965,3.965,0,0,1-3.776-2.767Zm23.7-8.012a48.321,48.321,0,0,1-1.868,8.012,3.965,3.965,0,0,1-3.775,2.767l-1.259,0c.124-.564.325-1.522.546-2.732a.466.466,0,1,0-.917-.168c-.247,1.349-.468,2.379-.582,2.89l-4.463.011V227.935a3.051,3.051,0,1,1,6.094.229c-.146,1.873-.394,3.894-.736,6.008a.466.466,0,0,0,.92.149c.346-2.139.6-4.186.745-6.084a3.963,3.963,0,0,0-.192-1.556,2.857,2.857,0,0,1,5.486,1.428Zm0,0" transform="translate(-474.175 -208.198)"/>
          </g>
        </g>
      </g>
    </g>
    <g id="Group_635" data-name="Group 635" transform="translate(-260 306.346)">
      <path id="Path_529" data-name="Path 529" d="M484.247,271.8a1.8,1.8,0,0,0,3.041-1.119,2.388,2.388,0,0,1,1.6-1.149,2.393,2.393,0,0,1-.076-1.249,2.394,2.394,0,0,1-2.167-2.71,2.4,2.4,0,0,0-1.406.683l-.25-.933a2.393,2.393,0,1,0-4.622,1.238l.25.934a2.393,2.393,0,0,0-1.683,4.454,2.395,2.395,0,0,0,.144,2.843h4.692a2.393,2.393,0,0,1,.478-2.992Zm0,0" transform="translate(-10.67 -51.094)" fill="#88df8e" fill-rule="evenodd"/>
      <path id="Path_530" data-name="Path 530" d="M554.385,359.714a2.393,2.393,0,0,0-3.229,3.3h5.29l.3-.521a2.394,2.394,0,0,1-2.363-2.775Zm0,0" transform="translate(-78.058 -139.311)" fill="#ff5a58" fill-rule="evenodd"/>
      <path id="Path_531" data-name="Path 531" d="M595.326,293.665a2.393,2.393,0,0,0,2.072,3.589l-.3.521h8.671a2.393,2.393,0,0,1,1.744-3.574,2.395,2.395,0,0,0-2.1-1.252l.483-.837a2.391,2.391,0,0,0-3.057-3.374,2.375,2.375,0,0,0-1.087.981l-.483.836a2.393,2.393,0,0,0-4.34,1.96,2.386,2.386,0,0,0-1.6,1.149Zm0,0" transform="translate(-118.708 -74.077)" fill="#88df8e" fill-rule="evenodd"/>
      <path id="Path_532" data-name="Path 532" d="M590.68,265.4a2.393,2.393,0,0,0,2.189,2.384,2.4,2.4,0,0,1,2.547-1.9,2.394,2.394,0,0,0-2.154-2.871q-.094-.008-.19-.007a2.393,2.393,0,0,0-2.37,2.066,2.347,2.347,0,0,0-.022.327Zm0,0" transform="translate(-114.728 -50.594)" fill="#ffc144" fill-rule="evenodd"/>
      <path id="Path_533" data-name="Path 533" d="M623.059,219.307a2.394,2.394,0,0,1,2.153,2.871,2.4,2.4,0,0,1,1.869,1.188l.483-.837a2.393,2.393,0,0,1,4.144,2.393l-.483.837a2.4,2.4,0,0,1,1.97,1.034,2.393,2.393,0,0,0,.177-2.882,2.393,2.393,0,0,0-1.683-4.454l.25-.933a2.393,2.393,0,0,0-4.622-1.238l-.25.933a2.393,2.393,0,0,0-4.007,1.089Zm0,0" transform="translate(-144.524 -6.885)" fill="#88df8e" fill-rule="evenodd"/>
      <path id="Path_534" data-name="Path 534" d="M727.944,359.436a2.393,2.393,0,0,0-1.744,3.574h4.136a2.393,2.393,0,0,0-2.068-3.6,2.409,2.409,0,0,0-.324.022Zm0,0" transform="translate(-239.14 -139.311)" fill="#ff9346" fill-rule="evenodd"/>
      <g id="Group_620" data-name="Group 620" transform="translate(466.048 208.026)">
        <g id="Group_621" data-name="Group 621" transform="translate(0 0)">
          <path id="Path_535" data-name="Path 535" d="M498.554,404.5H475.129A1.125,1.125,0,0,0,474,405.629a13.171,13.171,0,0,0,5.278,10.539v2.094a.6.6,0,0,0,.6.6h14.567a.6.6,0,0,0,.6-.6v-2.094a13.168,13.168,0,0,0,5.279-10.539A1.125,1.125,0,0,0,499.2,404.5Zm0,0" transform="translate(-473.406 -388.831)" fill="#ffeadc" fill-rule="evenodd"/>
          <path id="Path_536" data-name="Path 536" d="M494.024,224.8a1.725,1.725,0,0,0-1.511-1.709,2.986,2.986,0,0,0-2.456-3.573,2.985,2.985,0,0,0,.033-2.307,2.991,2.991,0,0,0-1.666-5.338l.028-.1a2.991,2.991,0,0,0-5.778-1.548l-.028.1a11.591,11.591,0,0,0-6.713,3.622,3.034,3.034,0,0,0-.55.209l-.028-.1a2.991,2.991,0,0,0-5.778,1.548l.028.1a2.99,2.99,0,0,0-1.666,5.338,2.99,2.99,0,0,0-.114,1.888c.017.062.035.122.056.183a1.726,1.726,0,0,0-1.374,1.687,13.668,13.668,0,0,0,4.03,9.728,13.909,13.909,0,0,0,1.249,1.106v1.8a1.2,1.2,0,0,0,1.2,1.2h14.566a1.2,1.2,0,0,0,1.2-1.2v-1.8a13.857,13.857,0,0,0,1.249-1.106,13.669,13.669,0,0,0,4.03-9.728Zm-2.642-2.329a1.8,1.8,0,0,1-.106.605H487.9a1.794,1.794,0,1,1,3.483-.605Zm-6.773-2.792a.6.6,0,0,0-1.036-.6l-.935,1.62-.378-1.351a.6.6,0,1,0-1.152.322l.694,2.478-.534.925h-1.524a.59.59,0,0,0-.075-.222.6.6,0,0,0-.518-.3h0A1.795,1.795,0,0,1,478.8,219a.6.6,0,0,0,.448-.777,1.795,1.795,0,0,1,3.254-1.47.6.6,0,0,0,.518.3h0a.6.6,0,0,0,.518-.3l.483-.837a1.784,1.784,0,0,1,.787-.724.569.569,0,0,0,.063-.029,1.794,1.794,0,0,1,2.258,2.547l-.483.837a.6.6,0,0,0,.518.9h0a1.8,1.8,0,0,1,.9.241,1.737,1.737,0,0,1,.177.118,2.987,2.987,0,0,0-1.576,3.272h-4.012Zm-10.672,3.4a1.794,1.794,0,0,1,1.689-2.4,1.78,1.78,0,0,1,.534.081,3,3,0,0,0,1.1,2.319Zm7.837-11.811a1.8,1.8,0,0,1,.8.464.6.6,0,0,0,1-.268l.25-.933a1.794,1.794,0,0,1,3.467.929l-.25.933a.6.6,0,0,0,.733.732,1.795,1.795,0,0,1,1.262,3.341.6.6,0,0,0-.232.866,1.8,1.8,0,0,1,.239,1.457c-.01.036-.021.072-.032.107a3.027,3.027,0,0,0-.359-.245,2.977,2.977,0,0,0-.548-.247l.054-.094a2.988,2.988,0,0,0-2.74-4.481l.45-1.68a.6.6,0,1,0-1.156-.309l-.639,2.386a2.97,2.97,0,0,0-1.1,1.094l-.054.094a3,3,0,0,0-1.132-.629v0a3,3,0,0,0-1.959-2.807,1.8,1.8,0,0,1,1.938-.709Zm-2.969,1.721a1.8,1.8,0,0,1,1.791,1.694,3,3,0,0,0-2.242,1.475,3.079,3.079,0,0,0-.157.313,1.794,1.794,0,0,1,.607-3.482Zm-9.483,3.968a1.8,1.8,0,0,1,.928,0,.6.6,0,0,0,.733-.732l-.25-.933a1.795,1.795,0,0,1,3.467-.929l.25.933a.6.6,0,0,0,1,.268,1.778,1.778,0,0,1,.4-.3,2.989,2.989,0,0,0,2.1,2.388,2.923,2.923,0,0,0,.021.361,2.992,2.992,0,0,0-1.37,1.18l.036-.622a.6.6,0,0,0-1.195-.07l-.058.992a2.968,2.968,0,0,0-.985.252l-.524-1.955a.6.6,0,0,0-1.156.31l.647,2.413c-.046.054-.092.108-.134.165l-1.318-.455a.6.6,0,1,0-.39,1.131l1.192.412a2.973,2.973,0,0,0-.023,1.314h-3.523a1.793,1.793,0,0,1,.046-1.914.6.6,0,0,0-.232-.867,1.794,1.794,0,0,1,.333-3.341Zm18.466,17.9a.6.6,0,0,0-.239.479v2.094H472.983v-2.093a.6.6,0,0,0-.24-.479,12.691,12.691,0,0,1-1.36-1.179,12.478,12.478,0,0,1-3.68-8.882.527.527,0,0,1,.527-.527H492.3a.527.527,0,0,1,.527.527,12.479,12.479,0,0,1-3.68,8.882,12.694,12.694,0,0,1-1.36,1.179Zm0,0" transform="translate(-466.508 -208)"/>
        </g>
      </g>
      <path id="Path_537" data-name="Path 537" d="M499.5,427.008h-3.29a.6.6,0,0,0,0,1.2h3.29a.6.6,0,1,0,0-1.2Zm0,0" transform="translate(-27.24 -201.514)"/>
      <path id="Path_538" data-name="Path 538" d="M571.2,427.008a.6.6,0,1,0,0,1.2h0a.6.6,0,1,0,0-1.2Zm0,0" transform="translate(-96.251 -201.514)"/>
    </g>
    <g id="Group_636" data-name="Group 636" transform="translate(235.96 475.373)">
      <circle id="Ellipse_38" data-name="Ellipse 38" cx="15.349" cy="15.349" r="15.349" transform="translate(0.503 0.468)" fill="#f7f0e6"/>
      <circle id="Ellipse_39" data-name="Ellipse 39" cx="12.702" cy="12.702" r="12.702" transform="translate(3.15 3.115)" fill="#ff9b4b"/>
      <g id="Group_624" data-name="Group 624" transform="translate(6.325 7.878)">
        <circle id="Ellipse_40" data-name="Ellipse 40" cx="2.646" cy="2.646" r="2.646" transform="translate(0 7.41)" fill="#ffb45a"/>
        <circle id="Ellipse_41" data-name="Ellipse 41" cx="2.117" cy="2.117" r="2.117" transform="translate(11.115 7.939)" fill="#ffb45a"/>
        <circle id="Ellipse_42" data-name="Ellipse 42" cx="1.852" cy="1.852" r="1.852" transform="translate(6.881 1.059)" fill="#ffb45a"/>
        <circle id="Ellipse_43" data-name="Ellipse 43" cx="1.323" cy="1.323" r="1.323" transform="translate(9.263 12.438)" fill="#ffb45a"/>
        <circle id="Ellipse_44" data-name="Ellipse 44" cx="1.323" cy="1.323" r="1.323" transform="translate(11.644)" fill="#ffb45a"/>
      </g>
      <path id="Path_539" data-name="Path 539" d="M109.323,50.416a12.671,12.671,0,0,0-9.658,4.456,12.7,12.7,0,0,1,17.9,17.9,12.7,12.7,0,0,0-8.247-22.361Z" transform="translate(-93.47 -47.302)" fill="#ff784b"/>
      <path id="Path_540" data-name="Path 540" d="M16.586,20.516a6.9,6.9,0,0,1,4.106-4.059,1.254,1.254,0,0,0-.572-.22c-.127-.022-.249-.052-.372-.066a6.137,6.137,0,0,1-3.662-1.686l-6.6-6.6a1.059,1.059,0,0,0-1.612.136,1.1,1.1,0,0,0,.157,1.4l6.556,6.556a6.138,6.138,0,0,1,1.686,3.662,3.247,3.247,0,0,0,.066.372A1.047,1.047,0,0,0,16.586,20.516Z" transform="translate(-7.178 -7.109)" fill="#eee2d4"/>
      <path id="Path_541" data-name="Path 541" d="M27.033,4.636A15.812,15.812,0,0,0,5.8,3.612L2.633.446A1.522,1.522,0,0,0,.317.639a1.568,1.568,0,0,0,.206,2L3.647,5.764A15.813,15.813,0,1,0,27.033,4.636ZM1.07,1.18A.6.6,0,0,1,1.978,1.1L8.149,7.272a7.492,7.492,0,0,0,4.237,2.07,7.361,7.361,0,0,0-3.01,3.008A7.492,7.492,0,0,0,7.307,8.114L1.178,1.984A.643.643,0,0,1,1.07,1.18ZM6.652,8.769a6.713,6.713,0,0,1,1.873,4.244c.011.132.029.266.053.4a4.035,4.035,0,0,0,.156.6c-.027.109-.053.218-.076.329a.463.463,0,1,0,.908.186,6.418,6.418,0,0,1,4.877-4.968.463.463,0,0,0-.2-.9c-.066.015-.131.031-.2.048a4.04,4.04,0,0,0-.6-.156c-.132-.024-.266-.042-.4-.053A6.713,6.713,0,0,1,8.8,6.617l-.463-.463A12.24,12.24,0,1,1,6.189,8.306ZM26.378,26.343A14.886,14.886,0,0,1,4.306,6.423L5.529,7.646A13.162,13.162,0,1,0,7.681,5.493L6.458,4.27a14.886,14.886,0,0,1,19.92,22.073Z" transform="translate(0 0)"/>
      <path id="Path_542" data-name="Path 542" d="M190.5,167.345a.463.463,0,0,0,.651-.072,4.785,4.785,0,0,1,3.713-1.8.463.463,0,0,0,0-.927h0a5.707,5.707,0,0,0-4.43,2.15A.463.463,0,0,0,190.5,167.345Z" transform="translate(-178.535 -154.378)"/>
      <path id="Path_543" data-name="Path 543" d="M245.989,253.413a16.866,16.866,0,0,0-1.9-1.37,8.145,8.145,0,0,1-3.281-3.253.463.463,0,1,0-.825.423,9.015,9.015,0,0,0,3.6,3.608,16.136,16.136,0,0,1,1.8,1.3,1.976,1.976,0,0,1,.751,2.16,1.467,1.467,0,0,1-1.318,1,.463.463,0,0,0,.009.927h.009a2.368,2.368,0,0,0,2.171-1.608A2.864,2.864,0,0,0,245.989,253.413Z" transform="translate(-225.071 -233.183)"/>
      <path id="Path_544" data-name="Path 544" d="M272.92,236.1a.463.463,0,1,0,.511-.773,5.453,5.453,0,0,1-2.127-2.167.463.463,0,0,0-.825.423A6.32,6.32,0,0,0,272.92,236.1Z" transform="translate(-253.685 -218.521)"/>
      <path id="Path_545" data-name="Path 545" d="M210.776,245.533a10.132,10.132,0,0,1-4.012-4.063,1.65,1.65,0,0,1-.126-1.18.463.463,0,0,0-.9-.239,2.575,2.575,0,0,0,.2,1.842,10.913,10.913,0,0,0,4.331,4.418.463.463,0,0,0,.5-.777Z" transform="translate(-192.913 -224.898)"/>
      <path id="Path_546" data-name="Path 546" d="M337.643,290.933c-.238-.2-.485-.4-.757-.6a.463.463,0,0,0-.553.744c.254.189.485.373.705.563a.463.463,0,1,0,.6-.7Z" transform="translate(-315.342 -272.308)"/>
      <path id="Path_547" data-name="Path 547" d="M91.285,272.217a11.049,11.049,0,0,0,9.87,6.078.463.463,0,1,0,0-.927,10.122,10.122,0,0,1-9.043-5.569,2.187,2.187,0,0,1-.055-1.807,1.939,1.939,0,0,1,1.291-1.1.463.463,0,0,0-.264-.888,2.886,2.886,0,0,0-1.878,1.622A3.094,3.094,0,0,0,91.285,272.217Z" transform="translate(-85.303 -251.43)"/>
      <path id="Path_548" data-name="Path 548" d="M125.457,308.559a.463.463,0,0,0-.214.619,9.025,9.025,0,0,0,2.323,2.96.463.463,0,0,0,.593-.712,8.092,8.092,0,0,1-2.083-2.654A.463.463,0,0,0,125.457,308.559Z" transform="translate(-117.425 -289.453)"/>
      <path id="Path_549" data-name="Path 549" d="M193.922,374.08a.463.463,0,1,0-.374.848c.263.116.535.22.809.31a.463.463,0,1,0,.289-.88C194.4,374.277,194.158,374.184,193.922,374.08Z" transform="translate(-181.295 -350.933)"/>
      <path id="Path_550" data-name="Path 550" d="M348.945,110.4a10.2,10.2,0,0,1,3.121,3.657.463.463,0,0,0,.827-.417,11.132,11.132,0,0,0-3.406-3.991.463.463,0,0,0-.543.751Z" transform="translate(-327.171 -102.791)"/>
      <path id="Path_551" data-name="Path 551" d="M304.628,87.382c.3.1.6.223.889.355a.463.463,0,0,0,.384-.843c-.316-.144-.643-.274-.971-.387a.463.463,0,1,0-.3.876Z" transform="translate(-285.478 -81.138)"/>
      <path id="Path_552" data-name="Path 552" d="M248.963,112.383a8.05,8.05,0,0,1,4.077,1.11,7.8,7.8,0,0,1,2.853,2.886.611.611,0,0,1-.837.834.463.463,0,0,0-.344.86,1.855,1.855,0,0,0,.689.14,1.444,1.444,0,0,0,1.108-.5,1.557,1.557,0,0,0,.192-1.787,8.73,8.73,0,0,0-3.191-3.23,8.978,8.978,0,0,0-4.547-1.238.463.463,0,0,0,0,.927Z" transform="translate(-233.111 -104.571)"/>
    </g>
    <g id="Group_637" data-name="Group 637" transform="translate(195.652 488.226) rotate(-45)">
      <g id="Group_570" data-name="Group 570" transform="translate(0 0)">
        <g id="Group_572" data-name="Group 572" transform="translate(0 0)">
          <path id="Path_454" data-name="Path 454" d="M18.474,3.439s-6.6-7.087-12.794-.912C-.33,8.521,3.951,14.029,0,18.114a1.875,1.875,0,0,0,1.9,1.9,1.875,1.875,0,0,0,1.9,1.9c4.086-3.951,9.593.33,15.588-5.681,6.175-6.192-.912-12.794-.912-12.794Zm0,0" transform="translate(11.1 0.493)" fill="#a75113"/>
          <path id="Path_455" data-name="Path 455" d="M12.511.757A1.919,1.919,0,0,1,10.979,0l-4.1,4.1c-1.248,1.248-2.6.806-4.641.775A2.114,2.114,0,0,0,.722,8.582a3,3,0,0,0,3.165.8,3,3,0,0,0,.8,3.165,2.114,2.114,0,0,0,3.709-1.518c-.03-2.039-.473-3.393.775-4.641l4.1-4.1A1.921,1.921,0,0,1,12.511.757Zm0,0" transform="translate(0.488 19.75)" fill="#f2e7cb"/>
          <path id="Path_456" data-name="Path 456" d="M29.923,3.583C29.669,3.316,26.527.076,22.476,0a8.206,8.206,0,0,0-6.043,2.669c-3.455,3.445-3.641,6.744-3.806,9.654-.129,2.277-.24,4.244-1.881,5.94a.5.5,0,0,0-.138.328,2.445,2.445,0,0,0,.238,1.082L9.575,20.946a.493.493,0,1,0,.7.7l1.186-1.186a2.436,2.436,0,0,0,1.1.491,2.445,2.445,0,0,0,.49,1.1L9.309,25.788c-1.14,1.139-1.063,2.376-.973,3.808.023.377.048.768.054,1.189A1.665,1.665,0,0,1,7.415,32.4a1.7,1.7,0,0,1-1.893-.455,2.5,2.5,0,0,1-.691-2.628.493.493,0,0,0-.644-.644,2.506,2.506,0,0,1-2.628-.691A1.7,1.7,0,0,1,1.1,26.091a1.649,1.649,0,0,1,1.617-.975c.423.006.812.03,1.189.054,1.433.09,2.668.166,3.808-.973l1.024-1.024a.493.493,0,1,0-.7-.7L7.019,23.5c-.825.825-1.711.77-3.049.686-.389-.024-.791-.049-1.235-.056A2.637,2.637,0,0,0,.194,25.708a2.686,2.686,0,0,0,.668,2.973,3.5,3.5,0,0,0,2.874,1.09,3.5,3.5,0,0,0,1.09,2.875,2.82,2.82,0,0,0,1.988.868,2.529,2.529,0,0,0,.986-.2,2.635,2.635,0,0,0,1.578-2.541c-.007-.444-.032-.845-.057-1.235-.084-1.339-.138-2.224.687-3.05l3.823-3.826a2.468,2.468,0,0,0,1.027.239h.056a.492.492,0,0,0,.328-.138c1.7-1.641,3.663-1.752,5.94-1.881,2.91-.165,6.209-.351,9.654-3.806a8.208,8.208,0,0,0,2.669-6.043c-.076-4.053-3.316-7.2-3.583-7.448Zm.214,12.794c-3.179,3.188-6.143,3.356-9.011,3.518-2.307.13-4.489.254-6.411,2.007a1.369,1.369,0,0,1-1.223-1.427.493.493,0,0,0-.461-.459A1.371,1.371,0,0,1,11.6,18.792c1.753-1.922,1.877-4.1,2.007-6.411.163-2.867.331-5.833,3.518-9.011A7.244,7.244,0,0,1,22.451.987c3.714.065,6.732,3.249,6.763,3.281a.3.3,0,0,0,.024.024c.032.03,3.213,3.034,3.281,6.756a7.265,7.265,0,0,1-2.383,5.329Zm0,0" transform="translate(0 0)" fill="#242424"/>
        </g>
      </g>
      <path id="Path_457" data-name="Path 457" d="M2.383.146A9.6,9.6,0,0,0,0,6.2a.493.493,0,0,0,.986,0A8.747,8.747,0,0,1,3.1.823.493.493,0,0,0,2.383.146Zm0,0" transform="translate(15.804 5.244)" fill="#242424"/>
      <path id="Path_458" data-name="Path 458" d="M2.695.074A3.012,3.012,0,0,0,.164.649a.493.493,0,0,0,.645.745,2.009,2.009,0,0,1,1.669-.357A.493.493,0,1,0,2.694.074Zm0,0" transform="translate(19.97 3.022)" fill="#242424"/>
    </g>
  </g>
</svg>
