<svg xmlns="http://www.w3.org/2000/svg" width="54.104" height="54.104" viewBox="0 0 54.104 54.104">
  <g id="Group_633" data-name="Group 633" transform="translate(0 27.049) rotate(-45)">
    <g id="Group_570" data-name="Group 570" transform="translate(0 0)">
      <g id="Group_572" data-name="Group 572" transform="translate(0 0)">
        <path id="Path_454" data-name="Path 454" d="M21.091,3.926S13.555-4.166,6.485,2.885C-.376,9.729,4.511,16.016,0,20.68a2.141,2.141,0,0,0,2.168,2.169,2.141,2.141,0,0,0,2.169,2.168c4.665-4.511,10.952.377,17.8-6.485,7.05-7.069-1.041-14.606-1.041-14.606Zm0,0" transform="translate(12.672 0.563)" fill="#a75113"/>
        <path id="Path_455" data-name="Path 455" d="M14.283.864A2.191,2.191,0,0,1,12.535,0L7.856,4.678c-1.424,1.424-2.97.92-5.3.885A2.413,2.413,0,0,0,.824,9.8a3.422,3.422,0,0,0,3.614.911,3.422,3.422,0,0,0,.911,3.614,2.413,2.413,0,0,0,4.235-1.733c-.035-2.327-.54-3.874.885-5.3l4.677-4.677a2.193,2.193,0,0,1-.863-1.75Zm0,0" transform="translate(0.557 22.548)" fill="#f2e7cb"/>
        <path id="Path_456" data-name="Path 456" d="M34.162,4.091c-.289-.3-3.877-4-8.5-4.089a9.368,9.368,0,0,0-6.9,3.048c-3.944,3.933-4.157,7.7-4.345,11.021-.147,2.6-.274,4.845-2.147,6.782a.565.565,0,0,0-.158.375,2.791,2.791,0,0,0,.272,1.235l-1.451,1.451a.563.563,0,1,0,.8.8l1.354-1.354a2.781,2.781,0,0,0,1.257.56,2.791,2.791,0,0,0,.559,1.258l-4.269,4.268c-1.3,1.3-1.213,2.712-1.111,4.347.026.431.054.876.061,1.357a1.9,1.9,0,0,1-1.113,1.847,1.94,1.94,0,0,1-2.161-.52,2.857,2.857,0,0,1-.788-3,.563.563,0,0,0-.736-.736,2.861,2.861,0,0,1-3-.788,1.939,1.939,0,0,1-.52-2.161,1.883,1.883,0,0,1,1.847-1.113c.483.007.927.035,1.358.061,1.636.1,3.046.19,4.347-1.111L9.98,26.456a.563.563,0,1,0-.8-.8L8.014,26.829c-.942.942-1.953.879-3.481.784-.444-.028-.9-.056-1.41-.064a3.01,3.01,0,0,0-2.9,1.8,3.067,3.067,0,0,0,.762,3.394,4,4,0,0,0,3.282,1.244A4,4,0,0,0,5.51,37.27a3.22,3.22,0,0,0,2.269.991,2.887,2.887,0,0,0,1.126-.23,3.008,3.008,0,0,0,1.8-2.9c-.008-.507-.036-.965-.065-1.41-.1-1.529-.158-2.539.784-3.482l4.365-4.368a2.817,2.817,0,0,0,1.172.273h.064a.561.561,0,0,0,.375-.158c1.937-1.873,4.182-2,6.781-2.147,3.322-.188,7.088-.4,11.021-4.345a9.371,9.371,0,0,0,3.047-6.9c-.086-4.627-3.785-8.215-4.09-8.5ZM34.406,18.7c-3.629,3.639-7.013,3.831-10.287,4.016C21.485,22.862,18.994,23,16.8,25a1.563,1.563,0,0,1-1.4-1.629.563.563,0,0,0-.526-.525,1.566,1.566,0,0,1-1.63-1.4c2-2.194,2.143-4.686,2.291-7.32.186-3.273.377-6.66,4.016-10.287a8.27,8.27,0,0,1,6.077-2.719c4.24.075,7.686,3.709,7.721,3.746a.338.338,0,0,0,.028.028c.037.034,3.668,3.464,3.745,7.713a8.294,8.294,0,0,1-2.72,6.084Zm0,0" transform="translate(0 0)" fill="#242424"/>
      </g>
    </g>
    <path id="Path_457" data-name="Path 457" d="M2.721.167A10.961,10.961,0,0,0,0,7.084a.563.563,0,0,0,1.126,0A9.986,9.986,0,0,1,3.538.94.563.563,0,0,0,2.721.167Zm0,0" transform="translate(18.043 5.987)" fill="#242424"/>
    <path id="Path_458" data-name="Path 458" d="M3.076.084A3.438,3.438,0,0,0,.188.74a.563.563,0,0,0,.737.85A2.293,2.293,0,0,1,2.83,1.183a.563.563,0,1,0,.246-1.1Zm0,0" transform="translate(22.799 3.45)" fill="#242424"/>
  </g>
</svg>
