<svg xmlns="http://www.w3.org/2000/svg" width="64.27" height="54.104" viewBox="0 0 64.27 54.104">
  <g id="Group_930" data-name="Group 930" transform="translate(-224.295 -302.82)">
    <g id="Group_618" data-name="Group 618" transform="translate(224.295 329.87) rotate(-45)">
      <g id="Group_570" data-name="Group 570" transform="translate(0 0)">
        <g id="Group_572" data-name="Group 572" transform="translate(0 0)">
          <path id="Path_454" data-name="Path 454" d="M21.091,3.926S13.555-4.166,6.485,2.885C-.376,9.729,4.511,16.016,0,20.68a2.141,2.141,0,0,0,2.168,2.169,2.141,2.141,0,0,0,2.169,2.168c4.665-4.511,10.952.377,17.8-6.485,7.05-7.069-1.041-14.606-1.041-14.606Zm0,0" transform="translate(12.672 0.563)" fill="#a75113"/>
          <path id="Path_455" data-name="Path 455" d="M14.283.864A2.191,2.191,0,0,1,12.535,0L7.856,4.678c-1.424,1.424-2.97.92-5.3.885A2.413,2.413,0,0,0,.824,9.8a3.422,3.422,0,0,0,3.614.911,3.422,3.422,0,0,0,.911,3.614,2.413,2.413,0,0,0,4.235-1.733c-.035-2.327-.54-3.874.885-5.3l4.677-4.677a2.193,2.193,0,0,1-.863-1.75Zm0,0" transform="translate(0.557 22.548)" fill="#f2e7cb"/>
          <path id="Path_456" data-name="Path 456" d="M34.162,4.091c-.289-.3-3.877-4-8.5-4.089a9.368,9.368,0,0,0-6.9,3.048c-3.944,3.933-4.157,7.7-4.345,11.021-.147,2.6-.274,4.845-2.147,6.782a.565.565,0,0,0-.158.375,2.791,2.791,0,0,0,.272,1.235l-1.451,1.451a.563.563,0,1,0,.8.8l1.354-1.354a2.781,2.781,0,0,0,1.257.56,2.791,2.791,0,0,0,.559,1.258l-4.269,4.268c-1.3,1.3-1.213,2.712-1.111,4.347.026.431.054.876.061,1.357a1.9,1.9,0,0,1-1.113,1.847,1.94,1.94,0,0,1-2.161-.52,2.857,2.857,0,0,1-.788-3,.563.563,0,0,0-.736-.736,2.861,2.861,0,0,1-3-.788,1.939,1.939,0,0,1-.52-2.161,1.883,1.883,0,0,1,1.847-1.113c.483.007.927.035,1.358.061,1.636.1,3.046.19,4.347-1.111L9.98,26.456a.563.563,0,1,0-.8-.8L8.014,26.829c-.942.942-1.953.879-3.481.784-.444-.028-.9-.056-1.41-.064a3.01,3.01,0,0,0-2.9,1.8,3.067,3.067,0,0,0,.762,3.394,4,4,0,0,0,3.282,1.244A4,4,0,0,0,5.51,37.27a3.22,3.22,0,0,0,2.269.991,2.887,2.887,0,0,0,1.126-.23,3.008,3.008,0,0,0,1.8-2.9c-.008-.507-.036-.965-.065-1.41-.1-1.529-.158-2.539.784-3.482l4.365-4.368a2.817,2.817,0,0,0,1.172.273h.064a.561.561,0,0,0,.375-.158c1.937-1.873,4.182-2,6.781-2.147,3.322-.188,7.088-.4,11.021-4.345a9.371,9.371,0,0,0,3.047-6.9c-.086-4.627-3.785-8.215-4.09-8.5ZM34.406,18.7c-3.629,3.639-7.013,3.831-10.287,4.016C21.485,22.862,18.994,23,16.8,25a1.563,1.563,0,0,1-1.4-1.629.563.563,0,0,0-.526-.525,1.566,1.566,0,0,1-1.63-1.4c2-2.194,2.143-4.686,2.291-7.32.186-3.273.377-6.66,4.016-10.287a8.27,8.27,0,0,1,6.077-2.719c4.24.075,7.686,3.709,7.721,3.746a.338.338,0,0,0,.028.028c.037.034,3.668,3.464,3.745,7.713a8.294,8.294,0,0,1-2.72,6.084Zm0,0" transform="translate(0 0)" fill="#242424"/>
        </g>
      </g>
      <path id="Path_457" data-name="Path 457" d="M2.721.167A10.961,10.961,0,0,0,0,7.084a.563.563,0,0,0,1.126,0A9.986,9.986,0,0,1,3.538.94.563.563,0,0,0,2.721.167Zm0,0" transform="translate(18.043 5.987)" fill="#242424"/>
      <path id="Path_458" data-name="Path 458" d="M3.076.084A3.438,3.438,0,0,0,.188.74a.563.563,0,0,0,.737.85A2.293,2.293,0,0,1,2.83,1.183a.563.563,0,1,0,.246-1.1Zm0,0" transform="translate(22.799 3.45)" fill="#242424"/>
    </g>
    <g id="Group_619" data-name="Group 619" transform="translate(-205 112.346)">
      <path id="Path_529" data-name="Path 529" d="M484.247,271.8a1.8,1.8,0,0,0,3.041-1.119,2.388,2.388,0,0,1,1.6-1.149,2.393,2.393,0,0,1-.076-1.249,2.394,2.394,0,0,1-2.167-2.71,2.4,2.4,0,0,0-1.406.683l-.25-.933a2.393,2.393,0,1,0-4.622,1.238l.25.934a2.393,2.393,0,0,0-1.683,4.454,2.395,2.395,0,0,0,.144,2.843h4.692a2.393,2.393,0,0,1,.478-2.992Zm0,0" transform="translate(-10.67 -51.094)" fill="#88df8e" fill-rule="evenodd"/>
      <path id="Path_530" data-name="Path 530" d="M554.385,359.714a2.393,2.393,0,0,0-3.229,3.3h5.29l.3-.521a2.394,2.394,0,0,1-2.363-2.775Zm0,0" transform="translate(-78.058 -139.311)" fill="#ff5a58" fill-rule="evenodd"/>
      <path id="Path_531" data-name="Path 531" d="M595.326,293.665a2.393,2.393,0,0,0,2.072,3.589l-.3.521h8.671a2.393,2.393,0,0,1,1.744-3.574,2.395,2.395,0,0,0-2.1-1.252l.483-.837a2.391,2.391,0,0,0-3.057-3.374,2.375,2.375,0,0,0-1.087.981l-.483.836a2.393,2.393,0,0,0-4.34,1.96,2.386,2.386,0,0,0-1.6,1.149Zm0,0" transform="translate(-118.708 -74.077)" fill="#88df8e" fill-rule="evenodd"/>
      <path id="Path_532" data-name="Path 532" d="M590.68,265.4a2.393,2.393,0,0,0,2.189,2.384,2.4,2.4,0,0,1,2.547-1.9,2.394,2.394,0,0,0-2.154-2.871q-.094-.008-.19-.007a2.393,2.393,0,0,0-2.37,2.066,2.347,2.347,0,0,0-.022.327Zm0,0" transform="translate(-114.728 -50.594)" fill="#ffc144" fill-rule="evenodd"/>
      <path id="Path_533" data-name="Path 533" d="M623.059,219.307a2.394,2.394,0,0,1,2.153,2.871,2.4,2.4,0,0,1,1.869,1.188l.483-.837a2.393,2.393,0,0,1,4.144,2.393l-.483.837a2.4,2.4,0,0,1,1.97,1.034,2.393,2.393,0,0,0,.177-2.882,2.393,2.393,0,0,0-1.683-4.454l.25-.933a2.393,2.393,0,0,0-4.622-1.238l-.25.933a2.393,2.393,0,0,0-4.007,1.089Zm0,0" transform="translate(-144.524 -6.885)" fill="#88df8e" fill-rule="evenodd"/>
      <path id="Path_534" data-name="Path 534" d="M727.944,359.436a2.393,2.393,0,0,0-1.744,3.574h4.136a2.393,2.393,0,0,0-2.068-3.6,2.409,2.409,0,0,0-.324.022Zm0,0" transform="translate(-239.14 -139.311)" fill="#ff9346" fill-rule="evenodd"/>
      <g id="Group_620" data-name="Group 620" transform="translate(466.048 208.026)">
        <g id="Group_621" data-name="Group 621" transform="translate(0 0)">
          <path id="Path_535" data-name="Path 535" d="M498.554,404.5H475.129A1.125,1.125,0,0,0,474,405.629a13.171,13.171,0,0,0,5.278,10.539v2.094a.6.6,0,0,0,.6.6h14.567a.6.6,0,0,0,.6-.6v-2.094a13.168,13.168,0,0,0,5.279-10.539A1.125,1.125,0,0,0,499.2,404.5Zm0,0" transform="translate(-473.406 -388.831)" fill="#ffeadc" fill-rule="evenodd"/>
          <path id="Path_536" data-name="Path 536" d="M494.024,224.8a1.725,1.725,0,0,0-1.511-1.709,2.986,2.986,0,0,0-2.456-3.573,2.985,2.985,0,0,0,.033-2.307,2.991,2.991,0,0,0-1.666-5.338l.028-.1a2.991,2.991,0,0,0-5.778-1.548l-.028.1a11.591,11.591,0,0,0-6.713,3.622,3.034,3.034,0,0,0-.55.209l-.028-.1a2.991,2.991,0,0,0-5.778,1.548l.028.1a2.99,2.99,0,0,0-1.666,5.338,2.99,2.99,0,0,0-.114,1.888c.017.062.035.122.056.183a1.726,1.726,0,0,0-1.374,1.687,13.668,13.668,0,0,0,4.03,9.728,13.909,13.909,0,0,0,1.249,1.106v1.8a1.2,1.2,0,0,0,1.2,1.2h14.566a1.2,1.2,0,0,0,1.2-1.2v-1.8a13.857,13.857,0,0,0,1.249-1.106,13.669,13.669,0,0,0,4.03-9.728Zm-2.642-2.329a1.8,1.8,0,0,1-.106.605H487.9a1.794,1.794,0,1,1,3.483-.605Zm-6.773-2.792a.6.6,0,0,0-1.036-.6l-.935,1.62-.378-1.351a.6.6,0,1,0-1.152.322l.694,2.478-.534.925h-1.524a.59.59,0,0,0-.075-.222.6.6,0,0,0-.518-.3h0A1.795,1.795,0,0,1,478.8,219a.6.6,0,0,0,.448-.777,1.795,1.795,0,0,1,3.254-1.47.6.6,0,0,0,.518.3h0a.6.6,0,0,0,.518-.3l.483-.837a1.784,1.784,0,0,1,.787-.724.569.569,0,0,0,.063-.029,1.794,1.794,0,0,1,2.258,2.547l-.483.837a.6.6,0,0,0,.518.9h0a1.8,1.8,0,0,1,.9.241,1.737,1.737,0,0,1,.177.118,2.987,2.987,0,0,0-1.576,3.272h-4.012Zm-10.672,3.4a1.794,1.794,0,0,1,1.689-2.4,1.78,1.78,0,0,1,.534.081,3,3,0,0,0,1.1,2.319Zm7.837-11.811a1.8,1.8,0,0,1,.8.464.6.6,0,0,0,1-.268l.25-.933a1.794,1.794,0,0,1,3.467.929l-.25.933a.6.6,0,0,0,.733.732,1.795,1.795,0,0,1,1.262,3.341.6.6,0,0,0-.232.866,1.8,1.8,0,0,1,.239,1.457c-.01.036-.021.072-.032.107a3.027,3.027,0,0,0-.359-.245,2.977,2.977,0,0,0-.548-.247l.054-.094a2.988,2.988,0,0,0-2.74-4.481l.45-1.68a.6.6,0,1,0-1.156-.309l-.639,2.386a2.97,2.97,0,0,0-1.1,1.094l-.054.094a3,3,0,0,0-1.132-.629v0a3,3,0,0,0-1.959-2.807,1.8,1.8,0,0,1,1.938-.709Zm-2.969,1.721a1.8,1.8,0,0,1,1.791,1.694,3,3,0,0,0-2.242,1.475,3.079,3.079,0,0,0-.157.313,1.794,1.794,0,0,1,.607-3.482Zm-9.483,3.968a1.8,1.8,0,0,1,.928,0,.6.6,0,0,0,.733-.732l-.25-.933a1.795,1.795,0,0,1,3.467-.929l.25.933a.6.6,0,0,0,1,.268,1.778,1.778,0,0,1,.4-.3,2.989,2.989,0,0,0,2.1,2.388,2.923,2.923,0,0,0,.021.361,2.992,2.992,0,0,0-1.37,1.18l.036-.622a.6.6,0,0,0-1.195-.07l-.058.992a2.968,2.968,0,0,0-.985.252l-.524-1.955a.6.6,0,0,0-1.156.31l.647,2.413c-.046.054-.092.108-.134.165l-1.318-.455a.6.6,0,1,0-.39,1.131l1.192.412a2.973,2.973,0,0,0-.023,1.314h-3.523a1.793,1.793,0,0,1,.046-1.914.6.6,0,0,0-.232-.867,1.794,1.794,0,0,1,.333-3.341Zm18.466,17.9a.6.6,0,0,0-.239.479v2.094H472.983v-2.093a.6.6,0,0,0-.24-.479,12.691,12.691,0,0,1-1.36-1.179,12.478,12.478,0,0,1-3.68-8.882.527.527,0,0,1,.527-.527H492.3a.527.527,0,0,1,.527.527,12.479,12.479,0,0,1-3.68,8.882,12.694,12.694,0,0,1-1.36,1.179Zm0,0" transform="translate(-466.508 -208)"/>
        </g>
      </g>
      <path id="Path_537" data-name="Path 537" d="M499.5,427.008h-3.29a.6.6,0,0,0,0,1.2h3.29a.6.6,0,1,0,0-1.2Zm0,0" transform="translate(-27.24 -201.514)"/>
      <path id="Path_538" data-name="Path 538" d="M571.2,427.008a.6.6,0,1,0,0,1.2h0a.6.6,0,1,0,0-1.2Zm0,0" transform="translate(-96.251 -201.514)"/>
    </g>
  </g>
</svg>
