<svg xmlns="http://www.w3.org/2000/svg" width="74.112" height="68.681" viewBox="0 0 74.112 68.681">
  <g id="Group_836" data-name="Group 836" transform="translate(-54.295 -453.321)">
    <g id="Group_623" data-name="Group 623" transform="translate(-367 245.295)">
      <path id="Path_529" data-name="Path 529" d="M484.692,272.355a1.923,1.923,0,0,0,3.245-1.194,2.547,2.547,0,0,1,1.706-1.226,2.553,2.553,0,0,1-.081-1.333,2.555,2.555,0,0,1-2.312-2.892,2.559,2.559,0,0,0-1.5.729l-.267-1a2.553,2.553,0,1,0-4.932,1.321l.267,1a2.553,2.553,0,0,0-1.8,4.753,2.555,2.555,0,0,0,.153,3.033h5.007a2.553,2.553,0,0,1,.51-3.192Zm0,0" transform="translate(-10.611 -50.798)" fill="#88df8e" fill-rule="evenodd"/>
      <path id="Path_530" data-name="Path 530" d="M554.623,359.734a2.553,2.553,0,0,0-3.445,3.517h5.645l.321-.556a2.555,2.555,0,0,1-2.521-2.961Zm0,0" transform="translate(-77.608 -138.502)" fill="#ff5a58" fill-rule="evenodd"/>
      <path id="Path_531" data-name="Path 531" d="M595.347,294.01a2.554,2.554,0,0,0,2.211,3.83l-.321.556h9.252a2.553,2.553,0,0,1,1.861-3.814,2.533,2.533,0,0,0-.968-.993,2.542,2.542,0,0,0-1.276-.342l.515-.893a2.551,2.551,0,0,0-3.262-3.6A2.534,2.534,0,0,0,602.2,289.8l-.516.892a2.553,2.553,0,0,0-4.631,2.091,2.546,2.546,0,0,0-1.706,1.226Zm0,0" transform="translate(-118.021 -73.647)" fill="#88df8e" fill-rule="evenodd"/>
      <path id="Path_532" data-name="Path 532" d="M590.68,265.561a2.553,2.553,0,0,0,2.336,2.544,2.557,2.557,0,0,1,2.718-2.025,2.555,2.555,0,0,0-2.3-3.064q-.1-.008-.2-.008a2.553,2.553,0,0,0-2.529,2.2,2.5,2.5,0,0,0-.024.348Zm0,0" transform="translate(-114.065 -50.3)" fill="#ffc144" fill-rule="evenodd"/>
      <path id="Path_533" data-name="Path 533" d="M623.059,219.561a2.554,2.554,0,0,1,2.3,3.063,2.558,2.558,0,0,1,1.994,1.267l.516-.893a2.553,2.553,0,0,1,4.422,2.553l-.515.893a2.558,2.558,0,0,1,2.1,1.1,2.554,2.554,0,0,0,.188-3.075,2.553,2.553,0,0,0-1.8-4.753l.267-1A2.553,2.553,0,0,0,627.6,217.4l-.267,1a2.553,2.553,0,0,0-4.276,1.162Zm0,0" transform="translate(-143.688 -6.845)" fill="#88df8e" fill-rule="evenodd"/>
      <path id="Path_534" data-name="Path 534" d="M728.083,359.437a2.553,2.553,0,0,0-1.861,3.814h4.413a2.553,2.553,0,0,0-2.207-3.837,2.568,2.568,0,0,0-.345.023Zm0,0" transform="translate(-237.754 -138.502)" fill="#ff9346" fill-rule="evenodd"/>
      <g id="Group_620" data-name="Group 620" transform="translate(466.048 208.026)">
        <g id="Group_621" data-name="Group 621" transform="translate(0 0)">
          <path id="Path_535" data-name="Path 535" d="M500.2,404.5H475.2a1.2,1.2,0,0,0-1.2,1.2,14.052,14.052,0,0,0,5.632,11.245v2.234a.64.64,0,0,0,.638.638h15.542a.64.64,0,0,0,.638-.638V416.95a14.05,14.05,0,0,0,5.632-11.245,1.2,1.2,0,0,0-1.2-1.2Zm0,0" transform="translate(-473.366 -387.781)" fill="#ffeadc" fill-rule="evenodd"/>
          <path id="Path_536" data-name="Path 536" d="M495.867,225.922a1.841,1.841,0,0,0-1.612-1.824,3.186,3.186,0,0,0-2.621-3.812,3.185,3.185,0,0,0,.036-2.462,3.191,3.191,0,0,0-1.778-5.7l.03-.112a3.191,3.191,0,0,0-6.165-1.652l-.03.112a12.367,12.367,0,0,0-7.162,3.865,3.237,3.237,0,0,0-.587.223l-.03-.111a3.191,3.191,0,0,0-6.165,1.652l.03.112a3.191,3.191,0,0,0-1.777,5.7,3.19,3.19,0,0,0-.121,2.014c.018.066.038.131.06.195a1.841,1.841,0,0,0-1.466,1.8,14.583,14.583,0,0,0,4.3,10.38,14.839,14.839,0,0,0,1.332,1.18V239.4a1.278,1.278,0,0,0,1.276,1.277h15.542a1.278,1.278,0,0,0,1.277-1.277v-1.919a14.789,14.789,0,0,0,1.332-1.18,14.585,14.585,0,0,0,4.3-10.38Zm-2.819-2.485a1.916,1.916,0,0,1-.113.646h-3.6a1.914,1.914,0,1,1,3.717-.646Zm-7.227-2.979a.638.638,0,0,0-1.106-.638l-1,1.729-.4-1.442a.638.638,0,1,0-1.229.344l.74,2.644-.57.987h-1.626a.63.63,0,0,0-.08-.237.637.637,0,0,0-.552-.319h0a1.915,1.915,0,0,1-.376-3.792.638.638,0,0,0,.478-.829,1.915,1.915,0,0,1,3.472-1.569.639.639,0,0,0,.553.319h0a.638.638,0,0,0,.553-.319l.515-.893a1.9,1.9,0,0,1,.84-.772.6.6,0,0,0,.067-.031,1.914,1.914,0,0,1,2.409,2.718l-.515.893a.638.638,0,0,0,.552.957h0a1.915,1.915,0,0,1,.955.257,1.852,1.852,0,0,1,.189.126,3.187,3.187,0,0,0-1.681,3.491h-4.28Zm-11.386,3.624a1.916,1.916,0,0,1,2.372-2.475,3.2,3.2,0,0,0,1.171,2.475Zm8.361-12.6a1.915,1.915,0,0,1,.858.495.638.638,0,0,0,1.068-.286l.267-1a1.915,1.915,0,0,1,3.7.991l-.267,1a.638.638,0,0,0,.782.782,1.915,1.915,0,0,1,1.346,3.565.638.638,0,0,0-.248.925,1.916,1.916,0,0,1,.255,1.555c-.01.039-.022.077-.035.114a3.233,3.233,0,0,0-.383-.261,3.177,3.177,0,0,0-.585-.263l.058-.1a3.188,3.188,0,0,0-2.923-4.781l.48-1.792a.638.638,0,1,0-1.233-.33l-.682,2.545a3.168,3.168,0,0,0-1.169,1.167l-.058.1a3.205,3.205,0,0,0-1.208-.671v0a3.2,3.2,0,0,0-2.09-3,1.92,1.92,0,0,1,2.067-.756Zm-3.168,1.837a1.917,1.917,0,0,1,1.911,1.808,3.2,3.2,0,0,0-2.392,1.574,3.28,3.28,0,0,0-.167.334,1.914,1.914,0,0,1,.648-3.715Zm-10.118,4.234a1.917,1.917,0,0,1,.991,0,.638.638,0,0,0,.782-.782l-.267-1a1.915,1.915,0,0,1,3.7-.991l.267,1a.638.638,0,0,0,1.068.286,1.9,1.9,0,0,1,.428-.321,3.189,3.189,0,0,0,2.242,2.548,3.124,3.124,0,0,0,.023.385,3.192,3.192,0,0,0-1.462,1.259l.039-.664a.638.638,0,0,0-1.275-.074l-.062,1.058a3.167,3.167,0,0,0-1.051.269l-.559-2.086a.638.638,0,0,0-1.233.33l.69,2.575c-.05.057-.1.115-.143.176l-1.406-.485a.638.638,0,1,0-.417,1.207l1.272.439a3.172,3.172,0,0,0-.024,1.4h-3.759a1.914,1.914,0,0,1,.049-2.042.638.638,0,0,0-.248-.925,1.915,1.915,0,0,1,.356-3.565Zm19.7,19.1a.638.638,0,0,0-.255.511V239.4H473.416v-2.234a.638.638,0,0,0-.256-.511,13.543,13.543,0,0,1-1.451-1.258,13.314,13.314,0,0,1-3.926-9.477.563.563,0,0,1,.562-.562h25.682a.563.563,0,0,1,.562.562,13.314,13.314,0,0,1-3.926,9.477,13.547,13.547,0,0,1-1.451,1.258Zm0,0" transform="translate(-466.508 -208)"/>
        </g>
      </g>
      <path id="Path_537" data-name="Path 537" d="M499.757,427.008h-3.51a.638.638,0,0,0,0,1.276h3.51a.638.638,0,1,0,0-1.276Zm0,0" transform="translate(-27.084 -200.344)"/>
      <path id="Path_538" data-name="Path 538" d="M571.24,427.008a.638.638,0,1,0,0,1.276h0a.638.638,0,1,0,0-1.276Zm0,0" transform="translate(-95.695 -200.344)"/>
    </g>
    <g id="Group_625" data-name="Group 625" transform="translate(92.96 490.373)">
      <circle id="Ellipse_38" data-name="Ellipse 38" cx="15.349" cy="15.349" r="15.349" transform="translate(0.503 0.468)" fill="#f7f0e6"/>
      <circle id="Ellipse_39" data-name="Ellipse 39" cx="12.702" cy="12.702" r="12.702" transform="translate(3.15 3.115)" fill="#ff9b4b"/>
      <g id="Group_624" data-name="Group 624" transform="translate(6.325 7.878)">
        <circle id="Ellipse_40" data-name="Ellipse 40" cx="2.646" cy="2.646" r="2.646" transform="translate(0 7.41)" fill="#ffb45a"/>
        <circle id="Ellipse_41" data-name="Ellipse 41" cx="2.117" cy="2.117" r="2.117" transform="translate(11.115 7.939)" fill="#ffb45a"/>
        <circle id="Ellipse_42" data-name="Ellipse 42" cx="1.852" cy="1.852" r="1.852" transform="translate(6.881 1.059)" fill="#ffb45a"/>
        <circle id="Ellipse_43" data-name="Ellipse 43" cx="1.323" cy="1.323" r="1.323" transform="translate(9.263 12.438)" fill="#ffb45a"/>
        <circle id="Ellipse_44" data-name="Ellipse 44" cx="1.323" cy="1.323" r="1.323" transform="translate(11.644)" fill="#ffb45a"/>
      </g>
      <path id="Path_539" data-name="Path 539" d="M109.323,50.416a12.671,12.671,0,0,0-9.658,4.456,12.7,12.7,0,0,1,17.9,17.9,12.7,12.7,0,0,0-8.247-22.361Z" transform="translate(-93.47 -47.302)" fill="#ff784b"/>
      <path id="Path_540" data-name="Path 540" d="M16.586,20.516a6.9,6.9,0,0,1,4.106-4.059,1.254,1.254,0,0,0-.572-.22c-.127-.022-.249-.052-.372-.066a6.137,6.137,0,0,1-3.662-1.686l-6.6-6.6a1.059,1.059,0,0,0-1.612.136,1.1,1.1,0,0,0,.157,1.4l6.556,6.556a6.138,6.138,0,0,1,1.686,3.662,3.247,3.247,0,0,0,.066.372A1.047,1.047,0,0,0,16.586,20.516Z" transform="translate(-7.178 -7.109)" fill="#eee2d4"/>
      <path id="Path_541" data-name="Path 541" d="M27.033,4.636A15.812,15.812,0,0,0,5.8,3.612L2.633.446A1.522,1.522,0,0,0,.317.639a1.568,1.568,0,0,0,.206,2L3.647,5.764A15.813,15.813,0,1,0,27.033,4.636ZM1.07,1.18A.6.6,0,0,1,1.978,1.1L8.149,7.272a7.492,7.492,0,0,0,4.237,2.07,7.361,7.361,0,0,0-3.01,3.008A7.492,7.492,0,0,0,7.307,8.114L1.178,1.984A.643.643,0,0,1,1.07,1.18ZM6.652,8.769a6.713,6.713,0,0,1,1.873,4.244c.011.132.029.266.053.4a4.035,4.035,0,0,0,.156.6c-.027.109-.053.218-.076.329a.463.463,0,1,0,.908.186,6.418,6.418,0,0,1,4.877-4.968.463.463,0,0,0-.2-.9c-.066.015-.131.031-.2.048a4.04,4.04,0,0,0-.6-.156c-.132-.024-.266-.042-.4-.053A6.713,6.713,0,0,1,8.8,6.617l-.463-.463A12.24,12.24,0,1,1,6.189,8.306ZM26.378,26.343A14.886,14.886,0,0,1,4.306,6.423L5.529,7.646A13.162,13.162,0,1,0,7.681,5.493L6.458,4.27a14.886,14.886,0,0,1,19.92,22.073Z" transform="translate(0 0)"/>
      <path id="Path_542" data-name="Path 542" d="M190.5,167.345a.463.463,0,0,0,.651-.072,4.785,4.785,0,0,1,3.713-1.8.463.463,0,0,0,0-.927h0a5.707,5.707,0,0,0-4.43,2.15A.463.463,0,0,0,190.5,167.345Z" transform="translate(-178.535 -154.378)"/>
      <path id="Path_543" data-name="Path 543" d="M245.989,253.413a16.866,16.866,0,0,0-1.9-1.37,8.145,8.145,0,0,1-3.281-3.253.463.463,0,1,0-.825.423,9.015,9.015,0,0,0,3.6,3.608,16.136,16.136,0,0,1,1.8,1.3,1.976,1.976,0,0,1,.751,2.16,1.467,1.467,0,0,1-1.318,1,.463.463,0,0,0,.009.927h.009a2.368,2.368,0,0,0,2.171-1.608A2.864,2.864,0,0,0,245.989,253.413Z" transform="translate(-225.071 -233.183)"/>
      <path id="Path_544" data-name="Path 544" d="M272.92,236.1a.463.463,0,1,0,.511-.773,5.453,5.453,0,0,1-2.127-2.167.463.463,0,0,0-.825.423A6.32,6.32,0,0,0,272.92,236.1Z" transform="translate(-253.685 -218.521)"/>
      <path id="Path_545" data-name="Path 545" d="M210.776,245.533a10.132,10.132,0,0,1-4.012-4.063,1.65,1.65,0,0,1-.126-1.18.463.463,0,0,0-.9-.239,2.575,2.575,0,0,0,.2,1.842,10.913,10.913,0,0,0,4.331,4.418.463.463,0,0,0,.5-.777Z" transform="translate(-192.913 -224.898)"/>
      <path id="Path_546" data-name="Path 546" d="M337.643,290.933c-.238-.2-.485-.4-.757-.6a.463.463,0,0,0-.553.744c.254.189.485.373.705.563a.463.463,0,1,0,.6-.7Z" transform="translate(-315.342 -272.308)"/>
      <path id="Path_547" data-name="Path 547" d="M91.285,272.217a11.049,11.049,0,0,0,9.87,6.078.463.463,0,1,0,0-.927,10.122,10.122,0,0,1-9.043-5.569,2.187,2.187,0,0,1-.055-1.807,1.939,1.939,0,0,1,1.291-1.1.463.463,0,0,0-.264-.888,2.886,2.886,0,0,0-1.878,1.622A3.094,3.094,0,0,0,91.285,272.217Z" transform="translate(-85.303 -251.43)"/>
      <path id="Path_548" data-name="Path 548" d="M125.457,308.559a.463.463,0,0,0-.214.619,9.025,9.025,0,0,0,2.323,2.96.463.463,0,0,0,.593-.712,8.092,8.092,0,0,1-2.083-2.654A.463.463,0,0,0,125.457,308.559Z" transform="translate(-117.425 -289.453)"/>
      <path id="Path_549" data-name="Path 549" d="M193.922,374.08a.463.463,0,1,0-.374.848c.263.116.535.22.809.31a.463.463,0,1,0,.289-.88C194.4,374.277,194.158,374.184,193.922,374.08Z" transform="translate(-181.295 -350.933)"/>
      <path id="Path_550" data-name="Path 550" d="M348.945,110.4a10.2,10.2,0,0,1,3.121,3.657.463.463,0,0,0,.827-.417,11.132,11.132,0,0,0-3.406-3.991.463.463,0,0,0-.543.751Z" transform="translate(-327.171 -102.791)"/>
      <path id="Path_551" data-name="Path 551" d="M304.628,87.382c.3.1.6.223.889.355a.463.463,0,0,0,.384-.843c-.316-.144-.643-.274-.971-.387a.463.463,0,1,0-.3.876Z" transform="translate(-285.478 -81.138)"/>
      <path id="Path_552" data-name="Path 552" d="M248.963,112.383a8.05,8.05,0,0,1,4.077,1.11,7.8,7.8,0,0,1,2.853,2.886.611.611,0,0,1-.837.834.463.463,0,0,0-.344.86,1.855,1.855,0,0,0,.689.14,1.444,1.444,0,0,0,1.108-.5,1.557,1.557,0,0,0,.192-1.787,8.73,8.73,0,0,0-3.191-3.23,8.978,8.978,0,0,0-4.547-1.238.463.463,0,0,0,0,.927Z" transform="translate(-233.111 -104.571)"/>
    </g>
    <g id="Group_634" data-name="Group 634" transform="translate(54.295 484.869) rotate(-45)">
      <g id="Group_570" data-name="Group 570" transform="translate(0 0)">
        <g id="Group_572" data-name="Group 572" transform="translate(0 0)">
          <path id="Path_454" data-name="Path 454" d="M21.091,3.926S13.555-4.166,6.485,2.885C-.376,9.729,4.511,16.016,0,20.68a2.141,2.141,0,0,0,2.168,2.169,2.141,2.141,0,0,0,2.169,2.168c4.665-4.511,10.952.377,17.8-6.485,7.05-7.069-1.041-14.606-1.041-14.606Zm0,0" transform="translate(12.672 0.563)" fill="#a75113"/>
          <path id="Path_455" data-name="Path 455" d="M14.283.864A2.191,2.191,0,0,1,12.535,0L7.856,4.678c-1.424,1.424-2.97.92-5.3.885A2.413,2.413,0,0,0,.824,9.8a3.422,3.422,0,0,0,3.614.911,3.422,3.422,0,0,0,.911,3.614,2.413,2.413,0,0,0,4.235-1.733c-.035-2.327-.54-3.874.885-5.3l4.677-4.677a2.193,2.193,0,0,1-.863-1.75Zm0,0" transform="translate(0.557 22.548)" fill="#f2e7cb"/>
          <path id="Path_456" data-name="Path 456" d="M34.162,4.091c-.289-.3-3.877-4-8.5-4.089a9.368,9.368,0,0,0-6.9,3.048c-3.944,3.933-4.157,7.7-4.345,11.021-.147,2.6-.274,4.845-2.147,6.782a.565.565,0,0,0-.158.375,2.791,2.791,0,0,0,.272,1.235l-1.451,1.451a.563.563,0,1,0,.8.8l1.354-1.354a2.781,2.781,0,0,0,1.257.56,2.791,2.791,0,0,0,.559,1.258l-4.269,4.268c-1.3,1.3-1.213,2.712-1.111,4.347.026.431.054.876.061,1.357a1.9,1.9,0,0,1-1.113,1.847,1.94,1.94,0,0,1-2.161-.52,2.857,2.857,0,0,1-.788-3,.563.563,0,0,0-.736-.736,2.861,2.861,0,0,1-3-.788,1.939,1.939,0,0,1-.52-2.161,1.883,1.883,0,0,1,1.847-1.113c.483.007.927.035,1.358.061,1.636.1,3.046.19,4.347-1.111L9.98,26.456a.563.563,0,1,0-.8-.8L8.014,26.829c-.942.942-1.953.879-3.481.784-.444-.028-.9-.056-1.41-.064a3.01,3.01,0,0,0-2.9,1.8,3.067,3.067,0,0,0,.762,3.394,4,4,0,0,0,3.282,1.244A4,4,0,0,0,5.51,37.27a3.22,3.22,0,0,0,2.269.991,2.887,2.887,0,0,0,1.126-.23,3.008,3.008,0,0,0,1.8-2.9c-.008-.507-.036-.965-.065-1.41-.1-1.529-.158-2.539.784-3.482l4.365-4.368a2.817,2.817,0,0,0,1.172.273h.064a.561.561,0,0,0,.375-.158c1.937-1.873,4.182-2,6.781-2.147,3.322-.188,7.088-.4,11.021-4.345a9.371,9.371,0,0,0,3.047-6.9c-.086-4.627-3.785-8.215-4.09-8.5ZM34.406,18.7c-3.629,3.639-7.013,3.831-10.287,4.016C21.485,22.862,18.994,23,16.8,25a1.563,1.563,0,0,1-1.4-1.629.563.563,0,0,0-.526-.525,1.566,1.566,0,0,1-1.63-1.4c2-2.194,2.143-4.686,2.291-7.32.186-3.273.377-6.66,4.016-10.287a8.27,8.27,0,0,1,6.077-2.719c4.24.075,7.686,3.709,7.721,3.746a.338.338,0,0,0,.028.028c.037.034,3.668,3.464,3.745,7.713a8.294,8.294,0,0,1-2.72,6.084Zm0,0" transform="translate(0 0)" fill="#242424"/>
        </g>
      </g>
      <path id="Path_457" data-name="Path 457" d="M2.721.167A10.961,10.961,0,0,0,0,7.084a.563.563,0,0,0,1.126,0A9.986,9.986,0,0,1,3.538.94.563.563,0,0,0,2.721.167Zm0,0" transform="translate(18.043 5.987)" fill="#242424"/>
      <path id="Path_458" data-name="Path 458" d="M3.076.084A3.438,3.438,0,0,0,.188.74a.563.563,0,0,0,.737.85A2.293,2.293,0,0,1,2.83,1.183a.563.563,0,1,0,.246-1.1Zm0,0" transform="translate(22.799 3.45)" fill="#242424"/>
    </g>
  </g>
</svg>
