<svg xmlns="http://www.w3.org/2000/svg" xmlns:xlink="http://www.w3.org/1999/xlink" width="80.918" height="64.529" viewBox="0 0 80.918 64.529">
  <defs>
    <clipPath id="clip-path">
      <rect id="Rectangle_154" data-name="Rectangle 154" width="45" height="45" transform="translate(0 -0.385)" fill="none"/>
    </clipPath>
  </defs>
  <g id="Group_599" data-name="Group 599" transform="translate(-230.082 -300.395)">
    <g id="Group_597" data-name="Group 597" transform="translate(-240 323.055)">
      <path id="Path_482" data-name="Path 482" d="M707.354,160.73a5.694,5.694,0,0,1-3-2.054l-.018.009a11.421,11.421,0,0,1-1.354,1.014l-2.1,4.512-3.113,6.665,2.377,1.184,7.778-11.115.009-.08c-.2-.036-.395-.081-.583-.135Zm0,0" transform="translate(-168.835 -147.572)" fill="#becc69"/>
      <path id="Path_483" data-name="Path 483" d="M704.717,159.116c-.126-.144-.251-.287-.368-.44l-.018.009a11.619,11.619,0,0,1-1.355,1.014l-5.2,11.025,1.48.942,4.575-9.724a6.063,6.063,0,0,1,1.669-2.108l.009-.009a5.931,5.931,0,0,1-.79-.708Zm0,0" transform="translate(-168.835 -147.572)" fill="#adbc55"/>
      <path id="Path_484" data-name="Path 484" d="M588.242,168.292a5.708,5.708,0,0,1-3.05.332l-.009.081-6.836,9.886a1.925,1.925,0,0,1-2.252.718,1.955,1.955,0,0,1-1.247-1.5l-1.166-7.033-.323-1.821a9.738,9.738,0,0,1-3.866-1.507l.726,8.746c0,2-1.884,2.557-2.826.871-.709-1.265-2.7-5.132-3.83-7.347-.476-.924-.8-1.561-.816-1.6a3.962,3.962,0,0,0-4.4-.027l9.15,19.341a3.539,3.539,0,0,0,3.624,2.215h5.751a3.6,3.6,0,0,0,3.66-2.341c1.48-4.27,1.974-8.621,5.741-14.2.763-1.121,1.624-2.305,2.62-3.543l.027-.027a3.963,3.963,0,0,1-.682-1.247Zm0,0" transform="translate(-46.09 -155.295)" fill="#cadd78"/>
      <path id="Path_485" data-name="Path 485" d="M577.56,190.045h-4.135a3.837,3.837,0,0,1-3.624-2.575l-9.966-19.2a4.6,4.6,0,0,1-1.561.529l9.33,19.341a3.837,3.837,0,0,0,3.624,2.575h4.853a3.778,3.778,0,0,0,2.27-.763,3.345,3.345,0,0,1-.79.09Zm0,0" transform="translate(-46.021 -156.021)" fill="#adbc55"/>
      <path id="Path_486" data-name="Path 486" d="M651.892,177.187c.861.243,1.749-.449,1.749-1.821l-.6-7.2a10.678,10.678,0,0,1-1.615-.861l.727,8.746a2.388,2.388,0,0,1-.26,1.139Zm0,0" transform="translate(-128.032 -155.165)" fill="#adbc55"/>
      <path id="Path_487" data-name="Path 487" d="M539.295,172.113l2.943,5.661-.036.018a3.867,3.867,0,0,1-4.925-5.517l.063-.251c.116.027.242.054.368.081a4.96,4.96,0,0,0,1.588.009Zm0,0" transform="translate(-27.042 -159.322)" fill="#3b601c"/>
      <path id="Path_488" data-name="Path 488" d="M537.566,192.732a3.929,3.929,0,0,1-.816-1.13,3.86,3.86,0,0,0,3.938,3.785,3.908,3.908,0,0,0,1.534-.35l.036-.018-.736-1.426a3.853,3.853,0,0,1-3.956-.861Zm0,0" transform="translate(-27.072 -176.559)" fill="#67a829"/>
      <path id="Path_489" data-name="Path 489" d="M796.442,186.215l-.009.027a3.09,3.09,0,0,1-4.674,2.188l-.009-.009c.763-1.13,1.624-2.305,2.619-3.543l.027-.027a3.851,3.851,0,0,0,2.045,1.363Zm0,0" transform="translate(-251.572 -170.617)" fill="#3b601c"/>
      <path id="Path_490" data-name="Path 490" d="M795.913,194.75a3.1,3.1,0,0,1-3.678,1.687c-.171.233-.332.475-.485.708l.009.009a3.1,3.1,0,0,0,4.674-2.189l.009-.027a4.491,4.491,0,0,1-.529-.188Zm0,0" transform="translate(-251.572 -179.331)" fill="#67a829"/>
      <path id="Path_491" data-name="Path 491" d="M599.417,150.875a12.2,12.2,0,0,0,2.279,1.965,3.711,3.711,0,0,1-5.93,2.279c-.475-.924-.8-1.561-.816-1.6a5.369,5.369,0,0,0,3.193-1.175,5.109,5.109,0,0,0,1.274-1.471Zm0,0" transform="translate(-78.31 -140.704)" fill="#3b601c"/>
      <path id="Path_492" data-name="Path 492" d="M601.739,162.273a4.45,4.45,0,0,1-5.813,1.49c.135.269.385.753.709,1.381a3.709,3.709,0,0,0,5.93-2.278,8.619,8.619,0,0,1-.826-.593Zm0,0" transform="translate(-79.17 -150.738)" fill="#315112"/>
      <path id="Path_493" data-name="Path 493" d="M690.64,167.3l-2.1,4.512a3.88,3.88,0,0,1-4.468-1.193l-.323-1.821a9.877,9.877,0,0,0,1.453.108,10.009,10.009,0,0,0,5.437-1.606Zm0,0" transform="translate(-156.489 -155.165)" fill="#4e7a25"/>
      <path id="Path_494" data-name="Path 494" d="M684.638,180.039l-.018-.126c-.3-.018-.583-.045-.87-.09l.323,1.821a3.889,3.889,0,0,0,4.468,1.193l.511-1.094a4.735,4.735,0,0,1-4.413-1.7Zm0,0" transform="translate(-156.489 -166.19)" fill="#2c4415"/>
      <path id="Path_495" data-name="Path 495" d="M517.2,92.493a5.154,5.154,0,0,0-.314,6.728,5.069,5.069,0,0,0,1.435,1.22,4.9,4.9,0,0,1-3.328.619,2.647,2.647,0,0,1-.368-.081,4.894,4.894,0,0,1,2.01-9.572l.125-.036a4.878,4.878,0,0,0,.44,1.121Zm0,0" transform="translate(-4.333 -88.287)" fill="#3b601c"/>
      <path id="Path_496" data-name="Path 496" d="M557.334,92.661a4.62,4.62,0,0,1-.332-.888l-.125.036c-.081-.018-.171-.027-.251-.036a7.292,7.292,0,0,0,.709.888Zm0,0" transform="translate(-44.57 -88.671)" fill="#67a829"/>
      <g id="Group_596" data-name="Group 596" transform="translate(506 -9.669)">
        <g id="Group_595" data-name="Group 595" transform="translate(0 0)" clip-path="url(#clip-path)">
          <path id="Path_497" data-name="Path 497" d="M516.974,111.413a6.168,6.168,0,0,1-4.772-6.288,4.9,4.9,0,0,0,2.476,8c.117.027.242.054.368.081a4.906,4.906,0,0,0,3.328-.619,4.9,4.9,0,0,1-1.4-1.175Zm0,0" transform="translate(-510.372 -90.757)" fill="#67a829"/>
          <path id="Path_498" data-name="Path 498" d="M582.339,17.328a5.54,5.54,0,0,1-3.05.332q-.3-.054-.592-.135a5.645,5.645,0,0,1-3-2.046l-.018.009a11.621,11.621,0,0,1-1.355,1.014,10.067,10.067,0,0,1-5.436,1.615,9.868,9.868,0,0,1-1.453-.108,9.6,9.6,0,0,1-3.866-1.507,11.622,11.622,0,0,1-2.279-1.965A5.5,5.5,0,0,1,560.029,16a5.26,5.26,0,0,1-3.194,1.175,5.1,5.1,0,0,1-2.655-.655,4.953,4.953,0,0,1-1.435-1.22,5.166,5.166,0,0,1,.314-6.728,5.011,5.011,0,0,1-.448-1.112c-1.049-3.965,2.862-8.908,8.092-6.064,2.951-7.9,13.869-6.2,16.308-.682,3.759-1.848,7.787,1.955,6.378,4.925h.135a5.65,5.65,0,0,1,4.9,8.468,3.544,3.544,0,0,1-2.584,5.966,3.3,3.3,0,0,1-.78-.1,3.957,3.957,0,0,1-2.718-2.646Zm0,0" transform="translate(-546.187 5.303)" fill="#4d841e"/>
          <path id="Path_499" data-name="Path 499" d="M592.265,99.793a5.647,5.647,0,0,0-.556-6.441,3.778,3.778,0,0,1-2.862,5.077,3.158,3.158,0,0,1-.825.027,4.063,4.063,0,0,1-2.341-1.094c-.117-.117-.234-.233-.341-.359a1.376,1.376,0,0,0-1.552-.395,5.851,5.851,0,0,1-2.117.377c-.216,0-.421-.018-.637-.036a5.888,5.888,0,0,1-2.987-1.256c-.08-.063-.152-.126-.233-.2a.309.309,0,0,0-.43.027c-.269.3-.736.8-1.032,1.068A10.442,10.442,0,0,1,571,99.183a9.677,9.677,0,0,1-1.525.125,10.066,10.066,0,0,1-4.252-.942,11.375,11.375,0,0,1-1.49-.816,1.362,1.362,0,0,0-1.848.35,5.8,5.8,0,0,1-.421.529,5.547,5.547,0,0,1-3.1,1.767,5.423,5.423,0,0,1-2.342-.081,4.926,4.926,0,0,0,2.01,2.118,5.1,5.1,0,0,0,2.655.654,5.372,5.372,0,0,0,3.194-1.175,5.189,5.189,0,0,0,1.265-1.462,12.178,12.178,0,0,0,2.279,1.965,9.738,9.738,0,0,0,3.866,1.507,9.953,9.953,0,0,0,1.453.107,10.084,10.084,0,0,0,5.436-1.615,11.36,11.36,0,0,0,1.355-1.013l.018-.009a5.687,5.687,0,0,0,3,2.054q.3.081.592.135a5.713,5.713,0,0,0,3.05-.332,3.9,3.9,0,0,0,.673,1.282,3.863,3.863,0,0,0,2.046,1.364,3.271,3.271,0,0,0,.78.1,3.545,3.545,0,0,0,3.543-3.543,3.617,3.617,0,0,0-.969-2.458Zm0,0" transform="translate(-550.04 -80.392)" fill="#67a829"/>
          <path id="Path_500" data-name="Path 500" d="M549.243,10.094a6.178,6.178,0,0,0-4.934-8.9,4.23,4.23,0,0,0-1.318-3.875,5.237,5.237,0,0,0-5.544-1.238,8.211,8.211,0,0,0-3.454-3.274,11.185,11.185,0,0,0-5.463-1.265,9.318,9.318,0,0,0-4.781,1.426,8.406,8.406,0,0,0-3.14,3.741,5.759,5.759,0,0,0-5.724.234,6.351,6.351,0,0,0-2.79,5.7c.009.107.018.206.036.314a5.427,5.427,0,0,0-2.189,10.5,4.407,4.407,0,0,0,3.974,6.324,4.24,4.24,0,0,0,1.1-.143l6.423,13.805a3.232,3.232,0,0,0,2.924,1.866h.036l7.751-.081a3.222,3.222,0,0,0,3.05-2.269c.134-.449.278-.907.421-1.373a53.143,53.143,0,0,1,5.194-12.613,3.65,3.65,0,0,0,1.337.26,3.571,3.571,0,0,0,1.947-.574,3.682,3.682,0,0,0,1.525-2.018c.126.009.243.018.368.018a4.085,4.085,0,0,0,4.082-4.082,3.993,3.993,0,0,0-.835-2.485Zm-41.687-2.44A4.358,4.358,0,0,1,512.4,4.065c.063.171.125.332.2.493a5.839,5.839,0,0,0-1.31,3.373,5.58,5.58,0,0,0,1.991,4.575,4.322,4.322,0,0,1-2.162.179,4.371,4.371,0,0,1-3.561-5.033Zm3.328,9.124a3.347,3.347,0,0,1,.126-3.032,5.222,5.222,0,0,0,.834.063c.153,0,.3-.009.449-.018l2.261,4.862a3.338,3.338,0,0,1-3.669-1.875Zm23.709,14.5c-.143.466-.278.924-.421,1.373a2.145,2.145,0,0,1-2.036,1.516l-7.751.081h-.027A2.164,2.164,0,0,1,522.4,33l-9.016-19.412a5.792,5.792,0,0,0,.977-.395,5.583,5.583,0,0,0,1.965.556c.117.009.233.018.359.018.7,1.372,3.607,7.06,4.513,8.666a2.248,2.248,0,0,0,1.893,1.274,1.837,1.837,0,0,0,.44-.054,2.245,2.245,0,0,0,1.5-2.35v-.045l-.637-7.724a10.188,10.188,0,0,0,2.781.987l1.6,9.052a2.182,2.182,0,0,0,2.153,1.812,1.887,1.887,0,0,0,.314-.027,2.231,2.231,0,0,0,1.489-.915l7.042-10.146a5.147,5.147,0,0,0,.646.036,6.08,6.08,0,0,0,1.794-.269,4.458,4.458,0,0,0,.314.574c-4.665,5.93-6.468,11.859-7.93,16.641Zm-13.4-16.389a2.991,2.991,0,0,1-2.943-.4c-.152-.305-.287-.565-.4-.79a5.862,5.862,0,0,0,2.691-1.211,6.076,6.076,0,0,0,1-1.032,12.563,12.563,0,0,0,1.606,1.354,3.116,3.116,0,0,1-1.955,2.082Zm2.2-.269.556,6.71c0,.673-.278,1.175-.7,1.283-.385.1-.816-.171-1.121-.7-.556-1-1.955-3.687-3.068-5.858a3.966,3.966,0,0,0,.978.116,4.512,4.512,0,0,0,3.355-1.552Zm11.545-1.687c.3-.2.592-.4.87-.628.01.018.027.027.036.045a6.142,6.142,0,0,0,2.763,1.732l-6.782,9.76a1.129,1.129,0,0,1-.754.467,1.114,1.114,0,0,1-1.157-.6Zm-5.382,9-.825-4.656a4.759,4.759,0,0,0,2.332.646c.125,0,.242-.009.368-.018ZM532,16.66a3.4,3.4,0,0,1-3.553-1l-.17-.987c.26.018.529.036.8.036a10.536,10.536,0,0,0,4.261-.906Zm11.536,1.095a2.52,2.52,0,0,1-2.126.287c.548-.852,1.149-1.7,1.812-2.557a4.282,4.282,0,0,0,1.382.888,2.607,2.607,0,0,1-1.068,1.382ZM546,15.584a3.284,3.284,0,0,1-2.808-1.92,6.038,6.038,0,0,0,1.391-.968,6.265,6.265,0,0,0,1.516-2.153.537.537,0,0,0-.35-.727.547.547,0,0,0-.646.314A5.109,5.109,0,0,1,535.4,7.089a5.053,5.053,0,0,1,.852-1.929.538.538,0,0,0-.861-.646,6.1,6.1,0,0,0-1.041,2.351,6.213,6.213,0,0,0,.816,4.566,9.62,9.62,0,0,1-6.082,2.2,9.565,9.565,0,0,1-6.944-3.122,5.8,5.8,0,0,0,.6-2.826.538.538,0,0,0-.619-.511.546.546,0,0,0-.457.565,4.81,4.81,0,0,1-5.239,4.952,4.462,4.462,0,0,1-3.085-1.66,4.632,4.632,0,0,1-.144-5.482,6.16,6.16,0,0,0,2.44,1.884.532.532,0,0,0,.709-.269.539.539,0,0,0-.269-.708,4.562,4.562,0,0,1-2.907-3.885,5.239,5.239,0,0,1,2.287-4.71,4.882,4.882,0,0,1,5.158.072.522.522,0,0,0,.448.027.542.542,0,0,0,.314-.314,7.528,7.528,0,0,1,7.168-5.024c3.543-.107,6.979,1.732,8.145,4.378a.533.533,0,0,0,.305.287.5.5,0,0,0,.421-.027,4.175,4.175,0,0,1,4.809.825,2.942,2.942,0,0,1,.852,3.382.556.556,0,0,0,.035.529.53.53,0,0,0,.476.243h.107a5.117,5.117,0,0,1,5.113,5.113A5.064,5.064,0,0,1,548.13,9.9a.542.542,0,0,0,.072.637,3,3,0,0,1-2.2,5.05Zm0,0" transform="translate(-506.363 9.245)" fill="#242424"/>
        </g>
      </g>
    </g>
    <g id="Group_598" data-name="Group 598" transform="translate(230.082 332.656) rotate(-45)">
      <g id="Group_570" data-name="Group 570" transform="translate(0)">
        <g id="Group_572" data-name="Group 572" transform="translate(0 0)">
          <path id="Path_454" data-name="Path 454" d="M25.156,4.682S16.167-4.968,7.735,3.44C-.449,11.6,5.38,19.1,0,24.665a2.553,2.553,0,0,0,2.586,2.587,2.553,2.553,0,0,0,2.587,2.586c5.564-5.38,13.062.449,21.225-7.735,8.409-8.432-1.242-17.42-1.242-17.42Zm0,0" transform="translate(15.114 0.672)" fill="#a75113"/>
          <path id="Path_455" data-name="Path 455" d="M17.035,1.03A2.613,2.613,0,0,1,14.95,0L9.37,5.58c-1.7,1.7-3.543,1.1-6.319,1.056A2.878,2.878,0,0,0,.983,11.686a4.082,4.082,0,0,0,4.31,1.086,4.082,4.082,0,0,0,1.086,4.31,2.878,2.878,0,0,0,5.051-2.067c-.042-2.776-.645-4.62,1.056-6.319l5.579-5.579A2.615,2.615,0,0,1,17.035,1.03Zm0,0" transform="translate(0.665 26.893)" fill="#f2e7cb"/>
          <path id="Path_456" data-name="Path 456" d="M40.744,4.879C40.4,4.515,36.12.1,30.6,0a11.173,11.173,0,0,0-8.229,3.635c-4.7,4.691-4.958,9.183-5.182,13.145-.175,3.1-.327,5.778-2.561,8.088a.674.674,0,0,0-.188.447,3.329,3.329,0,0,0,.324,1.473l-1.731,1.731a.672.672,0,1,0,.95.949L15.6,27.856a3.316,3.316,0,0,0,1.5.668,3.329,3.329,0,0,0,.667,1.5l-5.091,5.091c-1.552,1.551-1.447,3.235-1.326,5.185.031.514.065,1.045.073,1.619a2.268,2.268,0,0,1-1.327,2.2,2.313,2.313,0,0,1-2.577-.62,3.407,3.407,0,0,1-.94-3.579.672.672,0,0,0-.877-.877,3.412,3.412,0,0,1-3.578-.94,2.313,2.313,0,0,1-.62-2.578,2.245,2.245,0,0,1,2.2-1.327c.576.008,1.106.041,1.619.073,1.951.122,3.633.226,5.185-1.325L11.9,31.554a.672.672,0,1,0-.951-.949L9.558,32c-1.124,1.123-2.329,1.049-4.152.935-.529-.033-1.077-.066-1.682-.076a3.59,3.59,0,0,0-3.46,2.149,3.658,3.658,0,0,0,.909,4.048,4.769,4.769,0,0,0,3.914,1.484,4.771,4.771,0,0,0,1.484,3.914,3.84,3.84,0,0,0,2.707,1.182,3.444,3.444,0,0,0,1.343-.274A3.588,3.588,0,0,0,12.77,41.9c-.009-.6-.043-1.151-.077-1.682-.115-1.824-.188-3.029.935-4.152l5.206-5.209a3.36,3.36,0,0,0,1.4.325h.077a.669.669,0,0,0,.447-.188c2.31-2.234,4.988-2.385,8.088-2.561,3.962-.224,8.454-.479,13.145-5.183a11.176,11.176,0,0,0,3.635-8.228c-.1-5.518-4.515-9.8-4.878-10.142Zm.291,17.42c-4.328,4.341-8.365,4.569-12.27,4.79-3.141.177-6.112.345-8.729,2.732a1.865,1.865,0,0,1-1.666-1.943.671.671,0,0,0-.628-.626A1.867,1.867,0,0,1,15.8,25.588c2.387-2.617,2.556-5.589,2.733-8.73.222-3.9.45-7.943,4.79-12.27A9.863,9.863,0,0,1,30.57,1.345c5.057.089,9.167,4.424,9.209,4.468a.4.4,0,0,0,.033.033c.044.041,4.374,4.131,4.467,9.2A9.892,9.892,0,0,1,41.035,22.3Zm0,0" fill="#242424"/>
        </g>
      </g>
      <path id="Path_457" data-name="Path 457" d="M3.245.2A13.073,13.073,0,0,0,0,8.449a.671.671,0,0,0,1.342,0A11.91,11.91,0,0,1,4.22,1.121.671.671,0,0,0,3.245.2Zm0,0" transform="translate(21.52 7.141)" fill="#242424"/>
      <path id="Path_458" data-name="Path 458" d="M3.669.1A4.1,4.1,0,0,0,.224.883.671.671,0,0,0,1.1,1.9a2.735,2.735,0,0,1,2.272-.486A.671.671,0,1,0,3.668.1Zm0,0" transform="translate(27.193 4.115)" fill="#242424"/>
    </g>
  </g>
</svg>
