<svg xmlns="http://www.w3.org/2000/svg" width="30.623" height="30.623" viewBox="0 0 30.623 30.623">
  <g id="Group_614" data-name="Group 614" transform="translate(-448 -208)">
    <path id="Path_527" data-name="Path 527" d="M474.138,212.484a15.312,15.312,0,1,0,4.484,10.827,15.213,15.213,0,0,0-4.484-10.827Zm-10.827,24.344a13.517,13.517,0,1,1,13.517-13.517,13.533,13.533,0,0,1-13.517,13.517Zm0,0" fill="#a4afc1"/>
    <path id="Path_528" data-name="Path 528" d="M586.253,288.949h-1.922a1.986,1.986,0,0,1,0-3.971h3.844a.9.9,0,1,0,0-1.794h-1.985V281.2a.9.9,0,1,0-1.794,0v1.986h-.064a3.78,3.78,0,0,0,0,7.56h1.922a1.986,1.986,0,0,1,0,3.971h-3.844a.9.9,0,0,0,0,1.794h1.986V298.5a.9.9,0,1,0,1.794,0V296.51h.064a3.78,3.78,0,0,0,0-7.56Zm0,0" transform="translate(-121.98 -66.535)" fill="#a4afc1"/>
  </g>
</svg>
