<svg xmlns="http://www.w3.org/2000/svg" width="27.341" height="35" viewBox="0 0 27.341 35">
  <g id="Group_846" data-name="Group 846" transform="translate(-76 63.882)">
    <path id="Path_836" data-name="Path 836" d="M106.309-42.346c.134.612-.455,5.524-3.891,5.524-3.664,0-2.911-4.8-2.841-5.536.391-4.246,2.992-12.7-7.613-15.126h-.082a5.256,5.256,0,0,0-.531.024.863.863,0,0,1,.169.157c3.576,5.116,1.943,7.992,1.382,10.237-.729,2.928-7.537,9.952-8.283,3.22a32.987,32.987,0,0,0-1.8,4.544,12.37,12.37,0,0,0-.449,3.313,12.346,12.346,0,0,0,8.657,11.778c.006,0,.006.006.012.006s.018.006.023.006a12.286,12.286,0,0,0,3.016.53h.012c.21.012.414.018.624.018,6.813,0,13.837-5.9,13.837-12.711,0-3.745-1.5-5.238-2.246-5.985Zm0,0" transform="translate(-5.794 -5.815)" fill="#e47c00"/>
    <path id="Path_837" data-name="Path 837" d="M140.222,118.583c5.571,1.271,4.206,5.722,4,7.951-.041.391-.432,2.911,1.493,2.911,1.8,0,2.117-2.59,2.048-2.9a3.91,3.91,0,0,1,1.178,3.144c0,3.441-3.418,6.446-6.86,6.667h-.012a12.284,12.284,0,0,1-3.016-.53c-.006,0-.011-.006-.023-.006s-.006-.006-.012-.006a6.488,6.488,0,0,1-3.844-5.933,6.614,6.614,0,0,1,.239-1.738,17.642,17.642,0,0,1,.939-2.386c.4,3.541,3.973-.152,4.364-1.692.292-1.184,1.149-2.689-.735-5.384a.4.4,0,0,0-.087-.081c.087-.006.187-.012.28-.012Zm0,0" transform="translate(-53.782 -165.834)" fill="#f7d300"/>
    <path id="Path_838" data-name="Path 838" d="M100.927-48.575a.577.577,0,0,0-.674-.093.6.6,0,0,0-.308.625,6.654,6.654,0,0,1-1.3,3.859,2.534,2.534,0,0,1-2.018.964A2.044,2.044,0,0,1,95-43.849c-.986-1.1-.738-3.355-.656-4.1l.019-.178c.044-.487.119-1.03.2-1.612.608-4.441,1.627-11.874-8.263-14.134a.674.674,0,0,0-.13-.014h-.082c-.2,0-.393.008-.581.025a.583.583,0,0,0-.5.4.582.582,0,0,0,.17.62l.079.052c2.948,4.219,2.178,6.773,1.561,8.824-.1.327-.192.639-.267.94-.474,1.9-3.894,5.716-5.776,5.6-.74-.05-1.2-.825-1.362-2.3a.583.583,0,0,0-.462-.507.58.58,0,0,0-.625.283,33.111,33.111,0,0,0-1.85,4.673A12.984,12.984,0,0,0,76-41.805a12.946,12.946,0,0,0,9.032,12.323l.042.016.015,0a12.871,12.871,0,0,0,3.834.581c7.411,0,14.419-6.462,14.419-13.3,0-3.981-1.631-5.612-2.415-6.4ZM81.979-35.956a6.239,6.239,0,0,1,.212-1.582c.059-.206.194-.589.346-.987a1.405,1.405,0,0,0,1,.509c1.629.111,3.648-2.357,3.966-3.617.036-.147.082-.3.13-.458a5.216,5.216,0,0,0-.285-4.289c3.294,1.219,2.925,3.925,2.623,6.137-.044.322-.085.621-.109.888l-.008.073a3.828,3.828,0,0,0,.565,2.85,1.966,1.966,0,0,0,1.516.628,2.244,2.244,0,0,0,1.8-.9,3.746,3.746,0,0,0,.578-1.086,4.533,4.533,0,0,1,.261,1.635c0,3.212-3.257,5.831-6.173,6.078a11.73,11.73,0,0,1-2.953-.5,5.915,5.915,0,0,1-3.47-5.384ZM92.863-30.7a7.185,7.185,0,0,0,2.879-5.456,4.471,4.471,0,0,0-1.353-3.555.592.592,0,0,0-.7-.11.559.559,0,0,0-.285.623,3.218,3.218,0,0,1-.66,1.855,1.056,1.056,0,0,1-.814.37.784.784,0,0,1-.646-.239,2.621,2.621,0,0,1-.276-1.942l.011-.095c.023-.252.062-.535.1-.838.31-2.27.888-6.494-4.557-7.737a1.021,1.021,0,0,0-.174-.015c-.111,0-.224.008-.327.017a.574.574,0,0,0-.485.418.62.62,0,0,0,.17.616,4.3,4.3,0,0,1,.761,4.36c-.053.178-.1.349-.144.51-.24.951-1.908,2.738-2.718,2.738h-.036c-.321-.022-.43-.685-.461-.968a.584.584,0,0,0-.463-.506.584.584,0,0,0-.624.284,17.781,17.781,0,0,0-1,2.524,7.443,7.443,0,0,0-.254,1.89,7.064,7.064,0,0,0,.867,3.391,11.733,11.733,0,0,1-4.513-9.241,11.855,11.855,0,0,1,.426-3.154c.166-.585.627-1.852,1.062-2.916a2.317,2.317,0,0,0,2.035,1.621c2.733.207,6.452-4.348,6.986-6.484.071-.283.16-.578.253-.887.611-2.028,1.432-4.753-1.12-8.913,8.03,2.2,7.206,8.217,6.6,12.645-.083.6-.158,1.161-.205,1.663l-.016.158c-.1.868-.387,3.513.947,5a3.189,3.189,0,0,0,2.489,1.017,3.753,3.753,0,0,0,3-1.49,7.359,7.359,0,0,0,1.362-3.184,7.67,7.67,0,0,1,1.189,4.547c0,5.005-4.151,9.789-9.312,11.482Zm0,0" fill="#3a0e33"/>
  </g>
</svg>
