<svg xmlns="http://www.w3.org/2000/svg" width="35" height="35" viewBox="0 0 35 35">
  <g id="Group_848" data-name="Group 848" transform="translate(-40 57.882)">
    <path id="Path_809" data-name="Path 809" d="M144.919,286.8H130a3.374,3.374,0,0,1,.545-1.894,1.652,1.652,0,0,1,1.319-.783h11.19c1.031,0,1.865,1.2,1.865,2.677Zm0,0" transform="translate(-79.96 -310.347)" fill="#cf9e76"/>
    <path id="Path_810" data-name="Path 810" d="M78.539,188.118h1.122c0,5.917-4.017,10.71-8.976,10.71H54.976a8.31,8.31,0,0,1-6.351-3.132A11.826,11.826,0,0,1,46,188.118Zm0,0" transform="translate(-5.331 -225.056)" fill="#cf9e76"/>
    <path id="Path_811" data-name="Path 811" d="M67.456,112.24a2.363,2.363,0,0,1,2.163-2.122,2.478,2.478,0,0,1,2.213,2.677c0,.034-.005.067-.005.1a1.739,1.739,0,0,1,.559-.1,2.158,2.158,0,0,1,1.892,1.312,2,2,0,0,1,1.427-.643c.028,0,.05.007.077.007a2.329,2.329,0,0,1,2.136-2.015,2.422,2.422,0,0,1,2.191,2.4,1.91,1.91,0,0,1,1.129-.388,2.062,2.062,0,0,1,1.66.924,2.062,2.062,0,0,1,1.66-.924,2.478,2.478,0,0,1,2.213,2.677,2.478,2.478,0,0,1,2.213,2.677H58v-.669a2.613,2.613,0,0,1,1.732-2.61,3.977,3.977,0,0,1-.072-.737,3.1,3.1,0,0,1,2.766-3.347,2.809,2.809,0,0,1,2.529,1.995,2.162,2.162,0,0,1,1.9-1.325,1.84,1.84,0,0,1,.6.114Zm0,0" transform="translate(-15.992 -152.972)" fill="#e6e9ed"/>
    <path id="Path_812" data-name="Path 812" d="M230.572-51.1a2.693,2.693,0,0,1,.783,1.894h-2.677a2.693,2.693,0,0,1-1.894-.783A2.693,2.693,0,0,1,226-51.882h2.677a2.693,2.693,0,0,1,1.894.783Zm0,0" transform="translate(-168.982 -5.331)" fill="#b4dd7f"/>
    <path id="Path_813" data-name="Path 813" d="M276.677,44.118h2.677a2.674,2.674,0,0,1-2.677,2.677H274a2.674,2.674,0,0,1,2.677-2.677Zm0,0" transform="translate(-212.59 -92.526)" fill="#b4dd7f"/>
    <path id="Path_814" data-name="Path 814" d="M276.677-51.882h2.677a2.693,2.693,0,0,1-.783,1.894,2.693,2.693,0,0,1-1.894.783H274a2.693,2.693,0,0,1,.783-1.894,2.693,2.693,0,0,1,1.894-.783Zm0,0" transform="translate(-212.59 -5.331)" fill="#b4dd7f"/>
    <path id="Path_815" data-name="Path 815" d="M231.355,46.8h-2.677A2.674,2.674,0,0,1,226,44.118h2.677a2.674,2.674,0,0,1,2.677,2.677Zm0,0" transform="translate(-168.982 -92.526)" fill="#b4dd7f"/>
    <path id="Path_816" data-name="Path 816" d="M231.355-1.2h-2.677a2.693,2.693,0,0,1-1.894-.783A2.693,2.693,0,0,1,226-3.882h2.677a2.693,2.693,0,0,1,1.894.783,2.693,2.693,0,0,1,.783,1.894Zm0,0" transform="translate(-168.982 -47.976)" fill="#b4dd7f"/>
    <path id="Path_817" data-name="Path 817" d="M276.677-3.882h2.677a2.693,2.693,0,0,1-.783,1.894,2.693,2.693,0,0,1-1.894.783H274a2.693,2.693,0,0,1,.783-1.894,2.693,2.693,0,0,1,1.894-.783Zm0,0" transform="translate(-212.59 -47.976)" fill="#b4dd7f"/>
    <path id="Path_818" data-name="Path 818" d="M105.08,21.624l.275,1.171h-2.677A2.674,2.674,0,0,1,100,20.118h2.677a2.693,2.693,0,0,1,1.894.783,1.122,1.122,0,0,1,.12.134c.127.187.254.382.388.589Zm0,0" transform="translate(-54.51 -70.755)" fill="#b4dd7f"/>
    <path id="Path_819" data-name="Path 819" d="M178,49.473V46.8a2.674,2.674,0,0,1,2.677-2.677V46.8A2.674,2.674,0,0,1,178,49.473Zm0,0" transform="translate(-125.182 -92.667)" fill="#b4dd7f"/>
    <path id="Path_820" data-name="Path 820" d="M134.237,68.62c.348.7.676,1.432.971,2.175h-2.53A2.674,2.674,0,0,1,130,68.118h2.677a2.676,2.676,0,0,1,1.56.5Zm0,0" transform="translate(-81.758 -114.297)" fill="#b4dd7f"/>
    <path id="Path_821" data-name="Path 821" d="M150.677-1.2a2.683,2.683,0,0,1-2.236,2.644C148.3,1.2,148.154.957,148,.73V-1.2a2.693,2.693,0,0,1,.783-1.894,2.693,2.693,0,0,1,1.894-.783Zm0,0" transform="translate(-97.969 -47.976)" fill="#b4dd7f"/>
    <path id="Path_822" data-name="Path 822" d="M120.677-51.882V-49.2a2.693,2.693,0,0,1-.783,1.894,2.693,2.693,0,0,1-1.894.783V-49.2a2.693,2.693,0,0,1,.783-1.894,2.693,2.693,0,0,1,1.894-.783Zm0,0" transform="translate(-70.755 -5.331)" fill="#b4dd7f"/>
    <path id="Path_823" data-name="Path 823" d="M74.572-27.1a2.693,2.693,0,0,1,.783,1.894H72.677a2.693,2.693,0,0,1-1.894-.783A2.693,2.693,0,0,1,70-27.882h2.677a2.693,2.693,0,0,1,1.894.783Zm0,0" transform="translate(-26.653 -26.653)" fill="#b4dd7f"/>
    <path id="Path_824" data-name="Path 824" d="M73.81-35.3a2.828,2.828,0,0,0-2.244-2.211,2.828,2.828,0,0,0-2.775-2.305,2.8,2.8,0,0,0-1.694.575,2.8,2.8,0,0,0-2.458-.465,2.8,2.8,0,0,0-2.058-1.74v-4.016h1.694A2.826,2.826,0,0,0,67.1-48.285v-.565H64.274a2.794,2.794,0,0,0-1.694.579v-1.708h1.694A2.826,2.826,0,0,0,67.1-52.8v-.565H64.274a2.794,2.794,0,0,0-1.694.579v-1.708h1.694A2.826,2.826,0,0,0,67.1-57.317v-.565H64.274a2.812,2.812,0,0,0-2.258,1.147,2.812,2.812,0,0,0-2.258-1.147H56.935v.565a2.826,2.826,0,0,0,2.823,2.823h1.694v1.708a2.794,2.794,0,0,0-1.694-.579H56.935v.565a2.826,2.826,0,0,0,2.823,2.823h1.694v1.708a2.794,2.794,0,0,0-1.694-.579H56.935v.565a2.826,2.826,0,0,0,2.823,2.823h1.694v4.016A2.814,2.814,0,0,0,59.428-39.8a2.809,2.809,0,0,0-1,.32,2.819,2.819,0,0,0-2.118-.9,2.823,2.823,0,0,0-2.435-2.229c-.075-.228-.147-.456-.229-.682a2.821,2.821,0,0,0,2.156-2.734V-48.85h-.565a2.822,2.822,0,0,0-2.816,2.756c-.336-.668-.687-1.309-1.043-1.915a2.8,2.8,0,0,0,1.6-2.535v-2.823h-.565a2.818,2.818,0,0,0-2.8,2.622c-.494-.7-.929-1.278-1.255-1.691a2.823,2.823,0,0,0,1.8-2.624v-2.823H49.6a2.826,2.826,0,0,0-2.823,2.823v.015a2.794,2.794,0,0,0-1.694-.579H42.258v.565a2.826,2.826,0,0,0,2.823,2.823h1.993c.176.215.484.6.883,1.135-.018,0-.035-.006-.054-.006H45.081v.565A2.826,2.826,0,0,0,47.9-47.721h2.328q.331.551.657,1.142c-.055,0-.108-.013-.162-.013H47.9v.565A2.826,2.826,0,0,0,50.726-43.2h1.745c.087.229.17.459.249.691a2.842,2.842,0,0,0-1.763,1.579,2.719,2.719,0,0,0-2.1.7,3.387,3.387,0,0,0-2.647-1.279,3.39,3.39,0,0,0-3.387,3.387c0,.078,0,.156.009.236a2.842,2.842,0,0,0-1.7,2.587H40v.565A9.608,9.608,0,0,0,48.534-25.2a2.794,2.794,0,0,0-.631,1.756v.565H67.1v-.565a2.794,2.794,0,0,0-.631-1.756A9.608,9.608,0,0,0,75-34.737V-35.3ZM59.758-55.624a1.7,1.7,0,0,1-1.6-1.129h1.6a1.7,1.7,0,0,1,1.6,1.129Zm4.516-1.129h1.6a1.7,1.7,0,0,1-1.6,1.129h-1.6a1.7,1.7,0,0,1,1.6-1.129Zm-4.516,5.645a1.7,1.7,0,0,1-1.6-1.129h1.6a1.7,1.7,0,0,1,1.6,1.129Zm4.516-1.129h1.6a1.7,1.7,0,0,1-1.6,1.129h-1.6a1.7,1.7,0,0,1,1.6-1.129Zm-4.516,5.645a1.7,1.7,0,0,1-1.6-1.129h1.6a1.7,1.7,0,0,1,1.6,1.129Zm4.516-1.129h1.6a1.7,1.7,0,0,1-1.6,1.129h-1.6a1.7,1.7,0,0,1,1.6-1.129ZM53.548-46.027a1.7,1.7,0,0,1,1.129-1.6v1.6a1.7,1.7,0,0,1-1.129,1.6Zm-8.468-7.339a1.7,1.7,0,0,1-1.6-1.129h1.6a1.7,1.7,0,0,1,1.6,1.129Zm6.774,1.226v1.6A1.683,1.683,0,0,1,50.8-48.976l-.07-.108v-1.459a1.7,1.7,0,0,1,1.129-1.6ZM47.9-55.059a1.7,1.7,0,0,1,1.129-1.6v1.6a1.7,1.7,0,0,1-1.129,1.6Zm1.6,6.21H47.9a1.7,1.7,0,0,1-1.6-1.129h1.6a1.684,1.684,0,0,1,1.229.536c.1.153.207.309.313.472.018.04.039.079.054.121Zm-.371,3.387h1.6a1.676,1.676,0,0,1,.867.244q.213.437.411.885H50.726a1.7,1.7,0,0,1-1.6-1.129Zm-5.545,8.511.552-.123-.124-.552a2.233,2.233,0,0,1-.06-.5,2.261,2.261,0,0,1,2.258-2.258,2.259,2.259,0,0,1,2.061,1.346l.445,1,.557-.945a1.676,1.676,0,0,1,1.452-.839,1.681,1.681,0,0,1,.46.074l.582.165.125-.591a1.7,1.7,0,0,1,1.655-1.341,1.69,1.69,0,0,1,1.695,1.659l-.039.858.738-.194a1.657,1.657,0,0,1,.429-.064,1.676,1.676,0,0,1,1.448.833l.342.573.509-.431a1.663,1.663,0,0,1,1.049-.412l.552.024.112-.439a1.688,1.688,0,0,1,1.633-1.276,1.685,1.685,0,0,1,1.673,1.515l.094.878.757-.454a1.67,1.67,0,0,1,2.132.34l.425.485.425-.486a1.671,1.671,0,0,1,1.269-.585,1.7,1.7,0,0,1,1.694,1.694v.565h.565a1.691,1.691,0,0,1,1.59,1.129H42.258a1.7,1.7,0,0,1,1.326-1.65Zm5.545,12.941a1.7,1.7,0,0,1,1.6-1.129H64.274a1.7,1.7,0,0,1,1.6,1.129ZM65.4-26.269H49.6a8.479,8.479,0,0,1-8.449-7.9h32.7a8.479,8.479,0,0,1-8.449,7.9Zm0,0" transform="translate(0 0)"/>
    <path id="Path_825" data-name="Path 825" d="M307.248,216.17l-1.215-.56a7.394,7.394,0,0,1-6.694,4.3H298v1.339h1.339a8.733,8.733,0,0,0,7.909-5.075Zm0,0" transform="translate(-235.718 -249.481)"/>
    <rect id="Rectangle_218" data-name="Rectangle 218" width="1" height="1" transform="translate(47 -37.314)"/>
    <rect id="Rectangle_219" data-name="Rectangle 219" width="1" height="1" transform="translate(52.593 -39.832)"/>
    <rect id="Rectangle_220" data-name="Rectangle 220" width="2" height="1" transform="translate(54.203 -37.314)"/>
    <rect id="Rectangle_221" data-name="Rectangle 221" width="1" height="2" transform="translate(60.148 -39.084)"/>
    <rect id="Rectangle_222" data-name="Rectangle 222" width="1" height="1" transform="translate(63.506 -37.314)"/>
    <rect id="Rectangle_223" data-name="Rectangle 223" width="2" height="1" transform="translate(67.57 -37.314)"/>
    <rect id="Rectangle_224" data-name="Rectangle 224" width="2" height="1" transform="translate(47.519 -37.314)"/>
    <rect id="Rectangle_225" data-name="Rectangle 225" width="1" height="2" transform="translate(62.667 -29.882)"/>
  </g>
</svg>
