<svg xmlns="http://www.w3.org/2000/svg" width="31" height="30.904" viewBox="0 0 31 30.904">
  <g id="Group_566" data-name="Group 566" transform="translate(-435 -196)">
    <path id="Path_424" data-name="Path 424" d="M471.1,217.716c0,4.218-2.5,8.948-6.738,9.951-3.412.808-4.439,4.34-8.307,4.34-4.781,0-7.013-3.668-9.769-6.97-2.034-2.437-5.277-1.707-5.277-7.32,0-5.8,4.891-6.749,7.142-8.8,2.641-2.4,1.172-6.905,7.9-6.905,5.98,0,6.973,3.338,9.732,6.428,2.225,2.491,5.313,2.668,5.313,9.276Zm0,0" transform="translate(-5.553 -5.557)" fill="#efefef"/>
    <path id="Path_425" data-name="Path 425" d="M626.011,208.44c-2.76-3.09-3.753-6.428-9.732-6.428a11.481,11.481,0,0,0-1.7.116c4.423.613,5.48,3.561,7.937,6.312,2.225,2.491,5.313,2.668,5.313,9.276,0,4.218-2.5,8.948-6.738,9.951-2.9.686-4.077,3.338-6.737,4.12a8.258,8.258,0,0,0,1.926.219c3.868,0,4.9-3.532,8.307-4.34,4.236-1,6.738-5.733,6.738-9.951,0-6.608-3.087-6.785-5.313-9.276Zm0,0" transform="translate(-165.778 -5.557)" fill="#e2e2e2"/>
    <path id="Path_426" data-name="Path 426" d="M611.982,339.275a5.821,5.821,0,1,1-5.821-5.821,5.821,5.821,0,0,1,5.821,5.821Zm0,0" transform="translate(-152.826 -127.051)" fill="#fccf3f"/>
    <path id="Path_427" data-name="Path 427" d="M617.013,342.266a5.822,5.822,0,0,1-7.861,7.861,5.821,5.821,0,1,0,7.861-7.861Zm0,0" transform="translate(-160.972 -135.196)" fill="#efa335"/>
    <path id="Path_428" data-name="Path 428" d="M623.1,364.8a4.2,4.2,0,0,0-1.665,3.362.455.455,0,1,0,.909,0,3.294,3.294,0,0,1,1.308-2.639.455.455,0,0,0-.552-.723Zm0,0" transform="translate(-172.32 -155.943)" fill="#272727"/>
    <path id="Path_429" data-name="Path 429" d="M551.8,292.4c-.315-.246-.64-.5-.95-.769a.455.455,0,1,0-.6.686c.328.285.663.547.987.8,1.8,1.4,3.351,2.615,3.351,7.332a11.445,11.445,0,0,1-1.711,5.939,7.748,7.748,0,0,1-4.677,3.57,8.845,8.845,0,0,0-3.784,2.238c-1.253,1.074-2.437,2.09-4.418,2.09-3.165,0-5.166-1.639-7.368-4.283a.455.455,0,0,0-.7.582c1.857,2.23,4.166,4.61,8.067,4.61,2.318,0,3.687-1.174,5.01-2.309a8.014,8.014,0,0,1,3.4-2.043c4.6-1.09,7.088-6.169,7.088-10.394,0-5.161-1.881-6.629-3.7-8.049Zm0,0" transform="translate(-89.495 -88.29)" fill="#272727"/>
    <path id="Path_430" data-name="Path 430" d="M441.081,219.188a8.069,8.069,0,0,0-2.295-1.778c-1.543-.909-2.876-1.693-2.876-5.251a6.546,6.546,0,0,1,1.531-4.466,12.889,12.889,0,0,1,3.264-2.482,14.079,14.079,0,0,0,2.2-1.514,7.775,7.775,0,0,0,1.832-3c.84-2.032,1.566-3.787,5.765-3.787,4.522,0,5.982,1.914,7.83,4.337.286.375.582.763.9,1.152a.455.455,0,1,0,.707-.572c-.306-.378-.6-.761-.88-1.131-1.842-2.415-3.581-4.7-8.553-4.7a7.039,7.039,0,0,0-4.761,1.375,7.371,7.371,0,0,0-1.845,2.974,6.965,6.965,0,0,1-1.6,2.674,13.479,13.479,0,0,1-2.056,1.408c-2.332,1.407-5.235,3.157-5.235,7.727,0,4.079,1.69,5.073,3.325,6.035a7.248,7.248,0,0,1,2.058,1.577c.206.247.425.515.709.867a.455.455,0,0,0,.708-.571c-.288-.357-.509-.628-.719-.88Zm0,0" fill="#272727"/>
    <path id="Path_431" data-name="Path 431" d="M600.608,327.442a6.276,6.276,0,1,0,6.276,6.276,6.283,6.283,0,0,0-6.276-6.276Zm0,11.642a5.366,5.366,0,1,1,5.366-5.366,5.372,5.372,0,0,1-5.366,5.366Zm0,0" transform="translate(-147.273 -121.494)" fill="#272727"/>
  </g>
</svg>
