<svg id="Group_673" data-name="Group 673" xmlns="http://www.w3.org/2000/svg" width="35.411" height="22.409" viewBox="0 0 35.411 22.409">
  <path id="Path_561" data-name="Path 561" d="M348.92,171.386c-4.6,1.6-7.768,4.722-7.768,6.646,0,1.942,3.23,5.1,7.9,6.69a8.486,8.486,0,0,0-.128-13.336Z" transform="translate(-340.405 -166.034)" fill="#97c2f7"/>
  <path id="Path_562" data-name="Path 562" d="M115.241,157.6a13.107,13.107,0,0,0-4.927-1.024,17.62,17.62,0,0,0-2.654.2,18.476,18.476,0,0,0-3.3.822,8.486,8.486,0,0,1,.128,13.336,18.106,18.106,0,0,0,5.827.98,11.857,11.857,0,0,0,2.036-.18,16.055,16.055,0,0,0,5.423-2.117,26.132,26.132,0,0,0,6.264-5.373A24.825,24.825,0,0,0,115.241,157.6Z" transform="translate(-95.844 -152.249)" fill="#e6f6ff"/>
  <g id="Group_646" data-name="Group 646" transform="translate(11.816 0.747)">
    <path id="Path_563" data-name="Path 563" d="M237.591,104.827a10.814,10.814,0,0,0-6.043,3.751,17.619,17.619,0,0,1,2.654-.2,13.106,13.106,0,0,1,4.927,1.024v-3.343A1.258,1.258,0,0,0,237.591,104.827Z" transform="translate(-231.548 -104.795)" fill="#d2e3f7"/>
    <path id="Path_564" data-name="Path 564" d="M194.931,347.279a10.449,10.449,0,0,0,3.8,2.119,1.261,1.261,0,0,0,1.623-1.207v-3.029A16.055,16.055,0,0,1,194.931,347.279Z" transform="translate(-190.241 -328.538)" fill="#d2e3f7"/>
    <path id="Path_565" data-name="Path 565" d="M12.492,176.538a7.1,7.1,0,0,0-1.688,4.718l.025,0h0c.037,0,.11,0,.211,0h.01a6.78,6.78,0,0,0,4.532-1.627,7.224,7.224,0,0,0,1.688-4.781A7.223,7.223,0,0,0,12.492,176.538Z" transform="translate(5.572 -170.005)" fill="#d2e3f7"/>
    <path id="Path_566" data-name="Path 566" d="M10.8,267.491a7.222,7.222,0,0,0,1.687,4.781,7.222,7.222,0,0,0,4.782,1.688,7.227,7.227,0,0,0-1.688-4.782,6.99,6.99,0,0,0-4.532-1.685h-.01c-.1,0-.174,0-.211,0H10.8Z" transform="translate(5.573 -256.238)" fill="#d2e3f7"/>
  </g>
  <path id="Path_567" data-name="Path 567" d="M419.1,256.085a.747.747,0,0,1-.747-.747V255a.747.747,0,1,1,1.494,0v.335A.747.747,0,0,1,419.1,256.085Z" transform="translate(-413.367 -243.172)"/>
  <path id="Path_568" data-name="Path 568" d="M297.854,193.419a.747.747,0,0,1-1.053-.09c-.049-.058-.1-.115-.151-.169a.747.747,0,0,1,1.083-1.029c.072.075.142.155.21.235A.747.747,0,0,1,297.854,193.419Z" transform="translate(-283.211 -185.127)"/>
  <path id="Path_569" data-name="Path 569" d="M276.3,227.321a.747.747,0,0,1-.564-1.237,6.123,6.123,0,0,0,1.307-3.979,7.048,7.048,0,0,0-.446-2.505.747.747,0,0,1,1.395-.536,8.559,8.559,0,0,1,.545,3.041,7.625,7.625,0,0,1-1.673,4.959A.745.745,0,0,1,276.3,227.321Z" transform="translate(-262.185 -209.968)"/>
  <path id="Path_570" data-name="Path 570" d="M35.406,112.488a.747.747,0,0,1-.722.722l-.117,0a7.825,7.825,0,0,1-5.217-1.907,6.82,6.82,0,0,1-1.739-3.55,26.974,26.974,0,0,1-4.937,4.031V114.4a2.011,2.011,0,0,1-2,2.009,2.029,2.029,0,0,1-.582-.086,11.332,11.332,0,0,1-3.809-2.044,12.54,12.54,0,0,1-1.813.135A18.781,18.781,0,0,1,8.4,113.39h0c-4.631-1.578-8.4-4.9-8.4-7.4,0-1.192.856-2.613,2.41-4a17.733,17.733,0,0,1,5.848-3.347l0,0,.007,0a19.277,19.277,0,0,1,3.139-.806,11.715,11.715,0,0,1,6.282-3.789A2.005,2.005,0,0,1,20.14,96v2.848a24.817,24.817,0,0,1,7.475,5.385,6.774,6.774,0,0,1,1.734-3.49,7.929,7.929,0,0,1,5.335-1.905.747.747,0,0,1,.722.722A7.93,7.93,0,0,1,33.5,104.9a5.648,5.648,0,0,1-1.638,1.123,5.8,5.8,0,0,1,1.638,1.133A7.932,7.932,0,0,1,35.406,112.488Zm-14.889,2.4a.511.511,0,0,0,.456-.08.5.5,0,0,0,.207-.411v-1.758a17.067,17.067,0,0,1-2.948,1.2A9.412,9.412,0,0,0,20.516,114.887ZM1.491,105.993c0,1.405,2.65,4.251,6.993,5.842a8.018,8.018,0,0,0,2.582-5.675,8.176,8.176,0,0,0-2.689-5.97C4.1,101.79,1.491,104.611,1.491,105.993ZM18.451,95.6a.5.5,0,0,0-.426-.1,10.442,10.442,0,0,0-4.237,2.087q.34-.013.678-.013a13.371,13.371,0,0,1,4.18.7V96A.513.513,0,0,0,18.451,95.6Zm.663,4.44-.014-.006a12.359,12.359,0,0,0-4.632-.963,16.925,16.925,0,0,0-2.541.194A17.571,17.571,0,0,0,10,99.671a9.762,9.762,0,0,1,2.563,6.49,9.6,9.6,0,0,1-2.473,6.179,17.114,17.114,0,0,0,4.379.576,11.162,11.162,0,0,0,1.908-.169,15.253,15.253,0,0,0,5.168-2.022,25.788,25.788,0,0,0,5.663-4.732A23.783,23.783,0,0,0,19.113,100.039Zm14.759.333a5.826,5.826,0,0,0-3.467,1.431,5.787,5.787,0,0,0-1.429,3.42,5.668,5.668,0,0,0,3.467-1.382A5.858,5.858,0,0,0,33.872,100.372Zm-4.9,6.408a5.826,5.826,0,0,0,1.431,3.467,5.854,5.854,0,0,0,3.467,1.429,5.86,5.86,0,0,0-1.429-3.467A5.861,5.861,0,0,0,28.975,106.78Z" transform="translate(0.003 -93.995)"/>
</svg>
