<svg xmlns="http://www.w3.org/2000/svg" xmlns:xlink="http://www.w3.org/1999/xlink" width="37" height="37" viewBox="0 0 37 37">
  <defs>
    <clipPath id="clip-path">
      <rect id="Rectangle_182" data-name="Rectangle 182" width="37" height="37" transform="translate(0 -0.305)" fill="none"/>
    </clipPath>
  </defs>
  <g id="Group_797" data-name="Group 797" transform="translate(-457 -220.695)">
    <path id="Path_730" data-name="Path 730" d="M560.359,264.673v3.68a1.84,1.84,0,0,1-1.84,1.84h-3.68a1.84,1.84,0,1,1,0-3.68,2.889,2.889,0,1,1,3.605-4.195,1.8,1.8,0,0,1,.074.515,1.84,1.84,0,0,1,1.84,1.84Zm0,0" transform="translate(-86.187 -35.905)" fill="#349b66"/>
    <rect id="Rectangle_177" data-name="Rectangle 177" width="26" height="22" transform="translate(468 234.695)" fill="#8ccee9"/>
    <rect id="Rectangle_178" data-name="Rectangle 178" width="6" height="22" transform="translate(488 234.695)" fill="#37a0c5"/>
    <path id="Path_731" data-name="Path 731" d="M729.586,232.352v7.42H721v-7.42a5.492,5.492,0,0,1,3.326-5.045,2.452,2.452,0,0,1,1.933,0,5.489,5.489,0,0,1,3.326,5.045Zm0,0" transform="translate(-237.015 -5.484)" fill="#af7d4d"/>
    <path id="Path_732" data-name="Path 732" d="M724.68,256.227a1.226,1.226,0,0,1-1.227,1.227H721v-.061a5.469,5.469,0,0,1,.55-2.392h1.9a1.227,1.227,0,0,1,1.227,1.227Zm0,0" transform="translate(-237.015 -30.525)" fill="#f0de9c"/>
    <path id="Path_733" data-name="Path 733" d="M721,303h2.453a1.227,1.227,0,0,1,0,2.453H721Zm0,0" transform="translate(-237.015 -73.618)" fill="#f0de9c"/>
    <path id="Path_734" data-name="Path 734" d="M602.359,268.359a1.84,1.84,0,0,1-1.84,1.84h-3.68a1.84,1.84,0,1,1,0-3.68,2.909,2.909,0,1,1,5.52-1.84Zm0,0" transform="translate(-123.894 -35.911)" fill="#349b66"/>
    <path id="Path_735" data-name="Path 735" d="M604.813,402.68v12.266a1.84,1.84,0,0,1-1.84,1.84H596.84a1.84,1.84,0,0,1-1.84-1.84V402.68a1.84,1.84,0,0,1,1.84-1.84h1.227V399h3.68v1.84h1.227a1.84,1.84,0,0,1,1.84,1.84Zm0,0" transform="translate(-123.894 -159.806)" fill="#e64042"/>
    <rect id="Rectangle_179" data-name="Rectangle 179" width="6" height="2" transform="translate(473 236.695)" fill="#f0de9c"/>
    <rect id="Rectangle_180" data-name="Rectangle 180" width="10" height="9" transform="translate(471 244.695)" fill="#f0de9c"/>
    <path id="Path_736" data-name="Path 736" d="M534.039,470.52a5.52,5.52,0,1,1-5.52-5.52,5.52,5.52,0,0,1,5.52,5.52Zm0,0" transform="translate(-59.254 -219.059)" fill="#ea8804"/>
    <path id="Path_737" data-name="Path 737" d="M545.293,409.293h-1.552a2.453,2.453,0,0,1-2.429-2.106L541,405l2.187.312a2.453,2.453,0,0,1,2.106,2.429Zm0,0" transform="translate(-75.414 -165.192)" fill="#349b66"/>
    <path id="Path_738" data-name="Path 738" d="M474.039,493.293a1.226,1.226,0,0,1-1.227,1.227l-.088.219a4.529,4.529,0,0,1-8.41,0l-.088-.219a1.227,1.227,0,1,1,0-2.453l.088-.219a4.529,4.529,0,0,1,8.41,0l.088.219a1.226,1.226,0,0,1,1.227,1.227Zm0,0" transform="translate(-5.387 -240.606)" fill="#a4c52a"/>
    <path id="Path_739" data-name="Path 739" d="M643.133,297h-3.68a7.4,7.4,0,0,1-2.168,5.235l-.285.285h8.586l-.285-.285A7.4,7.4,0,0,1,643.133,297Zm0,0" transform="translate(-161.601 -68.232)" fill="#f0c033"/>
    <g id="Group_794" data-name="Group 794" transform="translate(457 221)">
      <g id="Group_793" data-name="Group 793" transform="translate(0 0)" clip-path="url(#clip-path)">
        <rect id="Rectangle_181" data-name="Rectangle 181" width="5" height="4" transform="translate(20 3.695)" fill="#f0de9c"/>
        <path id="Path_740" data-name="Path 740" d="M574.6,233.787h-.613V226.98a6.1,6.1,0,0,0-3.7-5.608,3.081,3.081,0,0,0-2.416,0,6.1,6.1,0,0,0-3.7,5.608v5.8a6.712,6.712,0,0,1-1.2-3.283h0a.613.613,0,0,0,.586-.612V225.2a.613.613,0,0,0-.613-.613h-4.906a.614.614,0,0,0-.613.613v.218c-.034-.039-.069-.077-.106-.113a2.452,2.452,0,0,0-3.88.547,2.479,2.479,0,0,0-.413-.547,3.8,3.8,0,0,0-5.195,5.415,2.45,2.45,0,0,0,.394,3.963v3.4h1.227v-3.066h18.4v21.465h-4.906v1.227H574.6a.613.613,0,0,0,.613-.613V234.4a.613.613,0,0,0-.613-.613Zm-9.2-3.68h1.84a.613.613,0,1,1,0,1.227H565.4Zm.335-4.906h1.5a.613.613,0,1,1,0,1.227h-1.809a4.9,4.9,0,0,1,.3-1.227Zm-7.081.613h3.68v2.453h-3.68Zm-9.2,7.973a1.227,1.227,0,0,1,0-2.453.613.613,0,0,0,0-1.227,1.227,1.227,0,0,1,0-2.453.614.614,0,0,0,.613-.613,1.227,1.227,0,0,1,2.424-.266,2.45,2.45,0,0,0-.365,3.946,2.448,2.448,0,0,0-.5,3.066Zm4.293,0a1.227,1.227,0,0,1,0-2.453.613.613,0,1,0,0-1.227,1.227,1.227,0,0,1,0-2.453.614.614,0,0,0,.613-.613,1.227,1.227,0,1,1,2.453,0,.614.614,0,0,0,.613.613v1.227a.613.613,0,0,0,.586.612h0a6.726,6.726,0,0,1-1.812,4.035V227.04h-1.227v6.746Zm3.844,0a7.922,7.922,0,0,0,1.652-4.293h2.5a7.922,7.922,0,0,0,1.652,4.293Zm7.809,0V232.56h1.84a1.84,1.84,0,1,0,0-3.68H565.4v-1.227h1.84a1.84,1.84,0,1,0,0-3.68h-.8a4.866,4.866,0,0,1,1.919-1.475,1.844,1.844,0,0,1,1.449,0,4.869,4.869,0,0,1,2.955,4.481v6.807Zm8.586,22.692h-4.906V235.013h4.906Zm0,0" transform="translate(-537.799 -221.112)"/>
      </g>
    </g>
    <path id="Path_741" data-name="Path 741" d="M469.266,487.906a1.843,1.843,0,0,0-1.405-1.788,5.143,5.143,0,0,0-9.455,0,1.84,1.84,0,0,0,0,3.576,5.143,5.143,0,0,0,9.455,0,1.843,1.843,0,0,0,1.405-1.788Zm-1.84.613a.613.613,0,0,0-.569.386l-.088.219a3.916,3.916,0,0,1-7.272,0l-.088-.219a.613.613,0,0,0-.569-.386.613.613,0,1,1,0-1.227.613.613,0,0,0,.569-.386l.088-.219a3.916,3.916,0,0,1,7.272,0l.088.219a.613.613,0,0,0,.569.386.613.613,0,0,1,0,1.227Zm0,0" transform="translate(0 -235.22)"/>
    <rect id="Rectangle_183" data-name="Rectangle 183" width="1" height="1" transform="translate(461 250.695)"/>
    <rect id="Rectangle_184" data-name="Rectangle 184" width="1" height="1" transform="translate(462 253.695)"/>
    <g id="Group_796" data-name="Group 796" transform="translate(457 221)">
      <g id="Group_795" data-name="Group 795" transform="translate(0 0)" clip-path="url(#clip-path)">
        <rect id="Rectangle_185" data-name="Rectangle 185" width="2" height="2" transform="translate(7 30.695)"/>
        <path id="Path_742" data-name="Path 742" d="M541.594,405.58l1.314-2.627-1.1-.549-.845,1.692-.446-.445v-1.3a3.081,3.081,0,0,0-2.633-3.035L535.7,399a.613.613,0,0,0-.694.694l.313,2.187a3.081,3.081,0,0,0,3.035,2.632h1.3l.706.706a6.14,6.14,0,0,0-5.154,1.469l.819.914a4.9,4.9,0,0,1,3.27-1.249,4.74,4.74,0,0,1,.527.028l-.7,1.39a.6.6,0,0,0-.17-.127l-1.227-.613-.549,1.1,1.062.53a1.99,1.99,0,0,0,2.249.818l.982.492.549-1.1-1.227-.613a.617.617,0,0,0-.538-.005l.788-1.576a4.907,4.907,0,0,1-3.386,9.21l-.41,1.157a6.134,6.134,0,0,0,4.346-11.468Zm-2.3-3.155-1.2-1.2-.867.867,1.2,1.2h-.072a1.849,1.849,0,0,1-1.821-1.58l-.2-1.377,1.377.2a1.848,1.848,0,0,1,1.58,1.821Zm0,0" transform="translate(-527.026 -380.805)"/>
      </g>
    </g>
    <path id="Path_743" data-name="Path 743" d="M603.074,373.293h-.613v-.613h.613a.613.613,0,0,0,.613-.613v-2.453a.613.613,0,0,0-.613-.613h-6.133a.613.613,0,0,0-.613.613v2.453a.613.613,0,0,0,.613.613h.613v.613h-.613a2.455,2.455,0,0,0-1.828.818l.914.817a1.229,1.229,0,0,1,.915-.408h1.227a.613.613,0,0,0,.613-.613V372.68h2.453v.613h-1.227v1.227h3.066a1.228,1.228,0,0,1,1.227,1.227v1.227h-6.746V378.2H604.3v7.36h-3.68v1.227h3.68v1.227a1.228,1.228,0,0,1-1.227,1.227h-4.906v1.227h4.906a2.456,2.456,0,0,0,2.453-2.453V375.746a2.456,2.456,0,0,0-2.453-2.453Zm-5.52-1.84v-1.227h4.906v1.227Zm0,0" transform="translate(-123.996 -132.872)"/>
  </g>
</svg>
