<svg xmlns="http://www.w3.org/2000/svg" width="28.328" height="37" viewBox="0 0 28.328 37">
  <g id="Group_799" data-name="Group 799" transform="translate(-493 -208)">
    <path id="Path_744" data-name="Path 744" d="M503.047,214v30.063h-1.156A2.892,2.892,0,0,0,499,246.953V216.891A2.892,2.892,0,0,1,501.891,214Zm0,0" transform="translate(-5.422 -5.422)" fill="#656d78"/>
    <rect id="Rectangle_187" data-name="Rectangle 187" width="2.313" height="5.781" transform="translate(518.438 238.641)" fill="#da4453"/>
    <path id="Path_745" data-name="Path 745" d="M523.859,528.891v2.891H501.891a2.891,2.891,0,0,1,0-5.781h21.969Zm0,0" transform="translate(-5.422 -287.359)" fill="#e6e9ed"/>
    <rect id="Rectangle_188" data-name="Rectangle 188" width="23.125" height="30.063" transform="translate(497.625 208.578)" fill="#ed5565"/>
    <rect id="Rectangle_189" data-name="Rectangle 189" width="9.25" height="1.734" transform="translate(504.563 224.766)" fill="#ccd1d9"/>
    <path id="Path_746" data-name="Path 746" d="M593.522,263.734h1.619a2.891,2.891,0,0,1,0,5.781v4.047h-9.25v-4.047a2.891,2.891,0,0,1,0-5.781h1.624a3.468,3.468,0,0,1,6.007,0Zm0,0" transform="translate(-81.328 -48.797)" fill="#e6e9ed"/>
    <path id="Path_747" data-name="Path 747" d="M496.469,526.938a3.469,3.469,0,0,1,0-6.937.578.578,0,0,1,0,1.156,2.313,2.313,0,0,0,0,4.625.578.578,0,0,1,0,1.156Zm0,0" transform="translate(0 -281.938)"/>
    <path id="Path_748" data-name="Path 748" d="M547.859,521.156H523.578a.578.578,0,0,1,0-1.156h24.281a.578.578,0,0,1,0,1.156Zm0,0" transform="translate(-27.109 -281.938)"/>
    <path id="Path_749" data-name="Path 749" d="M547.859,581.156H523.578a.578.578,0,0,1,0-1.156h24.281a.578.578,0,0,1,0,1.156Zm0,0" transform="translate(-27.109 -336.156)"/>
    <path id="Path_750" data-name="Path 750" d="M493.578,212.047a.578.578,0,0,1-.578-.578A3.472,3.472,0,0,1,496.469,208a.578.578,0,0,1,0,1.156,2.315,2.315,0,0,0-2.312,2.313.578.578,0,0,1-.578.578Zm0,0"/>
    <path id="Path_751" data-name="Path 751" d="M493.578,269.219a.578.578,0,0,1-.578-.578V238.578a.578.578,0,0,1,1.156,0v30.063a.578.578,0,0,1-.578.578Zm0,0" transform="translate(0 -27.109)"/>
    <path id="Path_752" data-name="Path 752" d="M547.859,209.156H523.578a.578.578,0,0,1,0-1.156h24.281a.578.578,0,0,1,0,1.156Zm0,0" transform="translate(-27.109)"/>
    <path id="Path_753" data-name="Path 753" d="M775.578,239.219a.578.578,0,0,1-.578-.578V208.578a.578.578,0,0,1,1.156,0v30.063a.578.578,0,0,1-.578.578Zm0,0" transform="translate(-254.828)"/>
    <path id="Path_754" data-name="Path 754" d="M775.578,526.938a.578.578,0,0,1-.578-.578v-5.781a.578.578,0,0,1,1.156,0v5.781a.578.578,0,0,1-.578.578Zm0,0" transform="translate(-254.828 -281.938)"/>
    <path id="Path_755" data-name="Path 755" d="M535.578,239.219a.578.578,0,0,1-.578-.578V208.578a.578.578,0,0,1,1.156,0v30.063a.578.578,0,0,1-.578.578Zm0,0" transform="translate(-37.953)"/>
    <path id="Path_756" data-name="Path 756" d="M545.547,551.168H523.578a.578.578,0,0,1,0-1.156h21.969a.578.578,0,0,1,0,1.156Zm0,0" transform="translate(-27.109 -309.058)"/>
    <path id="Path_757" data-name="Path 757" d="M751.578,526.938a.578.578,0,0,1-.578-.578v-5.781a.578.578,0,0,1,1.156,0v5.781a.578.578,0,0,1-.578.578Zm0,0" transform="translate(-233.141 -281.938)"/>
    <path id="Path_758" data-name="Path 758" d="M580.489,280.93a3.469,3.469,0,0,1,0-6.937.578.578,0,0,1,0,1.156,2.313,2.313,0,0,0,0,4.625.578.578,0,0,1,0,1.156Zm0,0" transform="translate(-75.924 -59.633)"/>
    <path id="Path_759" data-name="Path 759" d="M626.528,260.617a.578.578,0,0,1-.578-.578,2.891,2.891,0,0,0-5.781,0,.578.578,0,1,1-1.156,0,4.047,4.047,0,0,1,8.094,0,.578.578,0,0,1-.578.578Zm0,0" transform="translate(-113.87 -43.368)"/>
    <path id="Path_760" data-name="Path 760" d="M703.586,280.93a.578.578,0,0,1,0-1.156,2.312,2.312,0,0,0,0-4.625.578.578,0,0,1,0-1.156,3.469,3.469,0,0,1,0,6.938Zm0,0" transform="translate(-189.773 -59.633)"/>
    <path id="Path_761" data-name="Path 761" d="M609.212,275.148H607.59a.578.578,0,0,1,0-1.156h1.622a.578.578,0,0,1,0,1.156Zm0,0" transform="translate(-103.026 -59.633)"/>
    <path id="Path_762" data-name="Path 762" d="M688.383,275.148h-1.621a.578.578,0,0,1,0-1.156h1.621a.578.578,0,0,1,0,1.156Zm0,0" transform="translate(-174.57 -59.633)"/>
    <path id="Path_763" data-name="Path 763" d="M607.59,340.918a.578.578,0,0,1-.578-.578v-5.782a.578.578,0,0,1,1.156,0v5.782a.578.578,0,0,1-.578.578Zm0,0" transform="translate(-103.026 -113.841)"/>
    <path id="Path_764" data-name="Path 764" d="M616.841,395.144H607.59a.578.578,0,0,1,0-1.156h9.251a.578.578,0,0,1,0,1.156Zm0,0" transform="translate(-103.026 -168.067)"/>
    <path id="Path_765" data-name="Path 765" d="M616.841,377.156H607.59a.578.578,0,0,1,0-1.156h9.251a.578.578,0,0,1,0,1.156Zm0,0" transform="translate(-103.026 -151.813)"/>
    <path id="Path_766" data-name="Path 766" d="M703.6,340.918a.577.577,0,0,1-.578-.578v-5.782a.578.578,0,0,1,1.156,0v5.782a.578.578,0,0,1-.578.578Zm0,0" transform="translate(-189.784 -113.841)"/>
    <path id="Path_767" data-name="Path 767" d="M602.324,431.148H589.609a.578.578,0,0,1,0-1.156h12.715a.578.578,0,0,1,0,1.156Zm0,0" transform="translate(-86.778 -200.602)"/>
    <path id="Path_768" data-name="Path 768" d="M602.324,449.148H589.609a.578.578,0,0,1,0-1.156h12.715a.578.578,0,0,1,0,1.156Zm0,0" transform="translate(-86.778 -216.868)"/>
    <path id="Path_769" data-name="Path 769" d="M626.536,467.3H619.6a.578.578,0,0,1,0-1.156h6.935a.578.578,0,0,1,0,1.156Zm0,0" transform="translate(-113.88 -233.274)"/>
  </g>
</svg>
