<svg xmlns="http://www.w3.org/2000/svg" width="28.578" height="28.578" viewBox="0 0 28.578 28.578">
  <g id="Group_810" data-name="Group 810" transform="translate(-299.496 464.308)">
    <path id="Path_770" data-name="Path 770" d="M307.176-55.257h3.4l-5.37-3.442L300.8-61.278A6.4,6.4,0,0,0,307.176-55.257Z" transform="translate(-1.227 -380.534)" fill="#fde494"/>
    <path id="Path_771" data-name="Path 771" d="M319.28-122.188l-3.843-.983h-8.448a3.446,3.446,0,0,1-3.442-3.442V-128.5l-1.475-1.583-1.475.261v3.209c0,.125,0,.248.011.371l9.784,6.021h11.628Z" transform="translate(-1.04 -315.57)" fill="#fea150"/>
    <path id="Path_772" data-name="Path 772" d="M576.225-25.114a3.431,3.431,0,0,1-2.474,1.052h-7.285l6.583,2.95h.7a6.393,6.393,0,0,0,5.438-3.037l-1.505-.9Z" transform="translate(-252.069 -414.68)" fill="#ff5d4a"/>
    <path id="Path_773" data-name="Path 773" d="M742.271-145.561v3.967a3.43,3.43,0,0,1-.968,2.389l2.964.965a6.353,6.353,0,0,0,.953-3.355v-3.5l-1.526-.857Z" transform="translate(-417.147 -300.589)" fill="#e45261"/>
    <path id="Path_774" data-name="Path 774" d="M761.595-321.766l-1.571-.374-1.379.826v9.4l2.95.469Z" transform="translate(-433.521 -134.232)" fill="#ff4d95"/>
    <path id="Path_775" data-name="Path 775" d="M620.472-456.778a6.4,6.4,0,0,0-5.466-6.324l-3.867,1.609-1.96,1.274h4.9a3.446,3.446,0,0,1,3.442,3.442v2.369l2.95-.452Z" transform="translate(-292.398 -1.139)" fill="#cb319c"/>
    <path id="Path_776" data-name="Path 776" d="M506.957-464.308l-3.658,1.372-2.885,1.578h6.071l5.827-2.883a6.411,6.411,0,0,0-.926-.067Z" transform="translate(-189.703)" fill="#8a3293"/>
    <path id="Path_777" data-name="Path 777" d="M438.3-122.316a8.317,8.317,0,0,0,2.909-.522l-4.791-2.175-5.078-1.039A8.357,8.357,0,0,0,438.3-122.316Z" transform="translate(-124.489 -319.376)" fill="#ff5d4a"/>
    <path id="Path_778" data-name="Path 778" d="M419.366-197.226a4.916,4.916,0,0,1-4.074,2.168,4.924,4.924,0,0,1-4.727-3.567l-1.319-.824-2.275.253a8.307,8.307,0,0,0,1.36,3.844l9.869,3.214a8.4,8.4,0,0,0,4.76-4.515l-1.769-.9Z" transform="translate(-101.476 -250.075)" fill="#e45261"/>
    <g id="Group_807" data-name="Group 807" transform="translate(305.457 -455.157)">
      <path id="Path_779" data-name="Path 779" d="M409.743-267.851a4.894,4.894,0,0,1,1.183-3.194l-2.1-.293-2.13.941a8.325,8.325,0,0,0-.4,2.547c0,.262.014.522.037.778l3.594.572A4.9,4.9,0,0,1,409.743-267.851Z" transform="translate(-406.301 272.958)" fill="#ff4d95"/>
      <path id="Path_780" data-name="Path 780" d="M608.522-295.252a8.313,8.313,0,0,0-1.528-4.812l-2.083-.3-2.14.942a4.917,4.917,0,0,1,2.309,4.165,4.889,4.889,0,0,1-.842,2.749l3.594.572A8.308,8.308,0,0,0,608.522-295.252Z" transform="translate(-591.806 300.359)" fill="#ff4d95"/>
    </g>
    <g id="Group_808" data-name="Group 808" transform="translate(305.855 -459.883)">
      <path id="Path_781" data-name="Path 781" d="M421.378-355.163a4.886,4.886,0,0,1,2.608.752l4.223-.647a8.354,8.354,0,0,0-6.831-3.547,8.373,8.373,0,0,0-7.961,5.812l4.228-.647A4.906,4.906,0,0,1,421.378-355.163Z" transform="translate(-413.417 360.08)" fill="#cb319c"/>
      <path id="Path_782" data-name="Path 782" d="M663.717-381.1a1.969,1.969,0,0,0,1.967-1.967,1.969,1.969,0,0,0-1.967-1.967,1.969,1.969,0,0,0-1.967,1.967A1.969,1.969,0,0,0,663.717-381.1Z" transform="translate(-647.889 385.031)" fill="#cb319c"/>
    </g>
    <path id="Path_783" data-name="Path 783" d="M303.547-167.669l-1.42-.708-1.53-.252v2.412l2.95,1.322Z" transform="translate(-1.04 -279.175)" fill="#ff5d4a"/>
    <path id="Path_784" data-name="Path 784" d="M300.6-213.224v2.412l2.95.961v-2.9l-1.533-.551Z" transform="translate(-1.04 -236.992)" fill="#e45261"/>
    <path id="Path_785" data-name="Path 785" d="M303.547-245.533l-1.516-.014-1.434.465v1.416l2.95.469Z" transform="translate(-1.04 -206.551)" fill="#ff4d95"/>
    <path id="Path_786" data-name="Path 786" d="M303.547-284.937l-1.562.159-1.387,1.3v1.2l2.95-.452Z" transform="translate(-1.04 -169.359)" fill="#cb319c"/>
    <path id="Path_787" data-name="Path 787" d="M300.6-340.379l2.95-1.46V-345.2l-1.73.165-1.22,1.165Z" transform="translate(-1.04 -112.457)" fill="#8a3293"/>
    <path id="Path_788" data-name="Path 788" d="M312.018-464.308l-6.731,2.589-4.613,2.81a6.409,6.409,0,0,0-.077.993v1.586l2.95-1.33v-.256a3.446,3.446,0,0,1,3.442-3.442h4.761l6.544-2.95Z" transform="translate(-1.04)" fill="#523494"/>
    <path id="Path_789" data-name="Path 789" d="M308.3-464.308a6.4,6.4,0,0,0-6.314,5.4l11.344-5.4Z" transform="translate(-2.347)" fill="#2d2d87"/>
    <path id="Path_790" data-name="Path 790" d="M409.461-364.11a8.675,8.675,0,0,0-8.666,8.666,8.663,8.663,0,0,0,1.16,4.333.461.461,0,0,0,.63.168.461.461,0,0,0,.168-.63,7.74,7.74,0,0,1-1.036-3.872,7.753,7.753,0,0,1,7.744-7.744,7.752,7.752,0,0,1,7.744,7.744,7.752,7.752,0,0,1-7.744,7.744,7.674,7.674,0,0,1-5.623-2.42.461.461,0,0,0-.652-.018.461.461,0,0,0-.018.652,8.588,8.588,0,0,0,6.293,2.708,8.675,8.675,0,0,0,8.666-8.666A8.675,8.675,0,0,0,409.461-364.11Z" transform="translate(-95.645 -94.605)"/>
    <path id="Path_791" data-name="Path 791" d="M461.442-297.871a5.6,5.6,0,0,0,5.593-5.593,5.6,5.6,0,0,0-5.593-5.593,5.6,5.6,0,0,0-5.593,5.593A5.6,5.6,0,0,0,461.442-297.871Zm0-10.263a4.676,4.676,0,0,1,4.671,4.671,4.676,4.676,0,0,1-4.671,4.671,4.676,4.676,0,0,1-4.671-4.671A4.676,4.676,0,0,1,461.442-308.134Z" transform="translate(-147.626 -146.586)"/>
    <path id="Path_792" data-name="Path 792" d="M662.677-386.132a2.031,2.031,0,0,0-2.028,2.028,2.03,2.03,0,0,0,2.028,2.028,2.03,2.03,0,0,0,2.028-2.028A2.03,2.03,0,0,0,662.677-386.132Zm0,3.134a1.107,1.107,0,0,1-1.106-1.106,1.108,1.108,0,0,1,1.106-1.106,1.108,1.108,0,0,1,1.106,1.106A1.107,1.107,0,0,1,662.677-383Z" transform="translate(-340.995 -73.813)"/>
    <path id="Path_793" data-name="Path 793" d="M328.074-457.947a6.361,6.361,0,0,0-6.361-6.361H305.857a6.361,6.361,0,0,0-6.361,6.361v15.856a6.361,6.361,0,0,0,6.361,6.361h15.856a6.361,6.361,0,0,0,6.361-6.361Zm-.922,15.856a5.439,5.439,0,0,1-5.439,5.439H305.857a5.439,5.439,0,0,1-5.439-5.439v-15.856a5.439,5.439,0,0,1,5.439-5.439h15.856a5.439,5.439,0,0,1,5.439,5.439Z"/>
    <path id="Path_794" data-name="Path 794" d="M362.31-421.376a4.394,4.394,0,0,0-4.394-4.394H342.428a4.394,4.394,0,0,0-4.394,4.394v15.487a4.394,4.394,0,0,0,4.394,4.394h15.487a4.394,4.394,0,0,0,4.394-4.394Zm-.922,15.487a3.472,3.472,0,0,1-3.472,3.472H342.428a3.472,3.472,0,0,1-3.472-3.472v-15.487a3.472,3.472,0,0,1,3.472-3.472h15.487a3.472,3.472,0,0,1,3.472,3.472Z" transform="translate(-36.387 -36.387)"/>
  </g>
</svg>
