<svg xmlns="http://www.w3.org/2000/svg" xmlns:xlink="http://www.w3.org/1999/xlink" width="75.46" height="60.868" viewBox="0 0 75.46 60.868">
  <defs>
    <clipPath id="clip-path">
      <rect id="Rectangle_153" data-name="Rectangle 153" width="49.853" height="47.654" fill="none"/>
    </clipPath>
    <clipPath id="clip-path-2">
      <rect id="Rectangle_150" data-name="Rectangle 150" width="30" height="42" transform="translate(0.305 0.276)" fill="none"/>
    </clipPath>
  </defs>
  <g id="Group_594" data-name="Group 594" transform="translate(-69.54 -309.444)">
    <g id="Group_591" data-name="Group 591" transform="translate(118.477 365.735) rotate(-169)">
      <path id="Path_473" data-name="Path 473" d="M40.786,31.487a1.452,1.452,0,0,0,.125-1.9c-1.537-2.006-.864-3.273-3.155-5.532-2.627-2.588-3.894-1.3-6.52-3.889s-1.359-3.874-3.985-6.462-3.893-1.3-6.52-3.889-1.359-3.874-3.985-6.462C14.453,1.1,13.2,1.79,11.168.283a1.452,1.452,0,0,0-1.9.153L.419,9.42a1.455,1.455,0,0,0,.256,2.251c1.784,1.124,3.019.682,5.143,2.775,2.626,2.588,1.359,3.874,3.985,6.461s3.894,1.3,6.52,3.889,1.359,3.874,3.985,6.462,3.894,1.3,6.52,3.889c2.124,2.093,1.7,3.335,2.851,5.1a1.455,1.455,0,0,0,2.254.222Zm0,0" transform="translate(7.918 0.73)" fill="#ea4444"/>
      <path id="Path_474" data-name="Path 474" d="M32.993,29.588c-1.538-2.007-.864-3.274-3.155-5.532-2.627-2.588-3.894-1.3-6.52-3.889s-1.359-3.874-3.986-6.461-3.893-1.3-6.519-3.889S11.453,5.943,8.827,3.356C6.535,1.1,5.278,1.79,3.249.283a1.45,1.45,0,0,0-1.9.153L0,1.809A1.449,1.449,0,0,1,1.735,1.8C3.763,3.3,5.021,2.612,7.312,4.87,9.938,7.458,8.672,8.744,11.3,11.331s3.894,1.3,6.519,3.889,1.359,3.874,3.986,6.462,3.893,1.3,6.52,3.889c2.292,2.258,1.618,3.525,3.156,5.532a1.452,1.452,0,0,1-.126,1.9l-7.5,7.612a1.411,1.411,0,0,0,.164-.144l8.851-8.982a1.453,1.453,0,0,0,.125-1.9Zm0,0" transform="translate(15.836 0.73)" fill="#d93131"/>
      <path id="Path_475" data-name="Path 475" d="M35.5,31.05c-2.627-2.587-1.359-3.874-3.986-6.461s-3.894-1.3-6.52-3.889-1.359-3.874-3.985-6.462-3.893-1.3-6.52-3.889S13.128,6.476,10.5,3.889,6.608,2.588,3.982,0L0,4.041c2.626,2.588,3.894,1.3,6.52,3.889S7.878,11.8,10.5,14.391s3.894,1.3,6.52,3.889,1.359,3.874,3.985,6.462,3.894,1.3,6.52,3.889,1.359,3.874,3.985,6.462Zm0,0" transform="translate(10.689 3.721)" fill="#fdd79b"/>
      <path id="Path_476" data-name="Path 476" d="M33.241,31.05c-2.627-2.587-1.359-3.874-3.986-6.461s-3.894-1.3-6.52-3.889-1.359-3.874-3.985-6.461-3.894-1.3-6.519-3.889S10.871,6.476,8.245,3.888,4.352,2.588,1.726,0L0,1.752c2.617,2.57,3.884,1.293,6.506,3.876S7.865,9.5,10.491,12.089s3.893,1.3,6.519,3.889S18.37,19.851,21,22.439s3.894,1.3,6.52,3.889S28.874,30.2,31.5,32.79l-2.256,2.29.013.012Zm0,0" transform="translate(12.945 3.722)" fill="#fccd7f"/>
      <path id="Path_477" data-name="Path 477" d="M22.664,43.313A1.451,1.451,0,0,0,23.815,41.8c-.176-2.521,1.084-3.207.418-6.355-.764-3.607-2.531-3.233-3.295-6.84s1-3.981.239-7.588-2.531-3.232-3.3-6.839,1-3.981.239-7.588c-.667-3.147-2.1-3.263-2.959-5.639A1.452,1.452,0,0,0,13.494.032L1.157,2.646A1.455,1.455,0,0,0,.129,4.665C1,6.586,2.272,6.9,2.889,9.816c.764,3.606-1,3.98-.238,7.587s2.53,3.232,3.295,6.839-1,3.981-.238,7.587S8.238,35.063,9,38.669c.618,2.917-.42,3.72-.435,5.828a1.455,1.455,0,0,0,1.758,1.429Zm0,0" transform="translate(0.731 1.116)" fill="#ea4444"/>
      <path id="Path_478" data-name="Path 478" d="M13.705,41.8c-.176-2.522,1.084-3.208.418-6.355-.764-3.607-2.531-3.233-3.295-6.84s1-3.981.238-7.588-2.53-3.232-3.295-6.839,1-3.981.239-7.588C7.344,3.441,5.912,3.325,5.051.95A1.45,1.45,0,0,0,3.385.032L1.5.431a1.449,1.449,0,0,1,1.453.947c.861,2.376,2.292,2.491,2.959,5.639.764,3.607-1,3.981-.238,7.588s2.53,3.233,3.294,6.839-1,3.981-.238,7.588,2.53,3.233,3.3,6.84c.666,3.147-.594,3.833-.418,6.355a1.454,1.454,0,0,1-1.152,1.515L0,45.956a1.469,1.469,0,0,0,.216-.029l12.337-2.613A1.451,1.451,0,0,0,13.705,41.8Zm0,0" transform="translate(10.841 1.116)" fill="#d93131"/>
      <path id="Path_479" data-name="Path 479" d="M14.72,43.281c-.764-3.607,1-3.982.239-7.588s-2.531-3.233-3.295-6.84,1-3.981.238-7.588-2.53-3.232-3.294-6.839,1-3.981.238-7.588S6.315,3.607,5.55,0L0,1.176C.764,4.783,2.53,4.408,3.295,8.015S2.293,12,3.057,15.6s2.53,3.233,3.294,6.839-1,3.981-.238,7.587,2.531,3.233,3.295,6.84-1,3.982-.239,7.588Zm0,0" transform="translate(5.165 1.891)" fill="#fdd79b"/>
      <g id="Group_590" data-name="Group 590" transform="translate(0 0)">
        <g id="Group_589" data-name="Group 589" transform="translate(0)" clip-path="url(#clip-path)">
          <path id="Path_480" data-name="Path 480" d="M11.576,43.281c-.765-3.607,1-3.981.238-7.588s-2.531-3.233-3.3-6.84,1-3.981.238-7.588-2.53-3.232-3.294-6.839,1-3.981.238-7.588S3.169,3.607,2.406,0L0,.51C.765,4.1,2.527,3.731,3.29,7.33s-1,3.981-.238,7.588,2.531,3.232,3.294,6.839-1,3.981-.238,7.588,2.53,3.232,3.295,6.839-1,3.981-.238,7.588l-3.144.666a.163.163,0,0,0,0,.018Zm0,0" transform="translate(8.31 1.891)" fill="#fccd7f"/>
          <path id="Path_481" data-name="Path 481" d="M49.223,32.727l-2.518,2.556-3.981,4.041-2.352,2.387a2.186,2.186,0,0,1-3.387-.336,8.67,8.67,0,0,1-.935-2.027,7.252,7.252,0,0,0-4.795-4.725A8.709,8.709,0,0,1,25.544,29a6.507,6.507,0,0,0-1.816-2.953,7.875,7.875,0,0,0-1.023-.864c-.061.329-.136.631-.209.922a6.948,6.948,0,0,0-.29,2.116.73.73,0,0,1-1.46.053,8.278,8.278,0,0,1,.333-2.525,6.508,6.508,0,0,0,.113-3.464,6.5,6.5,0,0,0-1.508-3.121A8.006,8.006,0,0,1,17.9,15.442a8.013,8.013,0,0,1,.125-4.123,6.508,6.508,0,0,0,.113-3.464,6.507,6.507,0,0,0-1.508-3.121,8.159,8.159,0,0,1-1.423-2.421.724.724,0,0,0-.829-.453l-2.769.587a6.473,6.473,0,0,0,1.33,2.412,8,8,0,0,1,1.786,3.718A8.006,8.006,0,0,1,14.6,12.7a6.505,6.505,0,0,0-.113,3.464,6.5,6.5,0,0,0,1.508,3.121A8,8,0,0,1,17.781,23a8.01,8.01,0,0,1-.126,4.124,6.508,6.508,0,0,0-.113,3.464,6.51,6.51,0,0,0,1.508,3.121,8.707,8.707,0,0,1,1.662,7.842,6.488,6.488,0,0,0-.236,2.744l2.767-.586a.723.723,0,0,0,.574-.75,8.159,8.159,0,0,1,.318-2.79,7.247,7.247,0,0,0-1.4-6.585,9.023,9.023,0,0,1-1.121-1.705.73.73,0,0,1,1.314-.638,7.719,7.719,0,0,0,.957,1.442,8.71,8.71,0,0,1,1.662,7.842,6.745,6.745,0,0,0-.278,2.331,2.189,2.189,0,0,1-1.729,2.28L11.208,47.755a2.185,2.185,0,0,1-2.64-2.149A8.643,8.643,0,0,1,8.906,43.4a6.508,6.508,0,0,0,.113-3.464A6.514,6.514,0,0,0,7.51,36.814,8,8,0,0,1,5.724,33.1a8.006,8.006,0,0,1,.125-4.124,6.5,6.5,0,0,0,.113-3.464,6.5,6.5,0,0,0-1.508-3.121,8,8,0,0,1-1.786-3.718,8,8,0,0,1,.125-4.124,6.513,6.513,0,0,0,.113-3.464A6.5,6.5,0,0,0,1.4,7.96a8.643,8.643,0,0,1-1.2-1.88A2.186,2.186,0,0,1,1.736,3.045L14.074.431a2.165,2.165,0,0,1,.45-.047,2.2,2.2,0,0,1,1.659.76l.485-.492A2.19,2.19,0,0,1,18.231,0a2.156,2.156,0,0,1,1.29.424,6.739,6.739,0,0,0,2.113,1.022,8,8,0,0,1,3.541,2.117,10.064,10.064,0,0,1,.787.865.73.73,0,0,1-1.14.913,8.548,8.548,0,0,0-.672-.739,6.514,6.514,0,0,0-2.979-1.772A8.157,8.157,0,0,1,18.65,1.6a.723.723,0,0,0-.941.079l-.825.838a8.118,8.118,0,0,0,.895,1.32A10.171,10.171,0,0,1,18.7,5.155,7.773,7.773,0,0,1,21.7,7.088,8,8,0,0,1,23.872,10.6a6.51,6.51,0,0,0,1.816,2.952,6.507,6.507,0,0,0,2.979,1.772,8.011,8.011,0,0,1,3.541,2.117,8.01,8.01,0,0,1,2.169,3.509A6.506,6.506,0,0,0,36.193,23.9a6.509,6.509,0,0,0,2.979,1.772,8.709,8.709,0,0,1,5.71,5.626,6.479,6.479,0,0,0,1.316,2.42L48.183,31.7a.722.722,0,0,0,.066-.942,8.176,8.176,0,0,1-1.272-2.5,7.253,7.253,0,0,0-4.8-4.725,8,8,0,0,1-3.541-2.117,8,8,0,0,1-2.169-3.509,6.512,6.512,0,0,0-1.816-2.952,6.509,6.509,0,0,0-2.979-1.772,8,8,0,0,1-3.54-2.117,7.709,7.709,0,0,1-1.92-2.827A.73.73,0,0,1,27.574,7.7a6.267,6.267,0,0,0,1.586,2.323A6.507,6.507,0,0,0,32.14,11.8a8.008,8.008,0,0,1,3.541,2.117,8.006,8.006,0,0,1,2.169,3.509,6.506,6.506,0,0,0,1.816,2.952,6.509,6.509,0,0,0,2.979,1.772,8.707,8.707,0,0,1,5.711,5.626,6.747,6.747,0,0,0,1.053,2.1,2.189,2.189,0,0,1-.185,2.855ZM19.043,44.6a7.941,7.941,0,0,1,.253-3.4,7.253,7.253,0,0,0-1.4-6.585,8,8,0,0,1-1.787-3.719,8,8,0,0,1,.126-4.123,6.514,6.514,0,0,0,.112-3.464,6.51,6.51,0,0,0-1.508-3.121,8,8,0,0,1-1.787-3.718,8,8,0,0,1,.125-4.123A6.509,6.509,0,0,0,13.3,8.88a6.506,6.506,0,0,0-1.508-3.121A7.94,7.94,0,0,1,10.177,2.75l-.621.131-3.5.741a6.466,6.466,0,0,0,1.33,2.412A8.006,8.006,0,0,1,9.175,9.753a8.009,8.009,0,0,1-.125,4.123,6.508,6.508,0,0,0-.113,3.464,6.507,6.507,0,0,0,1.508,3.121,8,8,0,0,1,1.787,3.719,8,8,0,0,1-.125,4.123,6.508,6.508,0,0,0-.113,3.464A6.509,6.509,0,0,0,13.5,34.888a8.709,8.709,0,0,1,1.662,7.843,6.465,6.465,0,0,0-.238,2.744l1.714-.363ZM1.539,4.858a.707.707,0,0,0-.014.62A7.365,7.365,0,0,0,2.548,7.06a8,8,0,0,1,1.787,3.718A8,8,0,0,1,4.209,14.9,6.512,6.512,0,0,0,4.1,18.366,6.51,6.51,0,0,0,5.6,21.487,8,8,0,0,1,7.39,25.205a8.01,8.01,0,0,1-.125,4.123,6.508,6.508,0,0,0-.113,3.464,6.507,6.507,0,0,0,1.508,3.121,8.006,8.006,0,0,1,1.787,3.718,8,8,0,0,1-.125,4.124,7.334,7.334,0,0,0-.293,1.861.708.708,0,0,0,.264.561.727.727,0,0,0,.612.149l2.588-.548a7.953,7.953,0,0,1,.252-3.4,6.507,6.507,0,0,0,.113-3.464,6.514,6.514,0,0,0-1.508-3.121,8,8,0,0,1-1.787-3.719,8.007,8.007,0,0,1,.125-4.124,6.5,6.5,0,0,0,.113-3.464,6.516,6.516,0,0,0-1.508-3.121,8,8,0,0,1-1.787-3.718,8.009,8.009,0,0,1,.125-4.123,6.5,6.5,0,0,0,.113-3.464A6.508,6.508,0,0,0,6.238,6.935,7.945,7.945,0,0,1,4.626,3.926l-2.587.548a.727.727,0,0,0-.5.384Zm21.082,17.12a9.282,9.282,0,0,1,.2,1.567A8.339,8.339,0,0,1,24.753,25a8,8,0,0,1,2.169,3.509,7.251,7.251,0,0,0,4.795,4.724,8.708,8.708,0,0,1,5.711,5.626,7.347,7.347,0,0,0,.782,1.714.708.708,0,0,0,.53.321.725.725,0,0,0,.593-.213L41.188,38.8a7.947,7.947,0,0,1-1.666-2.979A7.254,7.254,0,0,0,34.727,31.1a8,8,0,0,1-3.541-2.117,8,8,0,0,1-2.169-3.509A6.506,6.506,0,0,0,27.2,22.519a6.508,6.508,0,0,0-2.979-1.772,8.154,8.154,0,0,1-2.5-1.22,8.184,8.184,0,0,1,.9,2.451Zm20.883,9.8a7.251,7.251,0,0,0-4.8-4.725,8.006,8.006,0,0,1-3.541-2.117A8.009,8.009,0,0,1,33,21.43a6.515,6.515,0,0,0-1.816-2.952A6.511,6.511,0,0,0,28.2,16.706a8,8,0,0,1-3.541-2.117,8,8,0,0,1-2.169-3.509,6.512,6.512,0,0,0-1.816-2.952,7.5,7.5,0,0,0-1.209-.989c.034.133.066.269.1.412a8,8,0,0,1-.126,4.124,9.351,9.351,0,0,0-.262,1.306,9.556,9.556,0,0,1,.713,1.657,6.507,6.507,0,0,0,1.816,2.952,6.509,6.509,0,0,0,2.978,1.772,8,8,0,0,1,3.541,2.117,8,8,0,0,1,2.169,3.509,6.509,6.509,0,0,0,1.816,2.952,6.506,6.506,0,0,0,2.978,1.772A8.71,8.71,0,0,1,40.9,35.339a6.474,6.474,0,0,0,1.315,2.42l2.955-3A7.939,7.939,0,0,1,43.5,31.781Zm0,0" transform="translate(0 0.002)" fill="#242424"/>
        </g>
      </g>
    </g>
    <g id="Group_593" data-name="Group 593" transform="translate(-9 -0.618)">
      <g id="Group_584" data-name="Group 584" transform="translate(123.695 328.343)">
        <g id="Group_581" data-name="Group 581" transform="translate(0 0)">
          <g id="Group_580" data-name="Group 580" transform="translate(0 0)" clip-path="url(#clip-path-2)">
            <path id="Path_465" data-name="Path 465" d="M536.444,229.372c-1.435-5.115-4.1-15.747-11.723-15.747-7.9,0-10.287,10.631-11.723,15.747-1.563,5.572-8.4,25.2,11.723,25.2s13.286-19.628,11.723-25.2Zm0,0" transform="translate(-509.892 -212.602)" fill="#a5cb81"/>
          </g>
        </g>
        <path id="Path_466" data-name="Path 466" d="M550.5,276.606h-.027c-3.092.068-6.707-.412-8.9-2.835-2.122-2.34-2.185-5.862-1.824-9a65.419,65.419,0,0,1,4.383-16.48,13.939,13.939,0,0,1,2.537-4.532,5.219,5.219,0,0,1,4.675-1.773,6.133,6.133,0,0,1,3.468,2.552c2,2.673,2.951,5.959,3.9,9.159,1.2,4.045,2.458,8.12,2.728,12.331.169,2.626-.126,5.465-1.814,7.483-2.206,2.637-5.911,3.021-9.124,3.093Zm0,0" transform="translate(-535.673 -237.779)" fill="#e3f18c"/>
        <path id="Path_467" data-name="Path 467" d="M636.043,266.031c-.27-4.21-1.529-8.286-2.728-12.331-.949-3.2-1.9-6.486-3.9-9.159a6.134,6.134,0,0,0-3.468-2.552,4.214,4.214,0,0,0-2.057.111,6.52,6.52,0,0,1,3.053,2.441c2,2.673,2.951,5.96,3.9,9.159,1.2,4.045,2.458,8.12,2.728,12.331.169,2.626-.126,5.465-1.814,7.483-2.034,2.433-5.344,2.948-8.366,3.07.571.03,1.137.036,1.687.024h.027c3.213-.072,6.918-.456,9.124-3.093,1.688-2.018,1.983-4.857,1.814-7.483Zm0,0" transform="translate(-610.276 -237.779)" fill="#d5e37d"/>
        <path id="Path_468" data-name="Path 468" d="M599.073,389.341c0,4.016-2.691,7.272-6.011,7.272s-6.011-3.256-6.011-7.272,2.691-7.271,6.011-7.271,6.011,3.255,6.011,7.271Zm0,0" transform="translate(-577.928 -362.543)" fill="#dfa267"/>
        <g id="Group_583" data-name="Group 583" transform="translate(0 0)">
          <g id="Group_600" data-name="Group 600" transform="translate(0 0)">
            <path id="Path_470" data-name="Path 470" d="M519.663,250.182c-5.786,0-9.929-1.613-12.316-4.794-4.449-5.931-1.636-15.576-.284-20.211.105-.361.464-1.633.56-1.988.46-1.68,1.032-3.771,1.828-5.845a.618.618,0,0,1,1.154.442c-.774,2.017-1.337,4.075-1.79,5.728-.1.357-.46,1.642-.566,2.007-1.3,4.443-3.991,13.687.087,19.124,2.14,2.853,5.951,4.3,11.327,4.3s9.187-1.447,11.327-4.3c4.078-5.437,1.382-14.681.087-19.124-.107-.366-.4-1.384-.454-1.592-1.429-5.135-4.09-14.7-10.96-14.7-3.354,0-5.994,2.052-8.07,6.271a.618.618,0,1,1-1.109-.545,14.838,14.838,0,0,1,3.55-4.854A8.455,8.455,0,0,1,519.663,208c7.809,0,10.633,10.148,12.15,15.6.058.206.344,1.216.449,1.577,1.352,4.635,4.164,14.28-.284,20.211-2.386,3.181-6.53,4.794-12.316,4.794Zm0,0" transform="translate(-504.833 -207.595)" fill="#242424"/>
          </g>
        </g>
        <path id="Path_471" data-name="Path 471" d="M544.918,272.238c-4.034,0-7-1.023-8.836-3.043-2.442-2.7-2.3-6.7-1.98-9.486a65.649,65.649,0,0,1,4.422-16.636,14.512,14.512,0,0,1,2.66-4.727,5.806,5.806,0,0,1,5.251-1.956,6.634,6.634,0,0,1,3.838,2.787c2.031,2.719,3.008,6.013,3.952,9.2l.214.724a54.411,54.411,0,0,1,2.583,11.9c.224,3.487-.416,6.077-1.957,7.919-2.329,2.784-6.152,3.238-9.583,3.315h-.028c-.181,0-.361.006-.538.006Zm.551-.624h0Zm.071-34.076a4.794,4.794,0,0,0-3.453,1.653,13.5,13.5,0,0,0-2.414,4.337,64.456,64.456,0,0,0-4.344,16.323c-.465,4.04.065,6.746,1.668,8.515,1.66,1.832,4.5,2.718,8.431,2.632h.027c5.622-.126,7.535-1.522,8.664-2.872,1.309-1.565,1.871-3.936,1.671-7.047a53.527,53.527,0,0,0-2.535-11.624l-.215-.725c-.914-3.082-1.858-6.269-3.757-8.811a5.468,5.468,0,0,0-3.1-2.316,3.2,3.2,0,0,0-.647-.063Zm0,0" transform="translate(-530.639 -232.786)" fill="#242424"/>
        <path id="Path_472" data-name="Path 472" d="M588.055,392.224c-3.655,0-6.629-3.539-6.629-7.889s2.974-7.889,6.629-7.889,6.629,3.539,6.629,7.889a9.467,9.467,0,0,1-.078,1.213.618.618,0,1,1-1.225-.159,8.286,8.286,0,0,0,.067-1.054c0-3.669-2.42-6.653-5.393-6.653s-5.393,2.984-5.393,6.653,2.419,6.654,5.393,6.654a5.347,5.347,0,0,0,4.714-3.424.618.618,0,1,1,1.126.509,6.562,6.562,0,0,1-5.841,4.15Zm0,0" transform="translate(-572.921 -357.536)" fill="#242424"/>
      </g>
    </g>
  </g>
</svg>
