<svg xmlns="http://www.w3.org/2000/svg" xmlns:xlink="http://www.w3.org/1999/xlink" width="63" height="42" viewBox="0 0 63 42">
  <defs>
    <clipPath id="clip-path">
      <rect id="Rectangle_195" data-name="Rectangle 195" width="61" height="39" transform="translate(0 0.446)" fill="none"/>
    </clipPath>
  </defs>
  <g id="Group_865" data-name="Group 865" transform="translate(-233 -408)">
    <g id="Group_835" data-name="Group 835" transform="translate(176 106.436)">
      <path id="Path_795" data-name="Path 795" d="M121.423,375.063a11.542,11.542,0,0,0-2.31-6.1c-5.352-7.225-13.645-11.591-22.437-12.965a34,34,0,0,0-31.691,12.939,11.566,11.566,0,0,0-2.332,6.168c-.223,3.712,1.348,8.7,10.632,10.365a30.484,30.484,0,0,0,5.381.447h26.746a30.5,30.5,0,0,0,5.392-.449c9.309-1.673,10.856-6.689,10.62-10.4Zm0,0" transform="translate(-4.745 -43.383)" fill="#fea95c"/>
      <path id="Path_796" data-name="Path 796" d="M116.3,427.6a30.435,30.435,0,0,1-5.392.449H84.166a30.433,30.433,0,0,1-5.381-.448c-5.515-.989-8.308-3.151-9.621-5.521a18.823,18.823,0,0,0,5.982,2,30.546,30.546,0,0,0,5.381.446h26.745a30.43,30.43,0,0,0,5.391-.449c9.309-1.673,10.856-6.688,10.621-10.4a11.55,11.55,0,0,0-2.31-6.1q-.738-.995-1.548-1.919a30.554,30.554,0,0,1,5.187,5.438,11.544,11.544,0,0,1,2.31,6.1c.237,3.714-1.31,8.729-10.619,10.4Zm0,0" transform="translate(-10.245 -85.514)" fill="#fe9738"/>
      <path id="Path_797" data-name="Path 797" d="M223.715,355.733v11.259a3.781,3.781,0,0,1-7.563,0V356.026a32.215,32.215,0,0,1,7.563-.293Zm0,0" transform="translate(-134.04 -43.385)" fill="#feca9c"/>
      <path id="Path_798" data-name="Path 798" d="M143.242,367.036v7.838a3.422,3.422,0,0,1-6.844,0V370.2a35,35,0,0,1,6.844-3.164Zm0,0" transform="translate(-66.87 -52.99)" fill="#feca9c"/>
      <path id="Path_799" data-name="Path 799" d="M307.3,364.891V371a3.422,3.422,0,1,1-6.843,0v-8.563a36.92,36.92,0,0,1,6.843,2.449Zm0,0" transform="translate(-205.047 -49.121)" fill="#feca9c"/>
      <path id="Path_800" data-name="Path 800" d="M239.3,355.74V367a3.781,3.781,0,0,1-4.644,3.681,4.093,4.093,0,0,0,1.943-3.493V355.641q1.353-.009,2.7.1Zm0,0" transform="translate(-149.621 -43.393)" fill="#fdb97e"/>
      <path id="Path_801" data-name="Path 801" d="M153.217,367.032v7.839a3.421,3.421,0,0,1-3.422,3.421,3.38,3.38,0,0,1-1.553-.373,3.718,3.718,0,0,0,2.539-3.528v-6.435q1.2-.507,2.436-.924Zm0,0" transform="translate(-76.845 -52.987)" fill="#fdb97e"/>
      <path id="Path_802" data-name="Path 802" d="M317.2,371.108v6.115a3.422,3.422,0,0,1-4.99,3.041,3.719,3.719,0,0,0,2.516-3.521V370.1q-.293-.139-.589-.273,1.562.57,3.063,1.283Zm0,0" transform="translate(-214.943 -55.339)" fill="#fdb97e"/>
      <path id="Path_803" data-name="Path 803" d="M340,319.585a8.924,8.924,0,1,1-8.924-8.924A8.925,8.925,0,0,1,340,319.585Zm0,0" transform="translate(-223.312 -5.511)" fill="#fd4755"/>
      <path id="Path_804" data-name="Path 804" d="M357.646,323.247a8.924,8.924,0,0,1-14.541,6.935,8.925,8.925,0,0,0,9.053-15.173,8.927,8.927,0,0,1,5.487,8.238Zm0,0" transform="translate(-240.962 -9.172)" fill="#fb2b3a"/>
      <path id="Path_805" data-name="Path 805" d="M356.419,359.023h-7.794a1.009,1.009,0,0,1-1.008-1.009v-1.763a1.008,1.008,0,0,1,1.008-1.008h7.794a1.008,1.008,0,0,1,1.008,1.008v1.763a1.008,1.008,0,0,1-1.008,1.009Zm0,0" transform="translate(-244.762 -43.058)" fill="#fff2e2"/>
      <g id="Group_834" data-name="Group 834" transform="translate(57 304.118)">
        <g id="Group_833" data-name="Group 833" transform="translate(0 0)" clip-path="url(#clip-path)">
          <path id="Path_806" data-name="Path 806" d="M357.427,356.255v1.763a1.008,1.008,0,0,1-1.008,1.008h-7.794a1.008,1.008,0,0,1-1.008-1.008V357.2h7.442a.635.635,0,0,0,.635-.636v-1.316h.725a1.008,1.008,0,0,1,1.008,1.008Zm0,0" transform="translate(-301.762 -347.18)" fill="#fff2e2"/>
          <path id="Path_807" data-name="Path 807" d="M117.565,332.393a12.4,12.4,0,0,0-2.483-6.575A30.945,30.945,0,0,0,112.9,323.2a9.817,9.817,0,0,0,4.076-11.727.889.889,0,0,0-1.669.611,8.044,8.044,0,1,1-2.07-3.116.889.889,0,0,0,1.212-1.3A9.812,9.812,0,0,0,97.994,313.9a39.3,39.3,0,0,0-5.926-1.4,34.882,34.882,0,0,0-32.541,13.287,12.43,12.43,0,0,0-2.505,6.645,9.309,9.309,0,0,0,1.942,6.555c1.874,2.358,5.044,3.952,9.42,4.737a31.111,31.111,0,0,0,5.538.461H78.8a.888.888,0,1,0,0-1.777H73.922a29.335,29.335,0,0,1-5.224-.433c-3.938-.707-6.745-2.084-8.343-4.094a7.586,7.586,0,0,1-1.559-5.343,10.659,10.659,0,0,1,2.158-5.693,30.916,30.916,0,0,1,7.686-7.262v3.065a4.31,4.31,0,1,0,8.621,0v-7.194a33.765,33.765,0,0,1,3.963-1v9.92a4.67,4.67,0,1,0,9.34,0V314.095s.822.1,1.231.165c.924.144,1.835.323,2.732.531v7.863a4.31,4.31,0,0,0,8.544.806,9.784,9.784,0,0,0,8.167.559,29.22,29.22,0,0,1,2.417,2.857,10.633,10.633,0,0,1,2.138,5.63,7.6,7.6,0,0,1-1.541,5.36c-1.593,2.019-4.4,3.4-8.349,4.112a29.322,29.322,0,0,1-5.234.435H82.941a.888.888,0,1,0,0,1.777h17.726a31.107,31.107,0,0,0,5.548-.463c4.387-.789,7.559-2.39,9.43-4.761a9.325,9.325,0,0,0,1.919-6.573Zm-42.082-9.739a2.533,2.533,0,0,1-5.066,0v-4.167a34.031,34.031,0,0,1,4.355-2.13c.149-.06.624-.246.713-.279v6.576Zm13.3,1.724a2.892,2.892,0,1,1-5.785,0v-10.2a31.293,31.293,0,0,1,5.785-.232Zm12.584-1.724a2.533,2.533,0,0,1-5.066,0v-7.4l.039.011.368.108c.086.026.943.293,1.283.408a9.8,9.8,0,0,0,3.376,6.506Zm0,0" transform="translate(-57 -304.888)"/>
        </g>
      </g>
      <path id="Path_808" data-name="Path 808" d="M351.675,349.614h-7.794a1.9,1.9,0,0,0-1.9,1.9v1.763a1.9,1.9,0,0,0,1.9,1.9h7.794a1.9,1.9,0,0,0,1.9-1.9v-1.763a1.9,1.9,0,0,0-1.9-1.9Zm.12,3.659a.12.12,0,0,1-.12.12h-7.794a.12.12,0,0,1-.12-.12v-1.763a.12.12,0,0,1,.12-.12h7.794a.12.12,0,0,1,.12.12Zm0,0" transform="translate(-240.018 -38.317)"/>
    </g>
    <g id="Group_861" data-name="Group 861" transform="translate(2)">
      <g id="Ellipse_52" data-name="Ellipse 52" transform="translate(271 408)" fill="#fff" stroke="#000" stroke-width="1.5">
        <circle cx="11.5" cy="11.5" r="11.5" stroke="none"/>
        <circle cx="11.5" cy="11.5" r="10.75" fill="none"/>
      </g>
      <g id="Group_860" data-name="Group 860" transform="translate(148.14 626.272)">
        <path id="Path_859" data-name="Path 859" d="M134.307-196.768a10.069,10.069,0,0,1-10.057-10.057,10.069,10.069,0,0,1,10.057-10.057,10.069,10.069,0,0,1,10.057,10.057,10.069,10.069,0,0,1-10.057,10.057Zm0,0" transform="translate(0 0)" fill="#ff415b"/>
        <path id="Path_860" data-name="Path 860" d="M213.057-206.825A10.069,10.069,0,0,0,203-216.882v20.114a10.069,10.069,0,0,0,10.057-10.057Zm0,0" transform="translate(-68.693 0)" fill="#e50058"/>
        <path id="Path_861" data-name="Path 861" d="M180.325-166.554l-2.031-2.031-1.858,1.857-1.858-1.857-2.031,2.031L174.4-164.7l-1.857,1.858,2.031,2.031,1.858-1.857,1.858,1.857,2.031-2.031-1.857-1.858Zm0,0" transform="translate(-42.129 -42.129)" fill="#fff5f5"/>
        <path id="Path_862" data-name="Path 862" d="M204.858-160.807l2.031-2.031-1.857-1.858,1.857-1.858-2.031-2.031L203-166.728v4.064Zm0,0" transform="translate(-68.693 -42.129)" fill="#e1ebf0"/>
      </g>
    </g>
  </g>
</svg>
