<svg xmlns="http://www.w3.org/2000/svg" xmlns:xlink="http://www.w3.org/1999/xlink" width="40" height="60" viewBox="0 0 40 60">
  <defs>
    <clipPath id="clip-path">
      <rect id="Rectangle_232" data-name="Rectangle 232" width="30" height="51" transform="translate(0 -0.473)" fill="none"/>
    </clipPath>
  </defs>
  <g id="Group_864" data-name="Group 864" transform="translate(-256 -561)">
    <g id="Group_859" data-name="Group 859" transform="translate(140 625.053)">
      <path id="Path_839" data-name="Path 839" d="M144.933,44.079h-18.62l-4.5,32.58A2.935,2.935,0,0,0,124.716,80H146.53a2.935,2.935,0,0,0,2.908-3.337Zm0,0" transform="translate(-5.012 -93.796)" fill="#8dcafc"/>
      <path id="Path_840" data-name="Path 840" d="M175.647,76.659l-4.505-32.58h-18.62L152,47.829H165.95a2.177,2.177,0,0,1,2.157,1.879l3.726,26.951A2.935,2.935,0,0,1,168.926,80h3.813a2.936,2.936,0,0,0,2.908-3.337Zm0,0" transform="translate(-31.222 -93.796)" fill="#64b9fc"/>
      <path id="Path_841" data-name="Path 841" d="M146.532,195.032H124.717a2.934,2.934,0,0,1-2.907-3.337l1.338-9.684a17.387,17.387,0,0,1,24.952,0l1.338,9.684a2.934,2.934,0,0,1-2.907,3.337Zm0,0" transform="translate(-5.014 -208.832)" fill="#fef0dc"/>
      <path id="Path_842" data-name="Path 842" d="M283.221,209.111h-3.815a2.935,2.935,0,0,0,2.907-3.337l-1.77-12.8a19.886,19.886,0,0,1,4.246,3.12l1.338,9.684a2.934,2.934,0,0,1-2.906,3.337Zm0,0" transform="translate(-141.702 -222.911)" fill="#f9e1c2"/>
      <path id="Path_843" data-name="Path 843" d="M194.511,44.079h-5.9L186.285,80h10.55Zm0,0" transform="translate(-60.95 -93.796)" fill="#b5dbfd"/>
      <path id="Path_844" data-name="Path 844" d="M208.341,47.829h-6.388l.243-3.75h5.9Zm0,0" transform="translate(-74.536 -93.796)" fill="#8dcafc"/>
      <path id="Path_845" data-name="Path 845" d="M196.835,195.032h-10.55l1.149-17.769a16.36,16.36,0,0,1,8.251,0Zm0,0" transform="translate(-60.95 -208.832)" fill="#fdf6ed"/>
      <rect id="Rectangle_230" data-name="Rectangle 230" width="18.968" height="4.91" transform="translate(121.127 -55.976)" fill="#aa5e33"/>
      <rect id="Rectangle_231" data-name="Rectangle 231" width="3.495" height="4.91" transform="translate(136.599 -55.976)" fill="#9d552e"/>
      <path id="Path_846" data-name="Path 846" d="M158.505-53.012a3.167,3.167,0,0,1-1.294,2.355,1.96,1.96,0,0,1-1.274.471H136.66a1.959,1.959,0,0,1-1.273-.471,3.166,3.166,0,0,1-1.3-2.355c0-2.9,5.466-5.245,12.209-5.245s12.207,2.348,12.207,5.245Zm0,0" transform="translate(-15.687 -5.053)" fill="#d67f4f"/>
      <path id="Path_847" data-name="Path 847" d="M225.631-53.012a3.169,3.169,0,0,1-1.3,2.355,1.966,1.966,0,0,1-1.273.47h-3.857a1.965,1.965,0,0,0,1.274-.47,3.166,3.166,0,0,0,1.294-2.355c0-2.615-4.452-4.783-10.277-5.179.627-.044,1.272-.066,1.928-.066,6.742,0,12.207,2.348,12.207,5.245Zm0,0" transform="translate(-82.812 -5.053)" fill="#c76d3d"/>
      <path id="Path_848" data-name="Path 848" d="M159.465,31.621H139.058a1.551,1.551,0,0,1,0-3.1h20.407a1.551,1.551,0,0,1,0,3.1Zm0,0" transform="translate(-18.651 -80.304)" fill="#d67f4f"/>
      <g id="Group_858" data-name="Group 858" transform="translate(116 -63.58)">
        <g id="Group_857" data-name="Group 857" transform="translate(0 0)" clip-path="url(#clip-path)">
          <path id="Path_849" data-name="Path 849" d="M286.838,30.067a1.55,1.55,0,0,1-1.55,1.55H282.6a1.551,1.551,0,1,0,0-3.1h2.686a1.551,1.551,0,0,1,1.55,1.551Zm0,0" transform="translate(-260.473 -16.721)" fill="#c76d3d"/>
          <path id="Path_850" data-name="Path 850" d="M145.3-17.065l-.518-3.744a.748.748,0,0,0-.843-.638.747.747,0,0,0-.638.843l.518,3.744a2.187,2.187,0,0,1-.518,1.737,2.187,2.187,0,0,1-1.65.751h-4.932l-1.036-16.009a18.3,18.3,0,0,1,6.832,4.1l.343,2.48a.747.747,0,0,0,.739.645.778.778,0,0,0,.1-.007.748.748,0,0,0,.638-.843l-3.285-23.755a2.3,2.3,0,0,0,2.191-2.295,2.3,2.3,0,0,0-2.27-2.3v-2.031a2.708,2.708,0,0,0,1.167-.581A3.9,3.9,0,0,0,143.7-57.89c0-1.754-1.484-3.337-4.177-4.458a.747.747,0,0,0-.977.4.748.748,0,0,0,.4.977c2.07.861,3.256,1.983,3.256,3.078a2.446,2.446,0,0,1-1.032,1.787,1.216,1.216,0,0,1-.789.291H121.108a1.215,1.215,0,0,1-.788-.291,2.447,2.447,0,0,1-1.035-1.787c0-1.068,1.139-2.17,3.124-3.022a21.792,21.792,0,0,1,8.338-1.476,25.375,25.375,0,0,1,5.217.518.747.747,0,0,0,.886-.576.748.748,0,0,0-.577-.886,26.882,26.882,0,0,0-5.526-.55,23.308,23.308,0,0,0-8.928,1.6c-2.6,1.116-4.028,2.677-4.028,4.4a3.9,3.9,0,0,0,1.559,2.923,2.712,2.712,0,0,0,1.165.581v2.031a2.3,2.3,0,0,0-2.27,2.3,2.3,2.3,0,0,0,2.191,2.3l-4.245,30.7a3.682,3.682,0,0,0,.872,2.923,3.68,3.68,0,0,0,2.776,1.263h21.814a3.68,3.68,0,0,0,2.776-1.263,3.68,3.68,0,0,0,.872-2.923Zm-10.077,2.692h-8.956L127.331-30.8a15.777,15.777,0,0,1,3.415-.378,15.777,15.777,0,0,1,3.415.378Zm-8.293-33.388L125.91-31.977a19.338,19.338,0,0,0-6.626,3.456l2.66-19.239Zm1.5,0h4.634l1,15.416a17.253,17.253,0,0,0-3.315-.325,17.252,17.252,0,0,0-3.315.325Zm7.153,15.784-1.022-15.784h4.988l2.66,19.239a19.338,19.338,0,0,0-6.626-3.456ZM119.74-50.058a.8.8,0,0,1,.8-.8h3.122a.747.747,0,0,0,.747-.747.747.747,0,0,0-.747-.747H122.01v-1.962h17.473v1.962H126.918a.747.747,0,0,0-.747.747.747.747,0,0,0,.747.747H140.95a.8.8,0,0,1,.8.8.8.8,0,0,1-.8.8H120.543a.8.8,0,0,1-.8-.8Zm-1.55,34.935a2.188,2.188,0,0,1-.518-1.737l1.3-9.423a18.3,18.3,0,0,1,6.832-4.1l-1.036,16.009h-4.932a2.187,2.187,0,0,1-1.65-.751Zm0,0" transform="translate(-116.136 63.405)"/>
        </g>
      </g>
      <path id="Path_851" data-name="Path 851" d="M165.142-36.718a.747.747,0,0,0-.747.747.747.747,0,0,0,.747.747h.011a.747.747,0,0,0,.747-.747.747.747,0,0,0-.747-.747Zm0,0" transform="translate(-41.967 -23.731)"/>
      <path id="Path_852" data-name="Path 852" d="M192.009-41.128a.747.747,0,0,0-.747.747.747.747,0,0,0,.747.747h.01a.747.747,0,0,0,.747-.747.747.747,0,0,0-.747-.747Zm0,0" transform="translate(-65.265 -19.907)"/>
      <path id="Path_853" data-name="Path 853" d="M221.079-43.335a.747.747,0,0,0-.747.747.747.747,0,0,0,.747.747h.011a.747.747,0,0,0,.747-.747.747.747,0,0,0-.747-.747Zm0,0" transform="translate(-90.474 -17.993)"/>
      <path id="Path_854" data-name="Path 854" d="M250.157-41.116a.747.747,0,0,0-.747.747.747.747,0,0,0,.747.747h.01a.747.747,0,0,0,.747-.747.747.747,0,0,0-.747-.747Zm0,0" transform="translate(-115.69 -19.917)"/>
      <path id="Path_855" data-name="Path 855" d="M277.02-35.2h.011a.747.747,0,0,0,.747-.747.747.747,0,0,0-.747-.747h-.011a.747.747,0,0,0-.747.747.747.747,0,0,0,.747.747Zm0,0" transform="translate(-138.985 -23.752)"/>
      <path id="Path_856" data-name="Path 856" d="M220.336,216.936a.747.747,0,0,0,.74.754h.017a.747.747,0,0,0,.007-1.494h-.017a.748.748,0,0,0-.747.74Zm0,0" transform="translate(-90.478 -243.052)"/>
      <path id="Path_857" data-name="Path 857" d="M229.988,234.042a.747.747,0,0,0,.74.754h.017a.747.747,0,0,0,.007-1.494h-.017a.748.748,0,0,0-.747.74Zm0,0" transform="translate(-98.848 -257.886)"/>
      <path id="Path_858" data-name="Path 858" d="M153.456,270.68h-.01a.747.747,0,1,0,0,1.494h.01a.747.747,0,1,0,0-1.494Zm0,0" transform="translate(-31.825 -290.299)"/>
    </g>
    <g id="Group_862" data-name="Group 862" transform="translate(2 190)">
      <g id="Ellipse_52" data-name="Ellipse 52" transform="translate(271 408)" fill="#fff" stroke="#000" stroke-width="1.5">
        <circle cx="11.5" cy="11.5" r="11.5" stroke="none"/>
        <circle cx="11.5" cy="11.5" r="10.75" fill="none"/>
      </g>
      <g id="Group_860" data-name="Group 860" transform="translate(148.14 626.272)">
        <path id="Path_859" data-name="Path 859" d="M134.307-196.768a10.069,10.069,0,0,1-10.057-10.057,10.069,10.069,0,0,1,10.057-10.057,10.069,10.069,0,0,1,10.057,10.057,10.069,10.069,0,0,1-10.057,10.057Zm0,0" transform="translate(0 0)" fill="#ff415b"/>
        <path id="Path_860" data-name="Path 860" d="M213.057-206.825A10.069,10.069,0,0,0,203-216.882v20.114a10.069,10.069,0,0,0,10.057-10.057Zm0,0" transform="translate(-68.693 0)" fill="#e50058"/>
        <path id="Path_861" data-name="Path 861" d="M180.325-166.554l-2.031-2.031-1.858,1.857-1.858-1.857-2.031,2.031L174.4-164.7l-1.857,1.858,2.031,2.031,1.858-1.857,1.858,1.857,2.031-2.031-1.857-1.858Zm0,0" transform="translate(-42.129 -42.129)" fill="#fff5f5"/>
        <path id="Path_862" data-name="Path 862" d="M204.858-160.807l2.031-2.031-1.857-1.858,1.857-1.858-2.031-2.031L203-166.728v4.064Zm0,0" transform="translate(-68.693 -42.129)" fill="#e1ebf0"/>
      </g>
    </g>
  </g>
</svg>
