<svg xmlns="http://www.w3.org/2000/svg" width="14.608" height="29" viewBox="0 0 14.608 29">
  <g id="Group_548" data-name="Group 548" transform="translate(-169.16 -83.2)">
    <path id="Path_367" data-name="Path 367" d="M184.966,127.2l2.552,5.292a11.368,11.368,0,0,1,1.175,4.22V149.07s.2,2.847-2.115,2.847h-9.334c-2.35,0-2.115-2.847-2.115-2.847V136.711a11.368,11.368,0,0,1,1.175-4.22l2.552-5.292Z" transform="translate(-5.447 -40.2)" fill="#f4f5f7"/>
    <path id="Path_368" data-name="Path 368" d="M177.328,149.07V136.711a11.134,11.134,0,0,1,1.209-4.22l2.626-5.292h-2.176l-2.625,5.292a11.134,11.134,0,0,0-1.209,4.22V149.07s-.207,2.847,2.176,2.847H179.5C177.121,151.916,177.328,149.07,177.328,149.07Z" transform="translate(-5.47 -40.2)" fill="#fff"/>
    <rect id="Rectangle_130" data-name="Rectangle 130" width="13.357" height="6.46" transform="translate(169.855 97.258)" fill="#50c1e9"/>
    <rect id="Rectangle_131" data-name="Rectangle 131" width="1.9" height="6.46" transform="translate(169.855 97.258)" fill="#87d3e8"/>
    <path id="Path_369" data-name="Path 369" d="M209.977,91.224a1.59,1.59,0,0,1-1.557,1.624h-6.063a1.59,1.59,0,0,1-1.557-1.624h0a1.59,1.59,0,0,1,1.557-1.624h6.063a1.59,1.59,0,0,1,1.557,1.624Z" transform="translate(-28.907 -5.847)" fill="#ffce55"/>
    <path id="Path_370" data-name="Path 370" d="M202.818,91.224a1.622,1.622,0,0,1,1.624-1.624h-2.418a1.624,1.624,0,0,0,0,3.247h2.418A1.622,1.622,0,0,1,202.818,91.224Z" transform="translate(-28.638 -5.847)" fill="#ffde94"/>
    <g id="Group_547" data-name="Group 547" transform="translate(169.16 83.2)">
      <path id="Path_371" data-name="Path 371" d="M183.765,96.455a12.352,12.352,0,0,0-1.211-4.474l-2.254-4.71a2.078,2.078,0,0,0,1.346-1.951,2.132,2.132,0,0,0-2.12-2.119H173.4a2.132,2.132,0,0,0-2.119,2.119,2.093,2.093,0,0,0,1.346,1.951l-2.254,4.71a12.352,12.352,0,0,0-1.211,4.474V97.4h0v6.258h0V108.8a3.989,3.989,0,0,0,.807,2.658,2.36,2.36,0,0,0,1.817.74h9.353a2.312,2.312,0,0,0,1.817-.74,3.953,3.953,0,0,0,.807-2.624V96.455ZM172.292,85.319a1.063,1.063,0,0,1,1.077-1.077h6.157a1.077,1.077,0,1,1,0,2.153H173.4A1.092,1.092,0,0,1,172.292,85.319Zm-2.119,11.136a11.818,11.818,0,0,1,1.11-4.037l2.422-5.013h5.517l2.422,5.013a11.533,11.533,0,0,1,1.11,4v.437H170.173Zm0,1.48h12.549v5.248H170.173Zm12.044,12.885a1.421,1.421,0,0,1-1.077.4h-9.353a1.421,1.421,0,0,1-1.077-.4,3.077,3.077,0,0,1-.538-1.951v-4.676h12.549v4.71A2.728,2.728,0,0,1,182.217,110.821Z" transform="translate(-169.16 -83.2)" fill="#0b0b0b"/>
      <path id="Path_372" data-name="Path 372" d="M192.991,270l-.38,1.14c-.1.38-.242.829-.345,1.244h0c-.069-.415-.173-.829-.276-1.244l-.345-1.14h-1.036l-.207,3.455h.725l.069-1.313c.035-.415.035-.967.069-1.416h0c.069.449.207.933.311,1.347l.38,1.347h.622l.415-1.347c.138-.415.276-.9.38-1.347h0c0,.518,0,1,.035,1.416l.035,1.313h.76L194.027,270Z" transform="translate(-188.566 -254.344)" fill="#0b0b0b"/>
      <rect id="Rectangle_132" data-name="Rectangle 132" width="0.795" height="3.455" transform="translate(6.084 15.656)" fill="#0b0b0b"/>
      <path id="Path_373" data-name="Path 373" d="M259.195,270H258.4v3.455h2.176V272.8h-1.382Z" transform="translate(-250.929 -254.344)" fill="#0b0b0b"/>
      <path id="Path_374" data-name="Path 374" d="M291.564,270H290.6l-.795,1.14c-.069.138-.173.242-.242.38h0V270h-.76v3.455h.76v-1.14l.311-.38.829,1.485h.9l-1.209-1.969Z" transform="translate(-278.86 -254.344)" fill="#0b0b0b"/>
    </g>
  </g>
</svg>
