<svg xmlns="http://www.w3.org/2000/svg" xmlns:xlink="http://www.w3.org/1999/xlink" width="104.288" height="57.017" viewBox="0 0 104.288 57.017">
  <defs>
    <clipPath id="clip-path">
      <rect id="Rectangle_161" data-name="Rectangle 161" width="50" height="49" transform="translate(0 0.196)" fill="none"/>
    </clipPath>
    <clipPath id="clip-path-3">
      <rect id="Rectangle_160" data-name="Rectangle 160" width="41" height="31" fill="none"/>
    </clipPath>
  </defs>
  <g id="Group_661" data-name="Group 661" transform="translate(-88 -413)">
    <g id="Group_655" data-name="Group 655" transform="translate(-330 200.849)">
      <path id="Path_579" data-name="Path 579" d="M572.495,228.042c1.336,6.625-1.276,12.74-5.832,13.659s-9.333-3.708-10.668-10.332c-.995-4.935,2.728-10.1,4.693-12.408a2.2,2.2,0,0,1,2.674-.539c2.707,1.371,8.138,4.687,9.133,9.622Zm0,0" transform="translate(-93.731 -5.381)" fill="#a6d4a1"/>
      <path id="Path_580" data-name="Path 580" d="M606.521,228.043c-.995-4.935-6.427-8.251-9.133-9.622a2.2,2.2,0,0,0-2.415.281c2.831,1.513,7.661,4.716,8.593,9.341,1.306,6.48-1.164,12.471-5.536,13.59a6.052,6.052,0,0,0,2.659.069c4.557-.919,7.168-7.034,5.832-13.659Zm0,0" transform="translate(-127.758 -5.382)" fill="#9cc997"/>
      <path id="Path_581" data-name="Path 581" d="M660.126,303.9c-6.313,4.476-13.926,4.584-17,.242s-.456-11.49,5.857-15.966c4.7-3.334,11.834-1.836,15.167-.854a2.521,2.521,0,0,1,1.807,2.548c-.177,3.47-1.124,10.7-5.826,14.03Zm0,0" transform="translate(-168.491 -64.435)" fill="#a6d4a1"/>
      <path id="Path_582" data-name="Path 582" d="M710.355,287.32a26.562,26.562,0,0,0-9.108-1.146,29.678,29.678,0,0,1,6.153,1.146,2.521,2.521,0,0,1,1.807,2.548c-.177,3.47-1.124,10.7-5.826,14.029a18.263,18.263,0,0,1-8.389,3.342,16.782,16.782,0,0,0,11.344-3.342c4.7-3.334,5.649-10.56,5.826-14.029a2.521,2.521,0,0,0-1.807-2.548Zm0,0" transform="translate(-214.7 -64.437)" fill="#9cc997"/>
      <line id="Line_41" data-name="Line 41" y1="3.833" x2="2.547" transform="translate(470.526 220.553)" fill="#5ea570"/>
      <line id="Line_42" data-name="Line 42" x1="3.833" y1="2.547" transform="translate(466.693 221.839)" fill="#5ea570"/>
      <line id="Line_43" data-name="Line 43" y1="5.195" x2="0.884" transform="translate(480.011 230.694)" fill="#68b76a"/>
      <path id="Path_583" data-name="Path 583" d="M516.149,341.327a11.069,11.069,0,1,1-3.242-7.827,11.069,11.069,0,0,1,3.242,7.827Zm0,0" transform="translate(-39.996 -102.804)" fill="#8face0"/>
      <path id="Path_584" data-name="Path 584" d="M568.848,330.258a11.2,11.2,0,0,0-1.477.1,11.069,11.069,0,0,1,0,21.941,11.186,11.186,0,0,0,1.477.1,11.069,11.069,0,1,0,0-22.137Zm0,0" transform="translate(-103.765 -102.804)" fill="#688ed5"/>
      <g id="Group_656" data-name="Group 656" transform="translate(448 211.955)">
        <g id="Group_655-2" data-name="Group 655" transform="translate(0 0)" clip-path="url(#clip-path)">
          <path id="Path_585" data-name="Path 585" d="M561.939,366.669a2.513,2.513,0,0,1-.705,1.467,3.246,3.246,0,0,1-1.154,1.116,10.137,10.137,0,0,1-3.131,0,3.248,3.248,0,0,1-1.154-1.116,1.88,1.88,0,0,1,0-2.935,3.248,3.248,0,0,1,1.154-1.116,10.18,10.18,0,0,1,3.131,0,3.247,3.247,0,0,1,1.154,1.116,2.509,2.509,0,0,1,.705,1.467Zm0,0" transform="translate(-541.089 -344.046)" fill="#688ed5"/>
          <path id="Path_586" data-name="Path 586" d="M468.887,442.142a8.943,8.943,0,1,1-12.648,0,8.943,8.943,0,0,1,12.648,0Zm0,0" transform="translate(-452.885 -409.738)" fill="#8face0"/>
        </g>
      </g>
      <path id="Path_587" data-name="Path 587" d="M512.243,439.535a9.021,9.021,0,0,0-1.477.122,8.946,8.946,0,0,1,0,17.646,8.945,8.945,0,1,0,1.477-17.768Zm0,0" transform="translate(-54.56 -197.794)" fill="#688ed5"/>
      <line id="Line_44" data-name="Line 44" x2="5.195" y2="0.885" transform="translate(486.003 231.641)" fill="#68b76a"/>
      <line id="Line_45" data-name="Line 45" x2="5.195" y2="0.885" transform="translate(480.011 235.889)" fill="#68b76a"/>
      <line id="Line_46" data-name="Line 46" y1="5.195" x2="0.884" transform="translate(486.003 226.446)" fill="#68b76a"/>
      <path id="Path_589" data-name="Path 589" d="M595.243,423.565A11.069,11.069,0,1,1,584.174,412.5a11.069,11.069,0,0,1,11.069,11.069Zm0,0" transform="translate(-108.749 -174.29)" fill="#8face0"/>
      <path id="Path_590" data-name="Path 590" d="M658.454,420.131a11.072,11.072,0,0,0-12-7.556,11.07,11.07,0,0,1,1.935,21.5,11.185,11.185,0,0,1-1.941.443,11.074,11.074,0,0,0,12.009-14.388Zm0,0" transform="translate(-172.501 -174.272)" fill="#688ed5"/>
      <g id="Group_658" data-name="Group 658" transform="translate(448 211.955)">
        <g id="Group_657" data-name="Group 657" transform="translate(0 0)" clip-path="url(#clip-path)">
          <path id="Path_592" data-name="Path 592" d="M495.864,222.634a29.5,29.5,0,0,0-7.258-1.221,13.792,13.792,0,0,0-8.545,2.182c-.139.1-.276.2-.412.3-.046-.307-.1-.615-.161-.919a12.144,12.144,0,0,0-4.158-6.554,25.829,25.829,0,0,0-5.366-3.581,2.932,2.932,0,0,0-3.571.72,25.846,25.846,0,0,0-3.559,5.38,12.135,12.135,0,0,0-1.295,7.653c.07.351.153.7.243,1.047a11.711,11.711,0,0,0-3.852,1.948,11.9,11.9,0,0,0-4.189,6.1.739.739,0,0,0,1.419.412,10.406,10.406,0,0,1,3.665-5.338,10.332,10.332,0,0,1,16.534,7.164,11.8,11.8,0,0,0-10.555,6.659,9.684,9.684,0,0,0-9.66-2.786,10.325,10.325,0,0,1-.391-2.818.739.739,0,0,0-1.477,0,11.788,11.788,0,0,0,.474,3.314,9.683,9.683,0,1,0,12,14.205,11.807,11.807,0,0,0,20.535-2.135.739.739,0,0,0-1.359-.58A10.287,10.287,0,1,1,485.68,251a.739.739,0,0,0,1.466.182,11.834,11.834,0,0,0-1.633-7.586,19.87,19.87,0,0,0,6.55-3.074,13.8,13.8,0,0,0,4.886-7.342,29.485,29.485,0,0,0,1.25-7.253,3.251,3.251,0,0,0-2.336-3.294Zm-38.181,36.717a8.206,8.206,0,1,1,6.5-13.214,11.741,11.741,0,0,0,.01,7.241,11.864,11.864,0,0,0,.7,1.691,8.207,8.207,0,0,1-7.209,4.282Zm14.551-29.767L471.31,225l2.378-3.578a.739.739,0,1,0-1.231-.818l-1.56,2.348-.656-3.256a.739.739,0,1,0-1.448.292l.656,3.256-2.348-1.56a.739.739,0,1,0-.817,1.231l3.578,2.377.644,3.2a11.761,11.761,0,0,0-5.423-1.315,11.919,11.919,0,0,0-1.858.146c-.089-.337-.169-.678-.238-1.02-.948-4.7,2.853-9.809,4.531-11.784a1.459,1.459,0,0,1,1.777-.358c2.313,1.172,7.795,4.4,8.743,9.108.114.566.2,1.139.256,1.706,0,.006,0,.011,0,.017a18.087,18.087,0,0,0-4.54,5.981c-.141-.153-.287-.3-.437-.449a11.977,11.977,0,0,0-1.086-.938Zm24.489-3.731c-.456,8.946-4.009,12.4-5.516,13.465a18.144,18.144,0,0,1-6.615,2.976,11.878,11.878,0,0,0-6.107-3.959l1.7-1.206,4.894.833a.739.739,0,0,0,.248-1.456l-3.437-.585,4.288-3.04,4.894.833a.739.739,0,0,0,.248-1.457l-3.438-.585,3.314-2.349a.739.739,0,1,0-.855-1.205l-3.313,2.349.586-3.437a.739.739,0,0,0-1.457-.248l-.833,4.893-4.288,3.04.585-3.437a.739.739,0,1,0-1.457-.248l-.833,4.893-2.511,1.78a11.715,11.715,0,0,0-2.014-5.423,16.978,16.978,0,0,1,6.106-7.481c1.507-1.068,5.938-3.279,14.531-.748a1.778,1.778,0,0,1,1.277,1.8Zm0,0" transform="translate(-448 -212.414)"/>
        </g>
      </g>
      <path id="Path_593" data-name="Path 593" d="M550.4,363.81a3.49,3.49,0,0,0,1.34,1.205,3.413,3.413,0,0,0,1.517.19c.228-.007.459-.007.686,0,.122,0,.248.008.376.008a2.81,2.81,0,0,0,1.141-.2,3.5,3.5,0,0,0,1.34-1.206l.1-.135.012-.015a2.563,2.563,0,0,0,0-3.808l-.013-.016-.1-.135a3.491,3.491,0,0,0-1.34-1.205,3.421,3.421,0,0,0-1.517-.19c-.228.007-.459.007-.686,0a3.426,3.426,0,0,0-1.517.19A3.492,3.492,0,0,0,550.4,359.7l-.1.136-.012.016a2.563,2.563,0,0,0,0,3.808l.012.016c.035.044.069.089.1.135Zm1.052-3.054.012-.016.112-.146a2.277,2.277,0,0,1,.754-.746,2.349,2.349,0,0,1,.881-.067c.259.008.521.008.779,0a2.333,2.333,0,0,1,.88.068,2.276,2.276,0,0,1,.754.746l.111.146.012.016a1.2,1.2,0,0,1,0,2l-.012.015-.111.146a2.276,2.276,0,0,1-.754.746,2.332,2.332,0,0,1-.88.068c-.129,0-.26-.008-.39-.008s-.26,0-.39.008a2.337,2.337,0,0,1-.881-.068,2.278,2.278,0,0,1-.754-.746l-.112-.146-.012-.016a1.2,1.2,0,0,1,0-2Zm0,0" transform="translate(-88.176 -127.176)"/>
    </g>
    <g id="Group_659" data-name="Group 659" transform="translate(88 430.804)">
      <g id="Group_649" data-name="Group 649" transform="translate(0 0.196)">
        <g id="Group_648" data-name="Group 648" transform="translate(0 0)" clip-path="url(#clip-path-3)">
          <path id="Path_571" data-name="Path 571" d="M590.125,445.866c-.6,2.252,4.476,5.571,11.348,7.414s12.931,1.51,13.535-.742-4.477-5.571-11.348-7.413a30.656,30.656,0,0,0-9.117-1.164c-2.538.139-4.127.825-4.417,1.907Zm0,0" transform="translate(-589.162 -423.891)" fill="#cbe558"/>
        </g>
      </g>
      <path id="Path_572" data-name="Path 572" d="M640.622,301.24c-1.648,1.648,1.092,7.061,6.121,12.09s10.442,7.769,12.091,6.121-1.093-7.061-6.122-12.09A30.641,30.641,0,0,0,645.4,301.8c-2.268-1.148-3.986-1.348-4.778-.557Zm0,0" transform="translate(-638.74 -295.746)" fill="#cbe558"/>
      <g id="Group_651" data-name="Group 651" transform="translate(0.175 0)">
        <g id="Group_653" data-name="Group 653" transform="translate(0 0)">
          <path id="Path_573" data-name="Path 573" d="M455.473,283.2a14.354,14.354,0,1,0,14.353-14.354A14.353,14.353,0,0,0,455.473,283.2Zm0,0" transform="translate(-444.149 -267.22)" fill="#b8866b"/>
          <path id="Path_574" data-name="Path 574" d="M504.754,269.171c-3.964,6.865-2.849,14.93,2.491,18.012s12.881.017,16.845-6.848,2.848-14.93-2.491-18.012-12.881-.017-16.845,6.848Zm0,0" transform="translate(-491.419 -260.321)" fill="#fff"/>
          <path id="Path_575" data-name="Path 575" d="M552.638,300.163a6.329,6.329,0,0,1,2.9,4.817,13.007,13.007,0,0,1-7.5,12.984,5.809,5.809,0,0,1-8.522-4.92,13.007,13.007,0,0,1,7.5-12.984,6.329,6.329,0,0,1,5.621.1Zm0,0" transform="translate(-524.527 -294.579)" fill="#e8e7e9"/>
          <path id="Path_576" data-name="Path 576" d="M448.027,275.543a.8.8,0,0,1,.48-.537,22.578,22.578,0,0,1,8.716-1.537,22.8,22.8,0,0,1-1.964-1.75,22.38,22.38,0,0,1-6.346-12.536.8.8,0,0,1,.908-.908,22.473,22.473,0,0,1,10.422,4.48q.192-.368.4-.731a17.348,17.348,0,0,1,8.3-7.495,10.8,10.8,0,0,1,9.638.354l2.675,1.545a15.161,15.161,0,0,1-7.6,28.279,14.957,14.957,0,0,1-3.541-.427,22.569,22.569,0,0,1-21.936-8.034.8.8,0,0,1-.148-.7Zm2.66-15.491a20.784,20.784,0,0,0,5.7,10.541,21.255,21.255,0,0,0,1.832,1.632,16.984,16.984,0,0,1,1.328-7.985,20.869,20.869,0,0,0-8.859-4.187Zm22.905-4.881a10.775,10.775,0,0,0-4.052.837,16.593,16.593,0,0,0-9.66,16.732,9.244,9.244,0,0,0,4.342,7.006h0c4.95,2.857,12.017-.084,15.755-6.558s2.751-14.065-2.2-16.923a8.3,8.3,0,0,0-4.187-1.1Zm3.593,27.474a13.557,13.557,0,0,0,5.452-23.269,12.746,12.746,0,0,1,1.066,3.677,18.182,18.182,0,0,1-10.639,18.428,12.766,12.766,0,0,1-3.726.917,13.464,13.464,0,0,0,7.847.247Zm-16.834-.255a20.82,20.82,0,0,0,6.515.693c-.258-.13-.513-.266-.765-.411l-2.674-1.544h0l-.464-.268a.806.806,0,0,1-.172-.134,10.407,10.407,0,0,1-4-5.56,20.95,20.95,0,0,0-8.648.946,20.785,20.785,0,0,0,10.205,6.279Zm0,0" transform="translate(-448 -253.573)"/>
        </g>
      </g>
      <path id="Path_577" data-name="Path 577" d="M547.839,306.648a13.017,13.017,0,0,1-6.2,5.643,8.469,8.469,0,0,1-3.182.662,6.22,6.22,0,0,1-3.139-.814,7.1,7.1,0,0,1-3.292-5.4,13.016,13.016,0,0,1,1.788-8.189,14.191,14.191,0,0,1,2.931-3.6.8.8,0,1,1,1.05,1.2,12.606,12.606,0,0,0-2.6,3.2,11.42,11.42,0,0,0-1.59,7.173,5.022,5.022,0,0,0,7.432,4.291,12.214,12.214,0,0,0,7.007-12.137,5.554,5.554,0,0,0-2.51-4.235,4.5,4.5,0,0,0-1.775-.569.8.8,0,0,1,.172-1.586,6.079,6.079,0,0,1,2.4.773,7.1,7.1,0,0,1,3.292,5.4,13.019,13.019,0,0,1-1.789,8.189Zm0,0" transform="translate(-517.651 -288.168)"/>
      <path id="Path_578" data-name="Path 578" d="M613.766,299.215a.8.8,0,1,1,.564-.233.8.8,0,0,1-.564.233Zm0,0" transform="translate(-591.102 -292.938)"/>
    </g>
    <g id="Group_660" data-name="Group 660" transform="translate(143 438.825)">
      <path id="Path_561" data-name="Path 561" d="M345.747,171.386c6.4,2.232,10.812,6.573,10.812,9.25,0,2.7-4.5,7.1-10.99,9.312a11.811,11.811,0,0,1,.178-18.562Z" transform="translate(-308.311 -163.936)" fill="#97c2f7"/>
      <path id="Path_562" data-name="Path 562" d="M116.6,158a18.243,18.243,0,0,1,6.857-1.425,24.526,24.526,0,0,1,3.693.282A25.715,25.715,0,0,1,131.749,158a11.811,11.811,0,0,0-.178,18.562,25.2,25.2,0,0,1-8.111,1.364,16.5,16.5,0,0,1-2.835-.251,22.347,22.347,0,0,1-7.548-2.947,36.372,36.372,0,0,1-8.719-7.478S109.442,160.909,116.6,158Z" transform="translate(-94.313 -150.553)" fill="#e6f6ff"/>
      <g id="Group_646" data-name="Group 646" transform="translate(1.04 1.04)">
        <path id="Path_563" data-name="Path 563" d="M233.688,104.84a15.052,15.052,0,0,1,8.411,5.221,24.523,24.523,0,0,0-3.693-.282,18.242,18.242,0,0,0-6.857,1.425v-4.653A1.751,1.751,0,0,1,233.688,104.84Z" transform="translate(-210.298 -104.795)" fill="#d2e3f7"/>
        <path id="Path_564" data-name="Path 564" d="M202.479,348.109a14.544,14.544,0,0,1-5.288,2.95,1.755,1.755,0,0,1-2.259-1.68v-4.216A22.348,22.348,0,0,0,202.479,348.109Z" transform="translate(-177.206 -322.023)" fill="#d2e3f7"/>
        <path id="Path_565" data-name="Path 565" d="M17.461,177.2c2.486,2.486,2.349,6.567,2.349,6.567l-.034,0a.007.007,0,0,0-.006,0c-.052,0-.153,0-.294,0h-.013c-1.052-.008-4.254-.211-6.307-2.265-2.486-2.486-2.349-6.655-2.349-6.655S14.975,174.714,17.461,177.2Z" transform="translate(-10.804 -168.107)" fill="#d2e3f7"/>
        <path id="Path_566" data-name="Path 566" d="M19.809,267.492s.138,4.169-2.348,6.655-6.656,2.349-6.656,2.349-.137-4.169,2.349-6.656c2.055-2.055,5.256-2.317,6.307-2.346h.013c.141,0,.242,0,.294,0a.007.007,0,0,1,.006,0Z" transform="translate(-10.804 -251.829)" fill="#d2e3f7"/>
      </g>
      <path id="Path_567" data-name="Path 567" d="M419.39,256.8a1.04,1.04,0,0,0,1.04-1.04V255.3a1.04,1.04,0,1,0-2.08,0v.466A1.04,1.04,0,0,0,419.39,256.8Z" transform="translate(-378.077 -238.828)"/>
      <path id="Path_568" data-name="Path 568" d="M296.815,194.015a1.039,1.039,0,0,0,1.465-.125c.068-.081.139-.16.21-.235a1.04,1.04,0,0,0-1.508-1.432c-.1.105-.2.215-.293.327A1.04,1.04,0,0,0,296.815,194.015Z" transform="translate(-267.907 -182.474)"/>
      <path id="Path_569" data-name="Path 569" d="M278.668,230.745a1.04,1.04,0,0,0,.785-1.722,8.523,8.523,0,0,1-1.819-5.538,9.81,9.81,0,0,1,.621-3.487,1.04,1.04,0,0,0-1.941-.746,11.913,11.913,0,0,0-.759,4.233,10.613,10.613,0,0,0,2.328,6.9A1.037,1.037,0,0,0,278.668,230.745Z" transform="translate(-249.028 -206.591)"/>
      <path id="Path_570" data-name="Path 570" d="M0,119.735a1.04,1.04,0,0,0,1,1.005c.018,0,.074,0,.163,0,.855,0,4.751-.143,7.262-2.655a9.492,9.492,0,0,0,2.421-4.942,37.544,37.544,0,0,0,6.872,5.61v3.634a2.8,2.8,0,0,0,2.787,2.8,2.824,2.824,0,0,0,.81-.119,15.773,15.773,0,0,0,5.3-2.844,17.454,17.454,0,0,0,2.524.189,26.141,26.141,0,0,0,8.445-1.42l.005,0c6.446-2.2,11.689-6.814,11.689-10.294,0-1.66-1.191-3.637-3.354-5.568a24.683,24.683,0,0,0-8.139-4.658l-.006,0-.01,0a26.831,26.831,0,0,0-4.369-1.122,16.306,16.306,0,0,0-8.744-5.273,2.791,2.791,0,0,0-3.415,2.723v3.964a34.542,34.542,0,0,0-10.4,7.495,9.429,9.429,0,0,0-2.414-4.858c-2.773-2.773-7.238-2.658-7.425-2.652a1.04,1.04,0,0,0-1,1c-.006.189-.12,4.651,2.653,7.424a7.861,7.861,0,0,0,2.28,1.564,8.068,8.068,0,0,0-2.28,1.576C-.121,115.084-.007,119.546,0,119.735Zm20.724,3.339a.712.712,0,0,1-.634-.112.7.7,0,0,1-.287-.572v-2.447a23.755,23.755,0,0,0,4.1,1.673A13.1,13.1,0,0,1,20.723,123.074ZM47.2,110.695c0,1.956-3.688,5.916-9.734,8.132a11.16,11.16,0,0,1-3.593-7.9,11.38,11.38,0,0,1,3.742-8.309C43.573,104.845,47.2,108.772,47.2,110.695ZM23.6,96.228a.689.689,0,0,1,.593-.135,14.535,14.535,0,0,1,5.9,2.9q-.473-.018-.944-.018a18.611,18.611,0,0,0-5.818.976V96.791A.714.714,0,0,1,23.6,96.228Zm-.922,6.18.02-.008a17.2,17.2,0,0,1,6.448-1.341,23.559,23.559,0,0,1,3.537.27,24.457,24.457,0,0,1,2.684.566,13.588,13.588,0,0,0-3.567,9.033,13.358,13.358,0,0,0,3.442,8.6,23.821,23.821,0,0,1-6.1.8,15.537,15.537,0,0,1-2.655-.235,21.23,21.23,0,0,1-7.193-2.814,35.893,35.893,0,0,1-7.882-6.587A33.1,33.1,0,0,1,22.677,102.408Zm-20.543.464a8.109,8.109,0,0,1,4.826,1.991,8.054,8.054,0,0,1,1.989,4.761A7.89,7.89,0,0,1,4.123,107.7,8.154,8.154,0,0,1,2.133,102.871Zm6.817,8.919a8.109,8.109,0,0,1-1.991,4.826,8.148,8.148,0,0,1-4.825,1.989,8.157,8.157,0,0,1,1.989-4.826A8.158,8.158,0,0,1,8.95,111.791Z" transform="translate(0.003 -93.995)"/>
    </g>
  </g>
</svg>
