<svg xmlns="http://www.w3.org/2000/svg" width="28.046" height="29" viewBox="0 0 28.046 29">
  <g id="Group_678" data-name="Group 678" transform="translate(-511 -114)">
    <path id="Path_630" data-name="Path 630" d="M669.17,147.775a8.144,8.144,0,0,1-6.653-12.755,3.517,3.517,0,0,0,.31-3.421,6.929,6.929,0,0,1-.578-2.786,6.256,6.256,0,0,1,1.169-3.611,10.543,10.543,0,0,1,3.066-2.808c.11-.07.235-.157.368-.249.628-.436,1.41-2.52,2.377-2.52s1.749,2.084,2.377,2.52c.133.092.258.179.368.249a10.55,10.55,0,0,1,3.066,2.808,6.259,6.259,0,0,1,1.169,3.611,6.929,6.929,0,0,1-.578,2.786,3.518,3.518,0,0,0,.31,3.422,8.144,8.144,0,0,1-6.654,12.755h-.117Zm0,0" transform="translate(-138.751 -5.2)" fill="#f9c36e"/>
    <path id="Path_631" data-name="Path 631" d="M667.607,191.783a9.234,9.234,0,0,0-1.633-5.305,2.379,2.379,0,0,1-.2-2.315,8.068,8.068,0,0,0,.674-3.243,7.381,7.381,0,0,0-1.372-4.262q-.235-.341-.513-.67a8.609,8.609,0,0,0-1.141,1.321,6.259,6.259,0,0,0-1.169,3.611,6.928,6.928,0,0,0,.578,2.786,3.517,3.517,0,0,1-.31,3.422,8.131,8.131,0,0,0,2.167,11.357,9.268,9.268,0,0,0,2.923-6.7Zm0,0" transform="translate(-138.751 -57.307)" fill="#e7b467"/>
    <path id="Path_632" data-name="Path 632" d="M524.71,147.775a8.144,8.144,0,0,1-6.654-12.755,3.517,3.517,0,0,0,.31-3.422,6.928,6.928,0,0,1-.578-2.785,6.258,6.258,0,0,1,1.169-3.611,10.542,10.542,0,0,1,3.066-2.808c.11-.07.235-.157.368-.249.628-.436,1.41-2.52,2.377-2.52s1.749,2.084,2.377,2.52c.133.092.258.179.368.249a10.541,10.541,0,0,1,3.066,2.808,6.258,6.258,0,0,1,1.169,3.611,6.929,6.929,0,0,1-.578,2.786,3.516,3.516,0,0,0,.31,3.421,8.144,8.144,0,0,1-6.654,12.755h-.117Zm0,0" transform="translate(-5.2 -5.2)" fill="#fad59a"/>
    <path id="Path_633" data-name="Path 633" d="M524.711,216.05h.117a8.144,8.144,0,0,0,6.654-12.755,3.516,3.516,0,0,1-.31-3.421,6.934,6.934,0,0,0,.578-2.786,6.258,6.258,0,0,0-1.169-3.611s-.233,14.469-13.955,14.469a8.171,8.171,0,0,0,8.085,8.1Zm0,0" transform="translate(-5.201 -73.475)" fill="#f9c36e"/>
    <path id="Path_634" data-name="Path 634" d="M545.779,185.931h.047a6.427,6.427,0,0,0,5.252-10.065,5.224,5.224,0,0,1-.47-5.081,5.224,5.224,0,0,0,.435-2.1c0-1.848-1.157-3.52-3.439-4.97-.6-.382-1.265-.961-1.824-.961s-1.223.578-1.824.961c-2.282,1.451-3.439,3.123-3.439,4.97a5.225,5.225,0,0,0,.435,2.1,5.224,5.224,0,0,1-.47,5.081,6.427,6.427,0,0,0,5.252,10.065h.046Zm0,0" transform="translate(-26.211 -45.072)" fill="#9d6b6b"/>
    <path id="Path_635" data-name="Path 635" d="M586.133,330.276c0,2.528-1.537,4.577-3.433,4.577s-3.433-2.049-3.433-4.577S580.8,325.7,582.7,325.7s3.433,2.049,3.433,4.577Zm0,0" transform="translate(-63.112 -195.711)" fill="#d58956"/>
    <path id="Path_636" data-name="Path 636" d="M591.236,327.7a5.656,5.656,0,0,1,.625,2.633c0,2.528-1.537,4.577-3.433,4.577a2.634,2.634,0,0,1-.876-.151,3.285,3.285,0,0,0,2.807,1.944c1.9,0,3.433-2.049,3.433-4.577,0-2.124-1.085-3.91-2.556-4.426Zm0,0" transform="translate(-70.771 -197.56)" fill="#c27b45"/>
    <path id="Path_637" data-name="Path 637" d="M589.867,196.6c0,2.283-1.388,4.134-3.1,4.134s-3.1-1.851-3.1-4.134,1.388-4.134,3.1-4.134,3.1,1.851,3.1,4.134Zm0,0" transform="translate(-67.178 -72.539)" fill="#d58956"/>
    <path id="Path_638" data-name="Path 638" d="M593.825,196.863a5.169,5.169,0,0,1,.477,2.2c0,2.283-1.388,4.134-3.1,4.134a2.445,2.445,0,0,1-1.219-.332,3.029,3.029,0,0,0,2.624,1.932c1.712,0,3.1-1.851,3.1-4.134a4.337,4.337,0,0,0-1.882-3.8Zm0,0" transform="translate(-73.018 -76.605)" fill="#c27b45"/>
    <path id="Path_639" data-name="Path 639" d="M538.771,132.272a.425.425,0,0,0-.823.213,7.726,7.726,0,0,1-7.413,9.665h-.114a7.684,7.684,0,0,1-4.767-1.706,8.544,8.544,0,0,0,.975-10.865,3.1,3.1,0,0,1-.271-3.011,7.347,7.347,0,0,0,.614-2.955,6.677,6.677,0,0,0-1.244-3.852q-.077-.111-.159-.221a11.162,11.162,0,0,1,2.391-1.988c.111-.071.233-.155.382-.258a4.106,4.106,0,0,0,.884-1.1c.349-.535.876-1.343,1.251-1.343s.9.808,1.251,1.343a4.11,4.11,0,0,0,.883,1.1c.149.1.271.188.383.259a10.125,10.125,0,0,1,2.944,2.692,5.838,5.838,0,0,1,1.094,3.369,6.511,6.511,0,0,1-.543,2.616,3.939,3.939,0,0,0,.35,3.832,7.711,7.711,0,0,1,.41.665.425.425,0,0,0,.745-.409c-.138-.252-.292-.5-.455-.738a3.1,3.1,0,0,1-.271-3.011,7.355,7.355,0,0,0,.614-2.955,6.675,6.675,0,0,0-1.244-3.853,10.959,10.959,0,0,0-3.187-2.924c-.1-.063-.213-.142-.355-.24a4.181,4.181,0,0,1-.656-.867c-.528-.81-1.127-1.729-1.963-1.729s-1.435.918-1.963,1.729a4.187,4.187,0,0,1-.657.868c-.141.1-.255.176-.353.239a12.139,12.139,0,0,0-2.482,2.041,10.339,10.339,0,0,0-.876-.853.425.425,0,0,0-.557.641,8.581,8.581,0,0,1,1.44,1.579,5.84,5.84,0,0,1,1.094,3.369,6.51,6.51,0,0,1-.543,2.616,3.939,3.939,0,0,0,.35,3.832,7.719,7.719,0,0,1-6.305,12.089h-.112a7.719,7.719,0,0,1-6.307-12.089,3.939,3.939,0,0,0,.35-3.832,6.509,6.509,0,0,1-.543-2.616,5.841,5.841,0,0,1,1.094-3.369,10.129,10.129,0,0,1,2.945-2.692c.117-.074.245-.163.382-.258a4.108,4.108,0,0,0,.883-1.1c.349-.535.876-1.343,1.251-1.343s.9.808,1.251,1.343a4.107,4.107,0,0,0,.884,1.1c.11.076.214.149.312.213a.425.425,0,0,0,.467-.71c-.089-.059-.189-.128-.294-.2a4.158,4.158,0,0,1-.656-.867C521,114.918,520.4,114,519.568,114s-1.435.918-1.963,1.729a4.165,4.165,0,0,1-.658.868c-.129.089-.25.174-.353.239a10.963,10.963,0,0,0-3.188,2.925,6.675,6.675,0,0,0-1.244,3.853,7.352,7.352,0,0,0,.614,2.955,3.094,3.094,0,0,1-.271,3.011,8.569,8.569,0,0,0,7,13.421h.121a8.519,8.519,0,0,0,5.393-1.975,8.538,8.538,0,0,0,5.4,1.975h.12a8.576,8.576,0,0,0,8.232-10.728Zm0,0" transform="translate(0)"/>
    <path id="Path_640" data-name="Path 640" d="M789.794,192.968a.425.425,0,1,0-.85,0,.655.655,0,0,1-.655.655.425.425,0,1,0,0,.85,1.506,1.506,0,0,0,1.5-1.5Zm0,0" transform="translate(-255.956 -72.611)"/>
    <path id="Path_641" data-name="Path 641" d="M802.583,245.2a1.506,1.506,0,0,0,1.5-1.5.425.425,0,0,0-.85,0,.656.656,0,0,1-.655.655.425.425,0,1,0,0,.85Zm0,0" transform="translate(-269.17 -119.507)"/>
    <path id="Path_642" data-name="Path 642" d="M746.106,230.9a1.506,1.506,0,0,0,1.5-1.5.425.425,0,0,0-.85,0,.655.655,0,0,1-.655.655.425.425,0,0,0,0,.85Zm0,0" transform="translate(-216.958 -106.29)"/>
    <path id="Path_643" data-name="Path 643" d="M753.255,291.109a1.506,1.506,0,0,0,1.5-1.5.425.425,0,1,0-.85,0,.656.656,0,0,1-.655.655.425.425,0,1,0,0,.85Zm0,0" transform="translate(-223.567 -161.95)"/>
    <path id="Path_644" data-name="Path 644" d="M743.739,172.671a.425.425,0,0,0-.85,0,.655.655,0,0,1-.655.655.425.425,0,0,0,0,.85,1.506,1.506,0,0,0,1.5-1.5Zm0,0" transform="translate(-213.379 -53.847)"/>
    <path id="Path_645" data-name="Path 645" d="M546.267,163.485c0-2-1.223-3.8-3.636-5.329-.132-.084-.268-.179-.412-.279a2.172,2.172,0,0,0-3.28,0c-.144.1-.28.194-.412.279-2.413,1.533-3.637,3.326-3.637,5.329a5.644,5.644,0,0,0,.471,2.269,4.8,4.8,0,0,1-.431,4.67,6.852,6.852,0,0,0,5.6,10.731h.1a6.852,6.852,0,0,0,5.6-10.731,4.8,4.8,0,0,1-.431-4.67,5.644,5.644,0,0,0,.471-2.269Zm-1.249,1.93a5.645,5.645,0,0,0,.509,5.492,6,6,0,0,1-4.9,9.4h-.088a6.022,6.022,0,0,1-5.958-5.973,5.961,5.961,0,0,1,1.053-3.426,5.645,5.645,0,0,0,.509-5.492,4.8,4.8,0,0,1-.4-1.93c0-1.693,1.091-3.244,3.242-4.612.147-.093.3-.2.441-.3a1.417,1.417,0,0,1,2.311,0c.145.1.294.2.441.3,2.151,1.368,3.242,2.919,3.242,4.612a4.8,4.8,0,0,1-.4,1.93Zm0,0" transform="translate(-21.011 -39.872)"/>
    <path id="Path_646" data-name="Path 646" d="M577.5,320.074a3.249,3.249,0,0,0-2.1.8.425.425,0,0,0,.546.651,2.411,2.411,0,0,1,1.553-.6c1.659,0,3.008,1.863,3.008,4.153s-1.349,4.152-3.008,4.152-3.008-1.863-3.008-4.152a5.374,5.374,0,0,1,.413-2.093.425.425,0,0,0-.781-.334,6.233,6.233,0,0,0-.481,2.427,5.834,5.834,0,0,0,1.091,3.491,3.29,3.29,0,0,0,5.535,0,6.136,6.136,0,0,0,0-6.983,3.465,3.465,0,0,0-2.768-1.51Zm0,0" transform="translate(-57.912 -190.511)"/>
    <path id="Path_647" data-name="Path 647" d="M581.566,186.84c-1.944,0-3.526,2.045-3.526,4.559s1.582,4.559,3.526,4.559,3.526-2.045,3.526-4.559-1.582-4.559-3.526-4.559Zm0,8.269c-1.476,0-2.676-1.664-2.676-3.709s1.2-3.71,2.676-3.71,2.676,1.664,2.676,3.71-1.2,3.709-2.676,3.709Zm0,0" transform="translate(-61.977 -67.339)"/>
  </g>
</svg>
