<svg xmlns="http://www.w3.org/2000/svg" width="26.39" height="23.899" viewBox="0 0 26.39 23.899">
  <g id="Group_676" data-name="Group 676" transform="translate(-448 -225.995)">
    <path id="Path_612" data-name="Path 612" d="M723.814,231.794a1.459,1.459,0,0,1,1.817,1.325,13.91,13.91,0,0,1-2.465,7.713l-4.956-5.781a16.369,16.369,0,0,1,5.6-3.256Zm0,0" transform="translate(-251.641 -5.365)" fill="#ffb9b4"/>
    <path id="Path_613" data-name="Path 613" d="M737.7,259.049a16.361,16.361,0,0,1,5.5-3.167,1.4,1.4,0,0,1,.585-.025,14.187,14.187,0,0,1-2.471,7.41Zm0,0" transform="translate(-269.793 -27.8)" fill="#ff9a9f"/>
    <path id="Path_614" data-name="Path 614" d="M455.5,231.794a1.459,1.459,0,0,0-1.818,1.325,13.911,13.911,0,0,0,2.465,7.713l4.956-5.781a16.37,16.37,0,0,0-5.6-3.256Zm0,0" transform="translate(-5.286 -5.365)" fill="#ff9a9f"/>
    <path id="Path_615" data-name="Path 615" d="M459.806,259.049a16.361,16.361,0,0,0-5.5-3.167,1.4,1.4,0,0,0-.585-.025,14.187,14.187,0,0,0,2.471,7.41Zm0,0" transform="translate(-5.325 -27.8)" fill="#ff8086"/>
    <path id="Path_616" data-name="Path 616" d="M499.964,254.916a11.15,11.15,0,1,1-11.15-11.15,11.15,11.15,0,0,1,11.15,11.15Zm0,0" transform="translate(-27.625 -16.558)" fill="#ffb9b4"/>
    <path id="Path_617" data-name="Path 617" d="M577.708,433.764c0,2.053-2.219,3.716-4.956,3.716s-4.956-1.664-4.956-3.716,2.219-3.717,4.956-3.717a5.894,5.894,0,0,1,3.5,1.089,3.324,3.324,0,0,1,1.452,2.628Zm0,0" transform="translate(-111.564 -190.037)" fill="#ff9a9f"/>
    <path id="Path_618" data-name="Path 618" d="M489.81,302.816a11.147,11.147,0,0,1-8.365-18.519,11.148,11.148,0,1,0,15.734,15.734,11.106,11.106,0,0,1-7.369,2.786Zm0,0" transform="translate(-27.625 -54.304)" fill="#ff9a9f"/>
    <path id="Path_619" data-name="Path 619" d="M605.5,472.935a.826.826,0,1,1-.826-.826.826.826,0,0,1,.826.826Zm0,0" transform="translate(-145.141 -229.209)" fill="#bd4150"/>
    <path id="Path_620" data-name="Path 620" d="M563.441,376.791a.826.826,0,1,1-.826-.826.826.826,0,0,1,.826.826Zm0,0" transform="translate(-105.969 -139.672)" fill="#4b3f4e"/>
    <path id="Path_621" data-name="Path 621" d="M653.578,472.935a.826.826,0,1,1-.826-.826.826.826,0,0,1,.826.826Zm0,0" transform="translate(-189.911 -229.209)" fill="#bd4150"/>
    <path id="Path_622" data-name="Path 622" d="M695.64,376.791a.826.826,0,1,1-.826-.826.826.826,0,0,1,.826.826Zm0,0" transform="translate(-229.083 -139.672)" fill="#4b3f4e"/>
    <path id="Path_623" data-name="Path 623" d="M573.579,451.492c-2.737,0-4.956-1.664-4.956-3.717a3.01,3.01,0,0,1,.618-1.8A3.316,3.316,0,0,0,567.8,448.6c0,2.053,2.219,3.717,4.956,3.717a5.383,5.383,0,0,0,4.338-1.921,5.866,5.866,0,0,1-3.512,1.1Zm0,0" transform="translate(-111.564 -204.875)" fill="#ff8086"/>
    <path id="Path_624" data-name="Path 624" d="M571.391,426.181a.387.387,0,0,0-.033.546,2.7,2.7,0,0,1,.729,1.8c0,1.836-2.05,3.33-4.569,3.33s-4.569-1.494-4.569-3.33,2.05-3.33,4.569-3.33a5.764,5.764,0,0,1,2.6.594.387.387,0,0,0,.35-.69,6.541,6.541,0,0,0-2.947-.677,6.243,6.243,0,0,0-3.736,1.166,3.489,3.489,0,0,0,0,5.875,6.569,6.569,0,0,0,7.472,0,3.679,3.679,0,0,0,1.606-2.937,3.464,3.464,0,0,0-.923-2.312.386.386,0,0,0-.546-.033Zm0,0" transform="translate(-106.329 -184.799)"/>
    <path id="Path_625" data-name="Path 625" d="M598.227,467.7a1.212,1.212,0,1,0,1.213-1.213,1.214,1.214,0,0,0-1.213,1.213Zm1.652,0a.439.439,0,1,1-.439-.439.44.44,0,0,1,.439.439Zm0,0" transform="translate(-139.903 -223.97)"/>
    <path id="Path_626" data-name="Path 626" d="M558.589,371.552a1.213,1.213,0,1,0-1.212,1.213,1.214,1.214,0,0,0,1.212-1.213Zm-1.652,0a.439.439,0,1,1,.439.439.44.44,0,0,1-.439-.439Zm0,0" transform="translate(-100.73 -134.434)"/>
    <path id="Path_627" data-name="Path 627" d="M647.513,466.484a1.212,1.212,0,1,0,1.213,1.213,1.214,1.214,0,0,0-1.213-1.213Zm0,1.652a.439.439,0,1,1,.439-.439.44.44,0,0,1-.439.439Zm0,0" transform="translate(-184.673 -223.97)"/>
    <g id="Group_675" data-name="Group 675" transform="translate(448 226.167)">
      <g id="Group_677" data-name="Group 677" transform="translate(0 0)">
        <path id="Path_628" data-name="Path 628" d="M689.576,370.34a1.212,1.212,0,1,0,1.212,1.212,1.214,1.214,0,0,0-1.212-1.212Zm0,1.652a.439.439,0,1,1,.439-.439.44.44,0,0,1-.439.439Zm0,0" transform="translate(-671.844 -360.6)"/>
        <path id="Path_629" data-name="Path 629" d="M474.377,227.861a1.845,1.845,0,0,0-2.3-1.678,11.715,11.715,0,0,0-4.688,2.574,11.54,11.54,0,0,0-12.392-.009,11.719,11.719,0,0,0-4.678-2.565,1.845,1.845,0,0,0-2.3,1.678,12.272,12.272,0,0,0,2.125,7.292,11.538,11.538,0,1,0,22.1.016,12.275,12.275,0,0,0,2.135-7.308Zm-2.1-.931a1.074,1.074,0,0,1,1.318.848,1.8,1.8,0,0,0-.342.056,11.6,11.6,0,0,0-4.225,2.184,11.61,11.61,0,0,0-.978-.81,10.889,10.889,0,0,1,4.228-2.278Zm-23.048.173a1.053,1.053,0,0,1,.893-.173,10.881,10.881,0,0,1,4.219,2.271,11.727,11.727,0,0,0-.977.811,11.593,11.593,0,0,0-4.217-2.177,1.8,1.8,0,0,0-.342-.056,1.06,1.06,0,0,1,.425-.675Zm-.45,1.449a1.046,1.046,0,0,1,.169.03,10.793,10.793,0,0,1,3.862,1.978,11.5,11.5,0,0,0-2.341,3.659,11.555,11.555,0,0,1-1.689-5.667Zm12.414,20.7a10.764,10.764,0,1,1,8.022-17.94.387.387,0,0,0,.576-.516q-.1-.115-.209-.227a10.793,10.793,0,0,1,3.869-1.983,1.026,1.026,0,0,1,.169-.03,11.557,11.557,0,0,1-1.7,5.683,11.493,11.493,0,0,0-1.135-2.161.387.387,0,0,0-.643.43,10.765,10.765,0,0,1-8.95,16.744Zm0,0" transform="translate(-448 -226.293)"/>
      </g>
    </g>
  </g>
</svg>
