<svg xmlns="http://www.w3.org/2000/svg" xmlns:xlink="http://www.w3.org/1999/xlink" width="36" height="27" viewBox="0 0 36 27">
  <defs>
    <clipPath id="clip-path">
      <rect id="Rectangle_226" data-name="Rectangle 226" width="36" height="27" transform="translate(0 -0.485)" fill="none"/>
    </clipPath>
  </defs>
  <g id="Group_850" data-name="Group 850" transform="translate(-47 6.171)">
    <g id="Group_842" data-name="Group 842" transform="translate(47 -5.686)">
      <g id="Group_841" data-name="Group 841" transform="translate(0 0)" clip-path="url(#clip-path)">
        <path id="Path_826" data-name="Path 826" d="M53.19,11.971s-2.667-9.053,9.333-8.21S73.416-1,82.322.3c11.4,1.671,1.922,17.149-11.221,18.988-13.09,1.831-17-4.213-17.91-7.32Zm0,0" transform="translate(-52.346 0.313)" fill="#f2e7cb"/>
      </g>
    </g>
    <path id="Path_827" data-name="Path 827" d="M213.46,34.745c-3.51-1.927.738-2.659.738-2.659,5.437-.73,6.245-3.336,9.645-3.041,6,.522,2.758,6.858.263,7.813a10.314,10.314,0,0,1-5.856-.19,26.132,26.132,0,0,1-4.79-1.922Zm0,0" transform="translate(-148.629 -31.41)" fill="#ef3829"/>
    <g id="Group_844" data-name="Group 844" transform="translate(47 -5.686)">
      <g id="Group_843" data-name="Group 843" transform="translate(0 0)" clip-path="url(#clip-path)">
        <path id="Path_828" data-name="Path 828" d="M90.916,65.683s-5.7-.293-4.724,4.049,7.61,7.261,16.584,5.164-2.192-3.408-4.925-4.774-1.327-3.943-6.935-4.439Zm0,0" transform="translate(-82.187 -58.73)" fill="#ef3829"/>
        <path id="Path_829" data-name="Path 829" d="M87.422,50.27c0,5.238-7.294,12.927-16.315,14.189-13.089,1.831-17-4.213-17.91-7.321a7.912,7.912,0,0,1-.252-2.038v5.934a7.9,7.9,0,0,0,.252,2.08c.914,3.108,4.821,9.151,17.91,7.321,9.006-1.26,16.29-8.924,16.315-14.164v-6Zm0,0" transform="translate(-52.351 -44.856)" fill="#ef983b"/>
        <path id="Path_830" data-name="Path 830" d="M219.566,32.636a6.4,6.4,0,0,0,3.448-5.916c-.136-.972-.818-2.641-3.852-2.9a6.978,6.978,0,0,0-4.318,1.178,14.24,14.24,0,0,1-5.461,1.867c-.55.095-2.361.49-2.546,1.6-.174,1.034,1.2,1.786,1.645,2.032a26.509,26.509,0,0,0,4.9,1.967,13.066,13.066,0,0,0,3.6.529,8.22,8.22,0,0,0,2.588-.352Zm-5.9-1.181a25.951,25.951,0,0,1-4.684-1.879c-1.117-.614-1.117-.94-1.117-.943.035-.207.823-.59,1.673-.738a15.306,15.306,0,0,0,5.8-1.981,5.977,5.977,0,0,1,3.73-1.056c1.763.153,2.742.829,2.908,2.008a5.454,5.454,0,0,1-2.774,4.79,9.959,9.959,0,0,1-5.536-.2Zm0,0" transform="translate(-190.902 -21.012)" fill="#422002"/>
        <path id="Path_831" data-name="Path 831" d="M83.122.38c0-1.692-.727-4.608-5.541-5.314a17.281,17.281,0,0,0-2.813-.2.523.523,0,1,0,.009,1.046h.009a16.555,16.555,0,0,1,2.643.191c3.048.448,4.656,1.933,4.648,4.3-.017,5.15-7.341,12.463-15.867,13.655C52.581,15.96,49.5,9.216,48.875,7.1c-.009-.03-.891-3.157.875-5.345,1.395-1.729,4.057-2.467,7.919-2.2,6.394.449,9.171-.9,11.62-2.1A16.924,16.924,0,0,1,72.15-3.718a.523.523,0,1,0-.283-1.006,17.67,17.67,0,0,0-3.036,1.249C66.5-2.34,63.856-1.052,57.741-1.481c-4.223-.3-7.192.575-8.813,2.591A6.575,6.575,0,0,0,47.6,5.451v5.2c0,.186,0,.352.014.495H47.6a8.381,8.381,0,0,0,.274,2.231,9.361,9.361,0,0,0,.922,2.1.523.523,0,0,0,.9-.532,8.421,8.421,0,0,1-.819-1.868,7.476,7.476,0,0,1-.231-1.929V9.238c1.406,2.573,4.844,6.2,13.042,6.2a33.746,33.746,0,0,0,4.671-.346c7.217-1.01,13.352-5.965,15.721-10.751V6.383C82.051,11.53,74.726,18.839,66.21,20.03c-5.216.729-9.438.265-12.55-1.38a.523.523,0,1,0-.489.924,18.127,18.127,0,0,0,8.537,1.835,33.59,33.59,0,0,0,4.646-.344c9.254-1.295,16.739-9.088,16.767-14.68V.379Zm0,0" transform="translate(-47.529 5.032)" fill="#422002"/>
      </g>
    </g>
    <path id="Path_832" data-name="Path 832" d="M73.646,212.242a.523.523,0,0,0-.754.725c.248.258.514.508.793.745a.523.523,0,0,0,.677-.8,9.576,9.576,0,0,1-.716-.673Zm0,0" transform="translate(-23.173 -196.229)" fill="#422002"/>
    <path id="Path_833" data-name="Path 833" d="M93.352,64.917a4.1,4.1,0,0,1-1.7-1.67c-.77-1.165-1.643-2.488-5.424-2.822h-.02c-.131-.007-3.227-.144-4.669,1.566a3.441,3.441,0,0,0-.592,3.12,6.9,6.9,0,0,0,3.275,4.263A15.224,15.224,0,0,0,92.3,71.378a25.915,25.915,0,0,0,5.867-.71c2.744-.642,3.819-1.223,3.833-2.076.019-1.132-1.87-1.694-5.208-2.591a23.279,23.279,0,0,1-3.436-1.084Zm4.574,4.733C90.5,71.385,86.26,69.413,84.78,68.484a5.88,5.88,0,0,1-2.811-3.605,2.431,2.431,0,0,1,.37-2.215c.936-1.113,3-1.2,3.633-1.2.094,0,.156,0,.177,0,3.269.292,3.9,1.249,4.632,2.357a5.143,5.143,0,0,0,2.1,2.029,23.108,23.108,0,0,0,3.633,1.159c1.413.379,4,1.074,4.406,1.561-.132.139-.695.54-3,1.078Zm0,0" transform="translate(-30.454 -59.679)" fill="#422002"/>
    <path id="Path_834" data-name="Path 834" d="M154.262,224.621a19.626,19.626,0,0,0,4.105-.442.523.523,0,0,0-.219-1.022,16.333,16.333,0,0,1-7.4.011.523.523,0,1,0-.3,1,14.177,14.177,0,0,0,3.819.453Zm0,0" transform="translate(-92.803 -206.194)" fill="#422002"/>
    <path id="Path_835" data-name="Path 835" d="M251.118,211.067a.544.544,0,0,0,.135-.018,18.774,18.774,0,0,0,2.2-.729.523.523,0,1,0-.431-.953,18.113,18.113,0,0,1-2.044.672.523.523,0,0,0,.135,1.029Zm0,0" transform="translate(-183.316 -193.747)" fill="#422002"/>
  </g>
</svg>
