<svg xmlns="http://www.w3.org/2000/svg" width="24.494" height="29.446" viewBox="0 0 24.494 29.446">
  <g id="Group_666" data-name="Group 666" transform="translate(-480.022 -208)">
    <g id="Group_663" data-name="Group 663" transform="translate(480 208)">
      <g id="Group_667" data-name="Group 667" transform="translate(0 0)">
        <path id="Path_594" data-name="Path 594" d="M494.888,238.549c3.677-1.6.7-5.814,5.929-8.3,4.637-2.2,9.484-2.867,8.63-9.54-.849-6.63-12.738-10.237-19.749-3.581-7.3,6.934-3.191,25.069,5.19,21.417Zm0,0" transform="translate(-485.462 -213.163)" fill="#ff7b8b"/>
        <path id="Path_595" data-name="Path 595" d="M515.574,260.625c1.862-.807,1.044-6.669,5.869-8.362,4.453-1.562,8-3.492,7.773-7.112-.309-4.92-11.071-8.722-17.163-2.748-5.942,5.828-3.079,21.084,3.521,18.222Zm0,0" transform="translate(-506.605 -236.944)" fill="#ff4755"/>
        <path id="Path_596" data-name="Path 596" d="M500.82,336.84c-5.234,2.482-2.253,6.694-5.929,8.3-5.341,2.328-8.948-4.194-8.972-11.026h0l.009,2.84h0c.084,6.2,3.314,12.417,8.89,11.772,3.937-.456,3.727-7.244,6-8.628,4.071-2.477,8.759-2.827,8.723-8.208h0v-2.853c-.151,5.08-4.524,5.817-8.725,7.809Zm0,0" transform="translate(-485.464 -319.75)" fill="#994e37"/>
      </g>
    </g>
    <path id="Path_597" data-name="Path 597" d="M517.074,339.057c-2.978,2.042-2.064,8.173-6,8.628-3.1.359-5.478-1.406-6.991-4.112,1.457,3.276,4.025,5.55,7.508,5.147,3.937-.456,3.727-7.244,6-8.628,4.071-2.477,8.759-2.827,8.723-8.208h0v-2.853c0,7.172-5.312,7.332-9.242,10.026Zm0,0" transform="translate(-22.235 -111.75)" fill="#8c4534"/>
    <path id="Path_598" data-name="Path 598" d="M620.245,301.459c0,.866-1.076,1.567-2.4,1.567s-2.4-.7-2.4-1.567,1.076-1.568,2.4-1.568,2.4.7,2.4,1.568Zm0,0" transform="translate(-125.052 -84.845)" fill="#f4e9d3"/>
    <g id="Group_665" data-name="Group 665" transform="translate(480 208)">
      <g id="Group_668" data-name="Group 668" transform="translate(0 0)">
        <path id="Path_599" data-name="Path 599" d="M617.841,314.636a2.56,2.56,0,0,1-2.269-1.05,1.089,1.089,0,0,0-.134.518c0,.866,1.076,1.567,2.4,1.567s2.4-.7,2.4-1.567a1.089,1.089,0,0,0-.135-.518,2.56,2.56,0,0,1-2.269,1.05Zm0,0" transform="translate(-605.052 -305.49)" fill="#e5d6be"/>
        <path id="Path_600" data-name="Path 600" d="M526.876,215.495a7.108,7.108,0,0,0-2.067-4.061,11.24,11.24,0,0,0-4.251-2.621,14.536,14.536,0,0,0-7.161-.62,13.3,13.3,0,0,0-6.992,3.462,10.987,10.987,0,0,0-2.022,2.638.431.431,0,1,0,.754.419A10.135,10.135,0,0,1,507,212.281a12.439,12.439,0,0,1,6.541-3.237,13.651,13.651,0,0,1,6.729.582,10.373,10.373,0,0,1,3.925,2.412,6.256,6.256,0,0,1,1.827,3.566,6.341,6.341,0,0,1-1.042,5.046,9.793,9.793,0,0,1-3.908,2.563.431.431,0,1,0,.344.791c1.9-.829,3.676-1.761,4.687-3.453-.149,3.421-2.465,4.487-5.369,5.823a30.117,30.117,0,0,0-3.138,1.6c-1.059.644-1.6,2.185-2.174,3.816-.2.574-.411,1.168-.644,1.727a.431.431,0,0,0,.8.332c.243-.582.456-1.187.662-1.773.521-1.482,1.013-2.881,1.809-3.365a29.464,29.464,0,0,1,3.051-1.552c3.031-1.394,5.895-2.711,5.879-7,0-.009,0-.018,0-.027v-2.852a11.526,11.526,0,0,0-.1-1.787Zm0,0" transform="translate(-502.462 -208)"/>
        <path id="Path_601" data-name="Path 601" d="M492.426,326.788a.431.431,0,0,0-.6.125,3.048,3.048,0,0,1-2.257,1.558,5.813,5.813,0,0,1-4.671-1.486,11.137,11.137,0,0,1-3.08-5.31,9.85,9.85,0,0,0,2.017,2.95,5.521,5.521,0,0,0,2.726,1.5,4.87,4.87,0,0,0,.977.1,5.8,5.8,0,0,0,2.324-.517c1.881-.82,2.215-2.294,2.537-3.719a5.579,5.579,0,0,1,3.4-4.582c.612-.29,1.235-.557,1.818-.8a.431.431,0,1,0-.334-.8c-.592.248-1.226.519-1.853.817a6.441,6.441,0,0,0-3.876,5.171c-.313,1.382-.56,2.474-2.04,3.119a4.587,4.587,0,0,1-2.784.364,4.672,4.672,0,0,1-2.3-1.279,12.394,12.394,0,0,1-3.08-7,17.584,17.584,0,0,1,.873-8.855.431.431,0,0,0-.8-.315,17.685,17.685,0,0,0-1.136,6.719l.009,2.573a.379.379,0,0,0,0,.046c.068,4.327,1.61,8.33,4.029,10.456a6.737,6.737,0,0,0,4.514,1.743,7.133,7.133,0,0,0,.825-.048,3.9,3.9,0,0,0,2.881-1.944.431.431,0,0,0-.125-.6Zm0,0" transform="translate(-480.265 -299.931)"/>
      </g>
    </g>
    <path id="Path_602" data-name="Path 602" d="M612.663,298.26c1.59,0,2.835-.878,2.835-2s-1.245-2-2.835-2-2.835.878-2.835,2,1.245,2,2.835,2Zm0-3.135c1.051,0,1.972.531,1.972,1.136s-.921,1.136-1.972,1.136-1.972-.531-1.972-1.136.922-1.136,1.972-1.136Zm0,0" transform="translate(-119.873 -79.647)"/>
  </g>
</svg>
