<svg xmlns="http://www.w3.org/2000/svg" width="16.425" height="16.437" viewBox="0 0 16.425 16.437">
  <g id="Group_749" data-name="Group 749" transform="translate(-16 -15.678)">
    <path id="Path_728" data-name="Path 728" d="M20.38,20.617H17.905a7.081,7.081,0,0,1,13.129,1.248l1.051-.312a8.212,8.212,0,0,0-14.722-2.19,2.233,2.233,0,0,0-.268.854V17.332H16v4.38h4.38Z" fill="#a4afc1"/>
    <path id="Path_729" data-name="Path 729" d="M37.625,315.673v1.1H40.1a7.081,7.081,0,0,1-13.129-1.248l-1.051.312a8.212,8.212,0,0,0,14.815,2.031,1.505,1.505,0,0,0,.175-.7v2.885h1.095v-4.38Z" transform="translate(-9.581 -289.582)" fill="#a4afc1"/>
  </g>
</svg>
