<svg xmlns="http://www.w3.org/2000/svg" width="27" height="27" viewBox="0 0 27 27">
  <g id="Group_573" data-name="Group 573" transform="translate(-448 -208)">
    <path id="Path_459" data-name="Path 459" d="M483.34,296.635a.562.562,0,0,0-.835.044,11.245,11.245,0,0,0,15.816,15.816.562.562,0,0,0,.044-.835Zm7.91,17.24a10.137,10.137,0,0,1-10.125-10.125A10,10,0,0,1,483,297.885L497.114,312a10,10,0,0,1-5.864,1.874Zm0,0" transform="translate(-29.75 -82.249)" fill="#a4afc1"/>
    <path id="Path_460" data-name="Path 460" d="M461.5,208A13.5,13.5,0,1,0,475,221.5,13.515,13.515,0,0,0,461.5,208Zm0,25.875A12.375,12.375,0,1,1,473.875,221.5,12.389,12.389,0,0,1,461.5,233.875Zm0,0" fill="#a4afc1"/>
    <path id="Path_461" data-name="Path 461" d="M543.746,240a11.273,11.273,0,0,0-7.071,2.5.562.562,0,0,0-.044.835l15.025,15.025a.561.561,0,0,0,.4.165h.03a.563.563,0,0,0,.408-.208A11.245,11.245,0,0,0,543.746,240ZM552,257.114,537.882,243a10,10,0,0,1,5.864-1.874,10.137,10.137,0,0,1,10.125,10.125A9.995,9.995,0,0,1,552,257.114Zm0,0" transform="translate(-82.246 -29.75)" fill="#a4afc1"/>
  </g>
</svg>
