<svg xmlns="http://www.w3.org/2000/svg" width="30.698" height="28.625" viewBox="0 0 30.698 28.625">
  <g id="Group_685" data-name="Group 685" transform="translate(-448 -219.959)">
    <path id="Path_668" data-name="Path 668" d="M665.767,335.867h5.546a7.24,7.24,0,0,1,1.325,14.358l-2.821.525-1.2-3.1,3.35-2.047a1.691,1.691,0,0,0-.882-3.134H665.7Zm0,0" transform="translate(-200.296 -106.722)" fill="#fd7e42"/>
    <path id="Path_669" data-name="Path 669" d="M717.012,346.418a7.24,7.24,0,0,1-3.467,12.545l-1.865.347.442,1.148,2.821-.525a7.241,7.241,0,0,0,2.069-13.515Zm0,0" transform="translate(-242.601 -116.43)" fill="#fc5327"/>
    <path id="Path_670" data-name="Path 670" d="M738.163,339.359c.638.22,1.636-.968,2.3-2.7a7.194,7.194,0,0,0-2.514-.616c-.472,1.676-.4,3.1.212,3.316Zm0,0" transform="translate(-266.489 -106.884)" fill="#fc5327"/>
    <path id="Path_671" data-name="Path 671" d="M783.846,372.883c-1.539,1.06-2.47,2.321-2.1,2.892.347.54,1.734.28,3.238-.56a7.212,7.212,0,0,0-1.135-2.332Zm0,0" transform="translate(-306.99 -140.779)" fill="#fc5327"/>
    <path id="Path_672" data-name="Path 672" d="M785.969,448.875c-1.593-.464-2.939-.411-3.158.174-.207.552.654,1.406,2.016,2.087a7.239,7.239,0,0,0,1.142-2.262Zm0,0" transform="translate(-308.018 -210.411)" fill="#fc5327"/>
    <path id="Path_673" data-name="Path 673" d="M802.169,375.753a8.545,8.545,0,0,0,1.146-.538,7.213,7.213,0,0,0-1.135-2.332c-.209.143-.405.291-.59.439a7.2,7.2,0,0,1,.579,2.431Zm0,0" transform="translate(-325.323 -140.779)" fill="#ed4322"/>
    <path id="Path_674" data-name="Path 674" d="M791.474,448.672a7.253,7.253,0,0,1-.935,1.634,6.608,6.608,0,0,0,1.426.93,7.236,7.236,0,0,0,1.142-2.262,7.574,7.574,0,0,0-1.634-.3Zm0,0" transform="translate(-315.156 -210.509)" fill="#ed4322"/>
    <path id="Path_675" data-name="Path 675" d="M614.814,471.859l-6.192,1.276a.624.624,0,0,0,.145,1.235l3.029-.095a.131.131,0,0,1,.071.243l-2.789,1.646a.592.592,0,0,0,.4,1.093l3.19-.559a.131.131,0,0,1,.1.231l-2.365,1.895a.624.624,0,0,0,.692,1.034l5.537-3.051a2.155,2.155,0,0,0,.982-2.633l-.351-.951a2.155,2.155,0,0,0-2.456-1.365Zm0,0" transform="translate(-147.323 -231.801)" fill="#fd7e42"/>
    <path id="Path_676" data-name="Path 676" d="M634.065,474.2l-.351-.951a2.155,2.155,0,0,0-1.929-1.407l.045.123a2.154,2.154,0,0,1-.982,2.633L626,477.273l3.118-.546a.131.131,0,0,1,.1.231l-2.364,1.895a.624.624,0,0,0,.691,1.034l5.538-3.051a2.155,2.155,0,0,0,.982-2.633Zm0,0" transform="translate(-163.767 -231.829)" fill="#fc5327"/>
    <path id="Path_677" data-name="Path 677" d="M515.423,321.641c0,2.7-.278,4.89-2.978,4.89s-12.3-2.189-12.3-4.89,9.6-4.891,12.3-4.891,2.978,2.19,2.978,4.891Zm0,0" transform="translate(-47.976 -89.133)" fill="#fd7e42"/>
    <path id="Path_678" data-name="Path 678" d="M514.51,316.762a10.921,10.921,0,0,1,.287,2.945c0,2.7-.278,4.89-2.978,4.89a30.217,30.217,0,0,1-9.463-2.308c1.317,2.4,9.638,4.253,12.123,4.253,2.7,0,2.979-2.189,2.979-4.891s-.276-4.872-2.947-4.89Zm0,0" transform="translate(-50.01 -89.144)" fill="#fc5327"/>
    <path id="Path_679" data-name="Path 679" d="M553.123,358.381a1.19,1.19,0,1,1-1.19-1.19,1.191,1.191,0,0,1,1.19,1.19Zm0,0" transform="translate(-94.529 -126.341)" fill="#554e57"/>
    <g id="Group_684" data-name="Group 684" transform="translate(448 219.625)">
      <g id="Group_686" data-name="Group 686" transform="translate(0 0)">
        <path id="Path_680" data-name="Path 680" d="M552.839,357.809a1.189,1.189,0,0,1-1.48,1.479,1.19,1.19,0,1,0,1.48-1.479Zm0,0" transform="translate(-543.096 -346.535)" fill="#453e43"/>
        <path id="Path_681" data-name="Path 681" d="M477.173,242a7.816,7.816,0,0,0,1.254-6.664s0-.009,0-.013a7.631,7.631,0,0,0-1.206-2.478.407.407,0,0,0-.033-.039,7.721,7.721,0,0,0-6.168-3.1H467.3a2.932,2.932,0,0,0-2.827-1.528,19.353,19.353,0,0,0-3.344.432.45.45,0,1,0,.176.882,18.793,18.793,0,0,1,3.169-.414c2.137,0,2.529,1.5,2.529,4.441s-.391,4.441-2.529,4.441a29.052,29.052,0,0,1-7.025-1.411c-3.022-.977-4.825-2.11-4.825-3.03,0-.556.694-1.221,1.954-1.875a23.926,23.926,0,0,1,4.644-1.672.45.45,0,1,0-.228-.87,24.781,24.781,0,0,0-4.831,1.743c-1.619.839-2.439,1.738-2.439,2.673a1.8,1.8,0,0,0,.285.945,3.425,3.425,0,0,1-2.261-2.346c-.183-1.192.747-2.559,2.551-3.752a19.42,19.42,0,0,1,7.585-2.685c4.554-.7,8.868-.04,10.735,1.639a.45.45,0,0,0,.6-.669c-2.089-1.878-6.592-2.608-11.473-1.859a21.868,21.868,0,0,0-6.7,2.094,23.068,23.068,0,0,1,3.19-2.252c3.972-2.335,8.223-3.32,10.579-2.452a.45.45,0,1,0,.311-.844c-2.635-.971-7.089.018-11.346,2.52a20.33,20.33,0,0,0-6.335,5.564c-1.465,2.107-1.826,4.024-1.018,5.4.69,1.173,2.153,1.792,4.14,1.792a11.971,11.971,0,0,0,2.055-.191,21.921,21.921,0,0,0,2.55.983,29.538,29.538,0,0,0,7.3,1.454,3.315,3.315,0,0,0,2.053-.6,3.219,3.219,0,0,0,.19,1.046.443.443,0,0,0,.588.243.45.45,0,0,0,.243-.588,3.03,3.03,0,0,1,0-1.754h1a3.677,3.677,0,0,0-.184,1.962.435.435,0,0,0,.543.33.45.45,0,0,0,.33-.543,3.033,3.033,0,0,1,.278-1.749h.99a3.907,3.907,0,0,0-1.293,2.128.451.451,0,0,0,.378.513.468.468,0,0,0,.512-.376,3.272,3.272,0,0,1,1.5-1.976,1.24,1.24,0,0,1-.148,2.011l-2.265,1.384a2.6,2.6,0,0,0-1.776-.261l-6.193,1.276a1.074,1.074,0,0,0,.25,2.125l1.786-.056-1.718,1.014a1.042,1.042,0,0,0,.71,1.923l1.965-.344-1.394,1.117a1.074,1.074,0,0,0,1.19,1.778l2.694-1.484a.45.45,0,1,0-.434-.788l-2.694,1.484c-.159.087-.371-.146-.193-.289l2.365-1.895a.58.58,0,0,0-.463-1.025l-3.19.559q-.268-.051-.1-.263l2.789-1.646a.58.58,0,0,0-.313-1.08l-3.028.094c-.229.01-.217-.309-.041-.345l6.192-1.276a1.7,1.7,0,0,1,1.944,1.08l.351.951a1.694,1.694,0,0,1-.777,2.083l-.945.521a.45.45,0,0,0,.434.788l.945-.521a2.6,2.6,0,0,0,1.078-1.118l1.812-.337A7.677,7.677,0,0,0,477.169,242l0-.006ZM449.2,234.358a2.51,2.51,0,0,1-.252-1.712c.4,1.326,1.752,2.4,3.821,3.056-1.746.038-3.033-.431-3.569-1.344Zm22.6-3.714a6.859,6.859,0,0,1,.75.129,6.755,6.755,0,0,1,.838.253c-.648,1.485-1.344,2.031-1.543,2.031a.077.077,0,0,1-.025,0c-.144-.05-.39-.862-.02-2.41Zm.459,13.421-1.382.257a2.62,2.62,0,0,0-.156-1.1l-.351-.951a2.629,2.629,0,0,0-.455-.785l2-1.22a2.141,2.141,0,0,0-1.116-3.967h-3.128a12.483,12.483,0,0,0,.23-2.787,11.888,11.888,0,0,0-.26-2.913h3.254c-.312,1.427-.3,2.98.637,3.305a.943.943,0,0,0,.311.052c.868,0,1.761-1.178,2.37-2.56a6.832,6.832,0,0,1,2,1.624c-.19.144-.373.292-.543.443a.45.45,0,1,0,.6.674q.227-.2.48-.393a6.776,6.776,0,0,1,.708,1.474c-1.4.712-2.239.665-2.32.538a.261.261,0,0,1,.007-.162.45.45,0,1,0-.873-.219,1.07,1.07,0,0,0,.109.868,1.211,1.211,0,0,0,1.092.488,5.561,5.561,0,0,0,2.218-.626,6.8,6.8,0,0,1-.052,2.814c-1.423-.343-2.916-.352-3.261.566-.312.831.627,1.731,1.746,2.383a6.776,6.776,0,0,1-3.859,2.2Zm4.411-2.916a5.12,5.12,0,0,1-1.136-.824c-.563-.576-.131-.716.513-.716a5.986,5.986,0,0,1,1.324.173,6.751,6.751,0,0,1-.7,1.367Zm0,0" transform="translate(-448 -220.629)"/>
      </g>
    </g>
    <path id="Path_682" data-name="Path 682" d="M545.113,353.206a1.64,1.64,0,1,0,1.64-1.64,1.642,1.642,0,0,0-1.64,1.64Zm2.381,0a.741.741,0,1,1-.741-.741.741.741,0,0,1,.741.741Zm0,0" transform="translate(-89.35 -121.166)"/>
  </g>
</svg>
