<svg xmlns="http://www.w3.org/2000/svg" xmlns:xlink="http://www.w3.org/1999/xlink" width="39.645" height="39.645" viewBox="0 0 39.645 39.645">
  <defs>
    <linearGradient id="linear-gradient" x1="-0.136" y1="1.314" x2="-0.103" y2="1.299" gradientUnits="objectBoundingBox">
      <stop offset="0" stop-color="#fff" stop-opacity="0.2"/>
      <stop offset="1" stop-color="#fff" stop-opacity="0"/>
    </linearGradient>
  </defs>
  <g id="Group_682" data-name="Group 682" transform="translate(19.822 -30.17) rotate(45)">
    <path id="Path_661" data-name="Path 661" d="M48.059,23.046a.639.639,0,0,0-.406-.406,28.007,28.007,0,0,0-5.767-1.3,7.634,7.634,0,0,0-7.332,4.994,3.254,3.254,0,0,1-1.92,1.879,7.661,7.661,0,0,0-4.425,4.426,3.257,3.257,0,0,1-1.88,1.921,7.655,7.655,0,0,0-4.994,7.329,27.5,27.5,0,0,0,1.32,5.759.637.637,0,0,0,.4.4,27.5,27.5,0,0,0,5.756,1.32l.163,0a7.656,7.656,0,0,0,7.169-5,3.254,3.254,0,0,1,1.92-1.879,7.661,7.661,0,0,0,4.425-4.426,3.257,3.257,0,0,1,1.88-1.921,7.655,7.655,0,0,0,4.994-7.329A27.933,27.933,0,0,0,48.059,23.046Z" transform="translate(0)" fill="#303c42"/>
    <path id="Path_662" data-name="Path 662" d="M63.979,55a4.524,4.524,0,0,0-2.627,2.661,6.389,6.389,0,0,1-3.688,3.689A4.526,4.526,0,0,0,55,63.972a6.331,6.331,0,0,1-6.11,4.162,24.508,24.508,0,0,1-5.077-1.156A24.544,24.544,0,0,1,42.66,61.9a6.38,6.38,0,0,1,4.162-6.107,4.524,4.524,0,0,0,2.627-2.661,6.389,6.389,0,0,1,3.688-3.689A4.526,4.526,0,0,0,55.8,46.816a6.368,6.368,0,0,1,6.11-4.162A24.942,24.942,0,0,1,67,43.8a24.98,24.98,0,0,1,1.144,5.091A6.38,6.38,0,0,1,63.979,55Z" transform="translate(-20.051 -20.044)" fill="#d3df44"/>
    <path id="Path_663" data-name="Path 663" d="M77.921,61.215l-.128-.039a17.388,17.388,0,0,1,.687,3.538,6.38,6.38,0,0,1-4.162,6.107,4.524,4.524,0,0,0-2.627,2.661A6.389,6.389,0,0,1,68,77.171,4.526,4.526,0,0,0,65.341,79.8a6.331,6.331,0,0,1-6.11,4.162,23.756,23.756,0,0,1-4.957-1.118c.183.656.359,1.226.464,1.555a24.508,24.508,0,0,0,5.077,1.156,6.331,6.331,0,0,0,6.11-4.162,4.526,4.526,0,0,1,2.662-2.627,6.389,6.389,0,0,0,3.688-3.689A4.523,4.523,0,0,1,74.9,72.414a6.38,6.38,0,0,0,4.162-6.107A24.982,24.982,0,0,0,77.921,61.215Z" transform="translate(-30.974 -37.463)" opacity="0.1" style="isolation: isolate"/>
    <circle id="Ellipse_45" data-name="Ellipse 45" cx="3.823" cy="3.823" r="3.823" transform="translate(31.527 31.527)" fill="#303c42"/>
    <circle id="Ellipse_46" data-name="Ellipse 46" cx="2.548" cy="2.548" r="2.548" transform="translate(32.802 32.802)" fill="#ffce34"/>
    <circle id="Ellipse_47" data-name="Ellipse 47" cx="3.823" cy="3.823" r="3.823" transform="translate(25.156 37.899)" fill="#303c42"/>
    <circle id="Ellipse_48" data-name="Ellipse 48" cx="2.548" cy="2.548" r="2.548" transform="translate(26.431 39.173)" fill="#ffce34"/>
    <circle id="Ellipse_49" data-name="Ellipse 49" cx="3.823" cy="3.823" r="3.823" transform="translate(37.899 25.156)" fill="#303c42"/>
    <circle id="Ellipse_50" data-name="Ellipse 50" cx="2.548" cy="2.548" r="2.548" transform="translate(39.173 26.431)" fill="#ffce34"/>
    <path id="Path_664" data-name="Path 664" d="M322.542,140.578a2.546,2.546,0,0,1-2.458-1.911,2.516,2.516,0,0,0-.091.637,2.548,2.548,0,1,0,5.1,0,2.516,2.516,0,0,0-.09-.637A2.546,2.546,0,0,1,322.542,140.578Z" transform="translate(-280.82 -110.325)" opacity="0.1" style="isolation: isolate"/>
    <path id="Path_665" data-name="Path 665" d="M215.879,247.241a2.546,2.546,0,0,1-2.458-1.911,2.518,2.518,0,0,0-.09.637,2.548,2.548,0,0,0,5.1,0,2.516,2.516,0,0,0-.09-.637A2.546,2.546,0,0,1,215.879,247.241Z" transform="translate(-180.529 -210.617)" opacity="0.1" style="isolation: isolate"/>
    <path id="Path_666" data-name="Path 666" d="M109.215,353.9a2.546,2.546,0,0,1-2.458-1.911,2.516,2.516,0,0,0-.09.637,2.548,2.548,0,1,0,5.1,0,2.517,2.517,0,0,0-.09-.637A2.546,2.546,0,0,1,109.215,353.9Z" transform="translate(-80.236 -310.909)" opacity="0.1" style="isolation: isolate"/>
    <path id="Path_667" data-name="Path 667" d="M48.059,23.046a.639.639,0,0,0-.406-.406,28.007,28.007,0,0,0-5.767-1.3,7.634,7.634,0,0,0-7.332,4.994,3.254,3.254,0,0,1-1.92,1.879,7.661,7.661,0,0,0-4.425,4.426,3.257,3.257,0,0,1-1.88,1.921,7.655,7.655,0,0,0-4.994,7.329,27.5,27.5,0,0,0,1.32,5.759.637.637,0,0,0,.4.4,27.5,27.5,0,0,0,5.756,1.32l.163,0a7.656,7.656,0,0,0,7.169-5,3.254,3.254,0,0,1,1.92-1.879,7.661,7.661,0,0,0,4.425-4.426,3.257,3.257,0,0,1,1.88-1.921,7.655,7.655,0,0,0,4.994-7.329A27.933,27.933,0,0,0,48.059,23.046Z" transform="translate(0)" fill="url(#linear-gradient)"/>
  </g>
</svg>
