<svg xmlns="http://www.w3.org/2000/svg" width="30.147" height="30.205" viewBox="0 0 30.147 30.205">
  <g id="Group_689" data-name="Group 689" transform="translate(-454.02 -213.959)">
    <path id="Path_683" data-name="Path 683" d="M696.919,222.919v.973A2.922,2.922,0,0,1,694,220.973V220a2.922,2.922,0,0,1,2.919,2.919Zm0,0" transform="translate(-220.537 -5.554)" fill="#b4dd7f"/>
    <path id="Path_684" data-name="Path 684" d="M732.919,232h1.946a2.922,2.922,0,0,1-2.919,2.919H730A2.922,2.922,0,0,1,732.919,232Zm0,0" transform="translate(-253.618 -16.581)" fill="#b4dd7f"/>
    <path id="Path_685" data-name="Path 685" d="M575.46,238s5.61.535,8.515,4.175a12.894,12.894,0,0,0-3.124,4.043,15.186,15.186,0,0,0-1.5,6.7c-2.72-1.051-4.924-3.216-5.294-5.483a3.9,3.9,0,0,1-.058-.672c0-3.406,1.46-4.866,1.46-8.758Zm0,0" transform="translate(-110.269 -22.095)" fill="#b4dd7f"/>
    <g id="Group_688" data-name="Group 688" transform="translate(454 214.667)">
      <g id="Group_690" data-name="Group 690" transform="translate(0 0)">
        <path id="Path_686" data-name="Path 686" d="M647.3,268s7.3,2.919,7.3,12.651-7.3,12.651-7.3,12.651a12.318,12.318,0,0,1-5.8-5.785,15.23,15.23,0,0,1-1.5-6.865v-.17a15.185,15.185,0,0,1,1.5-6.7,12.894,12.894,0,0,1,3.124-4.043A10.666,10.666,0,0,1,647.3,268Zm0,0" transform="translate(-624.916 -264.329)" fill="#cf9e76"/>
        <path id="Path_687" data-name="Path 687" d="M476.1,366.8c-.35.423-.735.842-1.153,1.265-6.949,6.943-14.242,3.819-14.242,3.819s-3.124-7.293,3.819-14.242a15.976,15.976,0,0,1,4.778-3.362h0c.37,2.267,2.574,4.433,5.294,5.483v.171a15.231,15.231,0,0,0,1.5,6.865Zm0,0" transform="translate(-459.513 -343.613)" fill="#cf9e76"/>
        <path id="Path_688" data-name="Path 688" d="M478.431,218.866h.129a3.41,3.41,0,0,0,3.406-3.406v-.487h-2.433a3.4,3.4,0,0,0-2.644,1.263A3.409,3.409,0,0,0,473.694,214h-.487v1.46a3.409,3.409,0,0,0,2.031,3.114,12.931,12.931,0,0,0-1.229.879c-3.061-3.431-8.311-3.968-8.54-3.99l-.533-.051v.535a15.1,15.1,0,0,1-.747,4.555,14.175,14.175,0,0,0-.712,4.2c0,.126.01.253.021.38a16.731,16.731,0,0,0-4.6,3.312c-7.1,7.1-3.956,14.7-3.924,14.776l.077.179.179.076a12.034,12.034,0,0,0,4.276.72A14.588,14.588,0,0,0,470,239.5c.252-.252.491-.509.724-.768a12.983,12.983,0,0,0,5.706,5.4l.181.073.181-.072c.076-.031,7.6-3.157,7.6-13.1,0-7.005-3.733-10.624-5.967-12.164Zm1.1-2.919h1.411a2.437,2.437,0,0,1-2.384,1.946h-1.411a2.437,2.437,0,0,1,2.384-1.946Zm-5.352-.487v-.438a2.437,2.437,0,0,1,1.946,2.384v.438a2.437,2.437,0,0,1-1.946-2.384Zm-9.057,5.31a16.388,16.388,0,0,0,.775-4.265c1.368.225,5.1,1.054,7.37,3.59a13.518,13.518,0,0,0-2.445,3.059c-.173-.316-.348-.626-.524-.929l.47-3.289-.963-.138-.3,2.109c-1.19-1.906-2.218-3.284-2.234-3.3l-.778.584a52.631,52.631,0,0,1,3.025,4.631,17.347,17.347,0,0,0-3.529-1.023l-.16.96a14.068,14.068,0,0,1,4.4,1.535,15.422,15.422,0,0,0-1.381,5.844c-2.585-1.211-4.4-3.412-4.4-5.427a13.2,13.2,0,0,1,.675-3.935Zm4.191,18.045c-6.015,6.014-12.361,4.19-13.518,3.786-.408-1.157-2.244-7.486,3.787-13.518a15.9,15.9,0,0,1,4.1-3.012,8.751,8.751,0,0,0,5.146,5.113,15.719,15.719,0,0,0,1.414,6.621c-.293.341-.6.68-.931,1.009Zm7.3,4.334c-1.091-.523-6.815-3.668-6.815-12.119,0-8.529,5.681-11.594,6.809-12.119,1.091.523,6.815,3.668,6.815,12.119,0,8.529-5.681,11.594-6.809,12.119Zm0,0" transform="translate(-454.231 -214.708)"/>
      </g>
    </g>
    <path id="Path_689" data-name="Path 689" d="M727.12,287.086l-.557.8c.046.032,4.658,3.313,4.658,7.872h.973c0-5.061-4.866-8.525-5.073-8.67Zm0,0" transform="translate(-250.459 -67.2)"/>
    <path id="Path_690" data-name="Path 690" d="M658.973,430H658a11.717,11.717,0,0,0,5.606,10.159l.466-.855a10.9,10.9,0,0,1-5.1-9.3Zm0,0" transform="translate(-187.457 -198.524)"/>
    <path id="Path_691" data-name="Path 691" d="M661.224,330.072l-.609-.76A7.33,7.33,0,0,0,658,334.558h.973a6.447,6.447,0,0,1,2.251-4.486Zm0,0" transform="translate(-187.457 -106.002)"/>
    <path id="Path_692" data-name="Path 692" d="M755.738,420.445a5.4,5.4,0,0,1,1.319,3.55h.973a6.288,6.288,0,0,0-1.6-4.237Zm0,0" transform="translate(-277.269 -189.113)"/>
    <path id="Path_693" data-name="Path 693" d="M694.973,424.348a6.31,6.31,0,0,1,.892-3.137l-.405-.269-.4-.27A7.187,7.187,0,0,0,694,424.348Zm0,0" transform="translate(-220.537 -189.953)"/>
    <path id="Path_694" data-name="Path 694" d="M717.225,337.2h.973a2.9,2.9,0,0,0-1.793-2.895l-.308.923a1.951,1.951,0,0,1,1.127,1.972Zm0,0" transform="translate(-240.843 -110.59)"/>
    <path id="Path_695" data-name="Path 695" d="M731.754,486.576l.688.687a5.532,5.532,0,0,0,1.6-3.263h-.973a4.644,4.644,0,0,1-1.318,2.576Zm0,0" transform="translate(-255.23 -248.145)"/>
    <path id="Path_696" data-name="Path 696" d="M582.609,528.332l.464.856c.294-.159.586-.332.869-.513l-.525-.819c-.263.169-.534.329-.807.477Zm0,0" transform="translate(-118.179 -288.444)"/>
    <path id="Path_697" data-name="Path 697" d="M620.048,498.318c-.087.087-.175.173-.263.258l.674.7c.092-.089.185-.18.277-.271q.22-.22.425-.44l-.712-.664c-.13.139-.262.277-.4.416Zm0,0" transform="translate(-152.341 -260.92)"/>
    <path id="Path_698" data-name="Path 698" d="M602.066,514.607l.583.78q.4-.3.784-.627l-.631-.74q-.364.31-.736.587Zm0,0" transform="translate(-136.059 -275.731)"/>
    <path id="Path_699" data-name="Path 699" d="M482.739,408.465l-.692-.684-.057.057a12.784,12.784,0,0,0-4.1,9.04l.973.008a11.857,11.857,0,0,1,3.837-8.379Zm0,0" transform="translate(-21.95 -178.107)"/>
    <path id="Path_700" data-name="Path 700" d="M548.518,401.266l-.5-.832a13.658,13.658,0,0,0-2.549,2.029l.688.688a12.68,12.68,0,0,1,2.365-1.885Zm0,0" transform="translate(-84.048 -171.356)"/>
    <path id="Path_701" data-name="Path 701" d="M507.753,518.6l-.1.969c.308.031.623.046.935.046a9.634,9.634,0,0,0,3.656-.722l-.368-.9a8.661,8.661,0,0,1-4.126.608Zm0,0" transform="translate(-49.305 -279.377)"/>
    <path id="Path_702" data-name="Path 702" d="M571.406,436h-.973c0,1.222-.813,3.406-2.433,3.406v.973c2.193,0,3.406-2.59,3.406-4.379Zm0,0" transform="translate(-104.755 -204.038)"/>
    <path id="Path_703" data-name="Path 703" d="M508,458.994h.973a4.519,4.519,0,0,1,1.753-3.017l-.585-.778c-.087.066-2.141,1.63-2.141,3.8Zm0,0" transform="translate(-49.621 -221.68)"/>
  </g>
</svg>
