<svg xmlns="http://www.w3.org/2000/svg" width="52" height="52" viewBox="0 0 52 52">
  <g id="Group_605" data-name="Group 605" transform="translate(-81 -445)">
    <g id="Group_601" data-name="Group 601" transform="translate(81 445)">
      <path id="Path_501" data-name="Path 501" d="M768.438,367.184v1.762a10.738,10.738,0,0,1-3.4,7.816l-3.263-.495a11.23,11.23,0,0,0,1.627-5.821V367.36a11.231,11.231,0,0,0-1.141-4.932,10.669,10.669,0,0,0-2.206-3.028l.009-.008A2.685,2.685,0,0,1,762.433,358a2.721,2.721,0,0,1,1.61.529,10.766,10.766,0,0,1,4.4,8.655Zm0,0" transform="translate(-717.277 -337.871)" fill="#fcd770"/>
      <path id="Path_502" data-name="Path 502" d="M717.737,358.537a8.134,8.134,0,0,1,.981.864,10.67,10.67,0,0,1,2.206,3.028,11.231,11.231,0,0,1,1.141,4.932v3.086a11.23,11.23,0,0,1-1.627,5.821l-7.867-1.208v-.008a17.611,17.611,0,0,1-.57-4.445V367.2a17.848,17.848,0,0,1,.344-3.472,6.064,6.064,0,0,0,1.333.143c1.854,0,3.355-.755,3.355-1.677,0-.6-.621-1.116-1.552-1.409l.252-2.752a2.313,2.313,0,0,1,.419-.033,2.635,2.635,0,0,1,1.585.537Zm0,0" transform="translate(-675.935 -337.871)" fill="#fcd770"/>
      <path id="Path_503" data-name="Path 503" d="M635.356,358.36a2.662,2.662,0,0,1,1.048,1.082v.008a10.972,10.972,0,0,0-3.372,7.909v3.086a10.957,10.957,0,0,0,.6,3.581l-4.705-.721a10.714,10.714,0,0,1-.931-4.361v-1.762a10.738,10.738,0,0,1,.168-1.87c.034-.176.067-.352.109-.529a10.811,10.811,0,0,1,4.118-6.257,2.721,2.721,0,0,1,1.61-.529,2.667,2.667,0,0,1,1.35.36Zm0,0" transform="translate(-603.677 -337.871)" fill="#fcd770"/>
      <path id="Path_504" data-name="Path 504" d="M670.332,358.017l.252,2.768c-.931.293-1.552.813-1.552,1.409,0,.688.83,1.275,2.021,1.535a17.848,17.848,0,0,0-.344,3.472v3.405a17.608,17.608,0,0,0,.57,4.445l-5.267-.805-1.409-.218a10.959,10.959,0,0,1-.6-3.581V367.36a10.972,10.972,0,0,1,3.372-7.909v-.008a9.967,9.967,0,0,1,1.065-.906,2.762,2.762,0,0,1,1.627-.537,2.45,2.45,0,0,1,.26.017Zm0,0" transform="translate(-634.645 -337.871)" fill="#fcd770"/>
      <path id="Path_505" data-name="Path 505" d="M706.71,315.742c0,.923-1.5,1.677-3.355,1.677a6.064,6.064,0,0,1-1.333-.143c-1.191-.26-2.021-.847-2.021-1.535,0-.6.621-1.115,1.552-1.409l-.252-2.768-.453-4.94a1.92,1.92,0,0,1-.008-.218A2.4,2.4,0,0,1,703.246,304h.218a2.4,2.4,0,0,1,2.407,2.407,1.934,1.934,0,0,1-.008.218l-.453,4.956-.252,2.751c.931.293,1.552.813,1.552,1.409Zm0,0" transform="translate(-665.613 -291.419)" fill="#cf9e76"/>
      <path id="Path_506" data-name="Path 506" d="M488.7,223.464a4.128,4.128,0,0,1,.914-.109,4.178,4.178,0,0,1,3.355,1.677l-.017.084a3.779,3.779,0,0,0-.822-.084,4.185,4.185,0,0,0-3.858,2.549c-.109-.008-.218-.033-.335-.033a4.19,4.19,0,0,0-4.135,3.581,5.868,5.868,0,0,0-1.032,10.878,4.142,4.142,0,0,0-.7,2.315,4.191,4.191,0,0,0,1.962,3.539,4.192,4.192,0,0,0,3.909,5.712c-.218-.017-.428-.025-.637-.025h-.2a8.325,8.325,0,0,0-4.453,1.283l-2.256-6.315a4.171,4.171,0,0,1-3.909-5.686,4.191,4.191,0,0,1-1.962-3.539,4.142,4.142,0,0,1,.7-2.315,5.868,5.868,0,0,1,1.032-10.878,4.19,4.19,0,0,1,4.135-3.581c.117,0,.227.025.335.033a4.186,4.186,0,0,1,7.977.915Zm0,0" transform="translate(-469.484 -219.161)" fill="#8cc152"/>
      <path id="Path_507" data-name="Path 507" d="M546.6,266.484a4.168,4.168,0,0,1,1.208,2.935,4.264,4.264,0,0,1-.159,1.141l-.033.058a2.667,2.667,0,0,0-1.35-.36,2.721,2.721,0,0,0-1.61.529,10.811,10.811,0,0,0-4.118,6.257c-.042.176-.075.352-.109.529a10.732,10.732,0,0,0-.168,1.87V281.2a10.713,10.713,0,0,0,.931,4.361l-6.165-.948c-.218-.033-.428-.058-.637-.075a4.192,4.192,0,0,1-3.909-5.712,4.191,4.191,0,0,1-1.962-3.539,4.142,4.142,0,0,1,.7-2.315,5.868,5.868,0,0,1,1.032-10.878,4.19,4.19,0,0,1,4.135-3.581c.117,0,.227.025.335.033A4.185,4.185,0,0,1,538.581,256a3.777,3.777,0,0,1,.822.084,4.173,4.173,0,0,1,3.3,3.38,4.128,4.128,0,0,1,.914-.109,4.187,4.187,0,0,1,2.986,7.129Zm0,0" transform="translate(-515.935 -250.129)" fill="#b4dd7f"/>
      <path id="Path_508" data-name="Path 508" d="M464.026,508h4.529a8.478,8.478,0,0,0,0,3.355h-6.877A1.689,1.689,0,0,1,460,509.677,1.682,1.682,0,0,1,461.677,508Zm0,0" transform="translate(-459.161 -466.903)" fill="#b4dd7f"/>
      <path id="Path_509" data-name="Path 509" d="M479.837,484.033l4.99,1.116a8.356,8.356,0,0,0-.789,2.206H479.51a1.514,1.514,0,0,1-1.51-1.51v-.335a1.514,1.514,0,0,1,1.51-1.51,1.456,1.456,0,0,1,.327.033Zm0,0" transform="translate(-474.645 -446.258)" fill="#b4dd7f"/>
      <path id="Path_510" data-name="Path 510" d="M484.827,534.206l-4.99,1.116a1.46,1.46,0,0,1-.327.033,1.514,1.514,0,0,1-1.51-1.51v-.335a1.514,1.514,0,0,1,1.51-1.51h4.529a8.356,8.356,0,0,0,.789,2.206Zm0,0" transform="translate(-474.645 -487.548)" fill="#b4dd7f"/>
      <path id="Path_511" data-name="Path 511" d="M561,465.838a3.913,3.913,0,0,0-2.374-1.317l-.084-.017-3.263-.495-7.867-1.208v-.008l-5.267-.805-1.409-.218-4.705-.721-6.165-.948c-.218-.033-.428-.058-.637-.075s-.428-.025-.637-.025h-.2a8.41,8.41,0,0,0-8.22,6.71,8.478,8.478,0,0,0,0,3.355,8.395,8.395,0,0,0,8.22,6.71h.2a8.217,8.217,0,0,0,1.275-.1l12.279-1.887,16.481-2.533A3.918,3.918,0,0,0,561,465.838Zm0,0" transform="translate(-510.774 -425.613)" fill="#ff826e"/>
      <path id="Path_512" data-name="Path 512" d="M506,243.312a11.652,11.652,0,0,0-4.736-9.328,3.568,3.568,0,0,0-2.11-.693,3.53,3.53,0,0,0-2.483,1.022c-.122-.1-.233-.213-.358-.31a3.494,3.494,0,0,0-1.6-.654l.37-4.067c.008-.1.013-.2.013-.294a3.249,3.249,0,0,0-3.246-3.246h-.218a3.249,3.249,0,0,0-3.246,3.246c0,.1,0,.2.014.294l.371,4.085a3.586,3.586,0,0,0-1.48.63c-.15.112-.283.242-.428.36-.075-.077-.153-.149-.235-.219a5.05,5.05,0,0,0,.08-.847,4.988,4.988,0,0,0-.948-2.935,4.987,4.987,0,0,0,.948-2.935,5.037,5.037,0,0,0-5.325-5.023,5.012,5.012,0,0,0-3.337-3.156,4.962,4.962,0,0,0-4.211-1.877,5.026,5.026,0,0,0-9.1-.845,5.055,5.055,0,0,0-4.691,3.777,6.739,6.739,0,0,0-4.369,6.284,6.672,6.672,0,0,0,2.934,5.542,5.01,5.01,0,0,0,1.4,5.869,4.85,4.85,0,0,0-.145,1.169,5.04,5.04,0,0,0,4.428,5l1.855,5.2a9.27,9.27,0,0,0-2.383,2.583l-4.394-.976a2.3,2.3,0,0,0-.512-.057,2.353,2.353,0,0,0-2.35,2.35v.332a2.329,2.329,0,0,0,.11.673h-.11a2.516,2.516,0,1,0,0,5.032h.11a2.329,2.329,0,0,0-.11.673v.332a2.353,2.353,0,0,0,2.35,2.35,2.31,2.31,0,0,0,.51-.056l4.4-.977A9.219,9.219,0,0,0,471.613,266h.2a9.225,9.225,0,0,0,1.4-.108l28.76-4.424a4.739,4.739,0,0,0,1.308-8.972,11.6,11.6,0,0,0,2.72-7.421Zm-10.708-7.977a10.31,10.31,0,0,1,4,8.157v3.081a10.355,10.355,0,0,1-1.236,4.9l-6.725-1.035a16.717,16.717,0,0,1-.425-3.708V243.33a16.7,16.7,0,0,1,.213-2.527c.205.017.41.036.626.036,2.391,0,4.194-1.082,4.194-2.516a2.281,2.281,0,0,0-1.5-1.956l.123-1.357a1.756,1.756,0,0,1,.729.325Zm-3.659-7.916h.219a1.571,1.571,0,0,1,1.569,1.568,1.378,1.378,0,0,1-.007.142l-.761,8.376.64.206c.734.235.966.544.966.61,0,.209-.892.839-2.516.839s-2.516-.63-2.516-.839c0-.066.231-.376.966-.612l.64-.205-.761-8.376c0-.048-.006-.1-.006-.142a1.57,1.57,0,0,1,1.568-1.568Zm-2.709,7.618.121,1.33a2.281,2.281,0,0,0-1.5,1.956c0,.924.754,1.7,1.926,2.133a18.479,18.479,0,0,0-.248,2.874v3.405a18.44,18.44,0,0,0,.325,3.435l-4.944-.761a10.1,10.1,0,0,1-.413-2.837v-3.081a10.217,10.217,0,0,1,4.1-8.151,1.888,1.888,0,0,1,.629-.3Zm-9.064,13.641a9.753,9.753,0,0,1-.7-3.6v-1.764a9.972,9.972,0,0,1,4.055-7.979,1.889,1.889,0,0,1,1.113-.364,1.853,1.853,0,0,1,1.314.545,11.882,11.882,0,0,0-3.128,7.98v3.081a11.765,11.765,0,0,0,.29,2.559Zm.079-25.2.152.863.856-.191a3.349,3.349,0,0,1,3.123,5.616l-.577.588.577.588a3.335,3.335,0,0,1,.963,2.347c0,.025,0,.05,0,.076a3.473,3.473,0,0,0-2.807.616,11.69,11.69,0,0,0-3.544,4.26c-.318-.989-.651-1.937-1-2.837a11.892,11.892,0,0,1,3.683-6.494l-.525-.654-.524-.655a13.281,13.281,0,0,0-3.66,5.288,52.161,52.161,0,0,0-3.5-6.764l-1.412.907a49.394,49.394,0,0,1,2.79,5.25,13.81,13.81,0,0,0-5.523-.667l.167,1.669c1.261-.127,4.835-.065,6.5,1.638.588,1.445,1.167,3.029,1.679,4.727a14.19,14.19,0,0,0-5.749-1.329V240c.039,0,3.773.025,5.983,1.782a11.31,11.31,0,0,0-.113,1.53v1.764a11.442,11.442,0,0,0,.5,3.314l-4.77-.734c-.252-.039-.506-.064-.761-.083A3.351,3.351,0,0,1,469.327,243l.245-.642-.582-.368a3.337,3.337,0,0,1-1.011-4.682l.522-.785-.84-.427a5.026,5.026,0,0,1,.889-9.319l.521-.149.078-.536a3.363,3.363,0,0,1,3.3-2.868.631.631,0,0,1,.091.011c.059.008.119.016.178.02l.6.049.237-.555a3.348,3.348,0,0,1,6.38.728Zm-14.444,19.038H464.9a3.33,3.33,0,0,1-3.124-4.547l.246-.642-.581-.368a3.336,3.336,0,0,1-1.012-4.682l.523-.785-.84-.427a5.026,5.026,0,0,1,.888-9.319l.52-.149.078-.536a3.365,3.365,0,0,1,3.3-2.868.68.68,0,0,1,.094.011c.057.008.114.015.172.02l.6.05.237-.557a3.348,3.348,0,0,1,6.379.728l.152.863.856-.191a3.08,3.08,0,0,1,1.834.121,5.021,5.021,0,0,0-2.947,2.312,5.055,5.055,0,0,0-4.691,3.777,6.739,6.739,0,0,0-4.369,6.284,6.672,6.672,0,0,0,2.934,5.542,5.011,5.011,0,0,0,1.4,5.87,4.847,4.847,0,0,0-.145,1.168,5.047,5.047,0,0,0,1.638,3.722,9.045,9.045,0,0,0-1.437.554Zm-7.3,11.069v-.332a.684.684,0,0,1,.82-.657l3.991.887q-.146.38-.259.774h-3.879a.674.674,0,0,1-.673-.673Zm-2.516,3.189a.84.84,0,0,1,.839-.839h5.913c-.025.277-.042.555-.042.839s.017.562.043.839h-5.914a.84.84,0,0,1-.839-.839Zm3.334,4.178a.691.691,0,0,1-.818-.657v-.332a.674.674,0,0,1,.673-.673h3.878c.075.263.163.521.259.774Zm45.311-4.178a3.055,3.055,0,0,1-2.6,3.036l-28.76,4.424a7.6,7.6,0,0,1-1.149.088h-.2a7.548,7.548,0,1,1,0-15.1h.2a7.657,7.657,0,0,1,1.148.087l28.759,4.424a3.057,3.057,0,0,1,2.605,3.037Zm0-11.7A9.929,9.929,0,0,1,501.462,252l-1.667-.257a12.034,12.034,0,0,0,1.172-5.173v-3.081a12.034,12.034,0,0,0-3.086-8.012,1.853,1.853,0,0,1,1.272-.512,1.878,1.878,0,0,1,1.113.366,9.969,9.969,0,0,1,4.055,7.979Zm0,0" transform="translate(-454 -214)"/>
      <rect id="Rectangle_155" data-name="Rectangle 155" width="1" height="8" transform="translate(17 39)"/>
      <rect id="Rectangle_156" data-name="Rectangle 156" width="2" height="8" transform="translate(23 39)"/>
      <rect id="Rectangle_157" data-name="Rectangle 157" width="1" height="8" transform="translate(31 39)"/>
      <rect id="Rectangle_158" data-name="Rectangle 158" width="2" height="5" transform="translate(37 40)"/>
      <rect id="Rectangle_159" data-name="Rectangle 159" width="1" height="4" transform="translate(44 41)"/>
    </g>
  </g>
</svg>
