<svg xmlns="http://www.w3.org/2000/svg" width="39.456" height="27.743" viewBox="0 0 39.456 27.743">
  <g id="DISH" transform="translate(-37.547 -102.4)">
    <circle id="Ellipse_51" data-name="Ellipse 51" cx="3.083" cy="3.083" r="3.083" transform="translate(54.193 103.017)" fill="#fbad4a"/>
    <path id="Path_704" data-name="Path 704" d="M218.739,109.8a3.7,3.7,0,1,1,3.7-3.7A3.7,3.7,0,0,1,218.739,109.8Zm0-6.165a2.466,2.466,0,1,0,2.466,2.466A2.469,2.469,0,0,0,218.739,103.633Z" transform="translate(-161.464 0)"/>
    <path id="Path_705" data-name="Path 705" d="M93.784,188.546a17.879,17.879,0,1,0-35.757,0Z" transform="translate(-18.63 -62.102)" fill="#feda38"/>
    <path id="Path_706" data-name="Path 706" d="M87.574,182.952H51.817a.617.617,0,0,1-.617-.617,18.5,18.5,0,0,1,36.99,0A.617.617,0,0,1,87.574,182.952Zm-35.13-1.233h34.5a17.262,17.262,0,0,0-34.5,0Z" transform="translate(-12.42 -55.891)"/>
    <path id="Path_707" data-name="Path 707" d="M81.055,371.723H45.914a1.541,1.541,0,0,1-1.541-1.541h0a1.541,1.541,0,0,1,1.541-1.541H81.055a1.541,1.541,0,0,1,1.541,1.541h0A1.541,1.541,0,0,1,81.055,371.723Z" transform="translate(-6.21 -242.196)" fill="#fbad4a"/>
    <path id="Path_708" data-name="Path 708" d="M74.846,366.129H39.7a2.158,2.158,0,0,1,0-4.316H74.846a2.158,2.158,0,0,1,0,4.316ZM39.7,363.046a.925.925,0,1,0,0,1.849H74.846a.925.925,0,1,0,0-1.849Z" transform="translate(0 -235.986)"/>
    <path id="Path_709" data-name="Path 709" d="M108.719,208.535a.617.617,0,0,1-.53-.931,15.379,15.379,0,0,1,10.7-7.356.617.617,0,0,1,.2,1.216,14.148,14.148,0,0,0-9.845,6.768A.616.616,0,0,1,108.719,208.535Z" transform="translate(-64.184 -89.004)" fill="#fff"/>
  </g>
</svg>
