<svg xmlns="http://www.w3.org/2000/svg" xmlns:xlink="http://www.w3.org/1999/xlink" width="23.202" height="34" viewBox="0 0 23.202 34">
  <defs>
    <clipPath id="clip-path">
      <rect id="Rectangle_163" data-name="Rectangle 163" width="23" height="34" transform="translate(0 -0.214)" fill="none"/>
    </clipPath>
  </defs>
  <g id="Group_681" data-name="Group 681" transform="translate(-514 -221.794)">
    <path id="Path_648" data-name="Path 648" d="M649.084,474.1A6.928,6.928,0,0,0,639,473.9v-2.125c4.368-3.873,9.2-1.771,10.084,2.324Zm0,0" transform="translate(-113.135 -224.209)" fill="#a5cc2a"/>
    <path id="Path_649" data-name="Path 649" d="M532.77,474.1a6.928,6.928,0,0,1,10.084-.2v-2.125c-4.368-3.873-9.2-1.771-10.084,2.324Zm0,0" transform="translate(-16.988 -224.209)" fill="#a5cc2a"/>
    <path id="Path_650" data-name="Path 650" d="M643.222,287.234c-1.5,1.5-4.2,1.234-4.2,1.234s-.268-2.7,1.234-4.2,4.2-1.233,4.2-1.233.267,2.7-1.235,4.2Zm0,0" transform="translate(-113.134 -55.221)" fill="#ffd203"/>
    <path id="Path_651" data-name="Path 651" d="M643.222,337.335c-1.5,1.5-4.2,1.233-4.2,1.233s-.268-2.7,1.234-4.2,4.2-1.233,4.2-1.233.267,2.7-1.235,4.2Zm0,0" transform="translate(-113.134 -100.565)" fill="#ffd203"/>
    <path id="Path_652" data-name="Path 652" d="M643.222,387.433c-1.5,1.5-4.2,1.233-4.2,1.233s-.268-2.7,1.234-4.2,4.2-1.233,4.2-1.233.267,2.7-1.235,4.2Zm0,0" transform="translate(-113.134 -145.907)" fill="#ffd203"/>
    <path id="Path_653" data-name="Path 653" d="M582.575,287.234c1.5,1.5,4.2,1.234,4.2,1.234s.268-2.7-1.234-4.2-4.2-1.233-4.2-1.233-.267,2.7,1.235,4.2Zm0,0" transform="translate(-60.931 -55.221)" fill="#ffd203"/>
    <path id="Path_654" data-name="Path 654" d="M582.575,337.335c1.5,1.5,4.2,1.233,4.2,1.233s.268-2.7-1.234-4.2-4.2-1.233-4.2-1.233-.267,2.7,1.235,4.2Zm0,0" transform="translate(-60.931 -100.565)" fill="#ffd203"/>
    <path id="Path_655" data-name="Path 655" d="M582.575,387.433c1.5,1.5,4.2,1.233,4.2,1.233s.268-2.7-1.234-4.2-4.2-1.233-4.2-1.233-.267,2.7,1.235,4.2Zm0,0" transform="translate(-60.931 -145.907)" fill="#ffd203"/>
    <path id="Path_656" data-name="Path 656" d="M621.075,231.344c0,2.123-2.1,3.844-2.1,3.844s-2.1-1.721-2.1-3.844,2.1-3.844,2.1-3.844,2.1,1.721,2.1,3.844Zm0,0" transform="translate(-93.11 -4.977)" fill="#ffd203"/>
    <path id="Path_657" data-name="Path 657" d="M639,453.2c5.019-5.09,9.893-3.776,11.336.479-1.191-1.369-6.317-3.826-11.336,1.87Zm0,0" transform="translate(-113.135 -206.268)" fill="#bae543"/>
    <g id="Group_680" data-name="Group 680" transform="translate(514 222.008)">
      <g id="Group_679" data-name="Group 679" transform="translate(0 0)" clip-path="url(#clip-path)">
        <path id="Path_658" data-name="Path 658" d="M530.91,453.2c-5.019-5.09-9.893-3.776-11.336.479,1.191-1.369,6.317-3.826,11.336,1.87Zm0,0" transform="translate(-519.045 -428.276)" fill="#bae543"/>
        <path id="Path_659" data-name="Path 659" d="M537.945,247.476a5.6,5.6,0,0,0-6.026-4.081.5.5,0,0,0,.1.991,4.4,4.4,0,0,1,4.085,1.706,7.585,7.585,0,0,0-3.094-.673h-.024a9.127,9.127,0,0,0-6.354,2.852v-.9a13.9,13.9,0,0,1,1.728-1.468.5.5,0,1,0-.576-.814,14.088,14.088,0,0,0-1.152.918v-2.5h.017a5.881,5.881,0,0,0,4.058-1.4c1.65-1.649,1.389-4.485,1.378-4.6a.5.5,0,0,0-.447-.447c-.033,0-.28-.024-.648-.02a6.618,6.618,0,0,0,1.1-4.29.5.5,0,0,0-.447-.447c-.033,0-.28-.025-.648-.02a6.617,6.617,0,0,0,1.1-4.289.5.5,0,0,0-.447-.447,7.434,7.434,0,0,0-3.161.448,4.149,4.149,0,0,0,.257-1.4c0-2.332-2.19-4.153-2.283-4.23a.5.5,0,0,0-.632,0,7.791,7.791,0,0,0-1.469,1.7.5.5,0,0,0,.842.533,6.926,6.926,0,0,1,.941-1.166,3.928,3.928,0,0,1,0,6.33,4.956,4.956,0,0,1-1.6-3.165.5.5,0,0,0-1,0,4.159,4.159,0,0,0,.256,1.4,7.445,7.445,0,0,0-3.161-.448.5.5,0,0,0-.448.446,6.615,6.615,0,0,0,1.1,4.289c-.368,0-.615.017-.648.02a.5.5,0,0,0-.447.447,6.616,6.616,0,0,0,1.1,4.29c-.368,0-.615.017-.648.02a.5.5,0,0,0-.447.448c-.012.12-.272,2.956,1.377,4.605a5.88,5.88,0,0,0,4.058,1.4h.017v2.5c-2.418-2.132-4.94-3.02-7.193-2.5a5.771,5.771,0,0,0-4.116,3.973.5.5,0,0,0,.848.487,5.073,5.073,0,0,1,2.359-1.31,6.144,6.144,0,0,0-1.969,3.355.5.5,0,0,0,.907.374,6.137,6.137,0,0,1,3.93-2,6.511,6.511,0,0,1,5.234,1.758v5.36a.5.5,0,0,0,1,0v-5.361a6.51,6.51,0,0,1,5.234-1.758,6.136,6.136,0,0,1,3.931,2,.5.5,0,0,0,.907-.374,6.151,6.151,0,0,0-1.968-3.355,5.069,5.069,0,0,1,2.357,1.31.5.5,0,0,0,.848-.487Zm-6.835-9.448h0a3.928,3.928,0,0,1-4.475,4.475h0v-.057a4.878,4.878,0,0,1,1.105-3.315,3.288,3.288,0,0,1,1.075-.7c.142-.044.285-.1.429-.152a6.657,6.657,0,0,1,1.864-.256Zm0-4.756h0a4.937,4.937,0,0,1-1.106,3.371,3.3,3.3,0,0,1-1.1.7c-.135.042-.27.089-.4.142a6.645,6.645,0,0,1-1.866.256h0v-.057a4.879,4.879,0,0,1,1.105-3.315,3.289,3.289,0,0,1,1.075-.7c.142-.044.285-.1.429-.152a6.672,6.672,0,0,1,1.864-.254Zm0-4.755h0a4.938,4.938,0,0,1-1.106,3.37,3.3,3.3,0,0,1-1.1.7q-.2.063-.406.142a6.667,6.667,0,0,1-1.866.256h0v-.057a4.875,4.875,0,0,1,1.105-3.315,4.962,4.962,0,0,1,3.367-1.1Zm-8.843,3.369a4.957,4.957,0,0,1-1.105-3.371h0a3.924,3.924,0,0,1,4.474,4.463v.014h-.015a6.6,6.6,0,0,1-1.822-.247q-.226-.091-.452-.159a3.3,3.3,0,0,1-1.081-.7Zm0,4.756a4.957,4.957,0,0,1-1.105-3.372h.015a6.593,6.593,0,0,1,1.828.248c.156.063.311.119.468.166a3.282,3.282,0,0,1,1.06.692,4.945,4.945,0,0,1,1.1,3.358v.014a6.57,6.57,0,0,1-1.817-.239c-.162-.067-.325-.122-.488-.171a3.3,3.3,0,0,1-1.066-.7Zm0,4.756a4.957,4.957,0,0,1-1.105-3.372h.015a6.6,6.6,0,0,1,1.828.248q.233.095.468.166a3.289,3.289,0,0,1,1.06.692,4.944,4.944,0,0,1,1.1,3.358v.013h0a4.949,4.949,0,0,1-3.368-1.1Zm-3.6,3.075c2.125-.488,4.6.541,6.971,2.893v.9a9.081,9.081,0,0,0-6.379-2.852,7.584,7.584,0,0,0-3.09.672,4.358,4.358,0,0,1,2.5-1.617Zm1.611,2.916a7.967,7.967,0,0,0-2.974,1.013,4.815,4.815,0,0,1,2.612-1.955,7.538,7.538,0,0,1,3.309,1.182,7.16,7.16,0,0,0-2.947-.239Zm11.716,0a7.168,7.168,0,0,0-2.937.237,7.607,7.607,0,0,1,3.309-1.177,4.765,4.765,0,0,1,2.62,1.963A7.954,7.954,0,0,0,532,247.391Zm0,0" transform="translate(-514.272 -222.234)" fill="#111b35"/>
      </g>
    </g>
    <path id="Path_660" data-name="Path 660" d="M671.483,448.9c-.264.095-.531.207-.8.332a.5.5,0,1,0,.427.9c.235-.112.473-.211.707-.295a.5.5,0,0,0-.338-.938Zm0,0" transform="translate(-141.551 -205.328)" fill="#111b35"/>
  </g>
</svg>
